<?xml version="1.0" encoding="utf-8"?>
<!-- Generator: Adobe Illustrator 15.1.0, SVG Export Plug-In . SVG Version: 6.00 Build 0)  -->
<!DOCTYPE svg PUBLIC "-//W3C//DTD SVG 1.0//EN" "http://www.w3.org/TR/2001/REC-SVG-20010904/DTD/svg10.dtd">
<svg version="1.0" id="Layer_1" xmlns="http://www.w3.org/2000/svg" xmlns:xlink="http://www.w3.org/1999/xlink" x="0px" y="0px"
	 width="650px" height="1160px" viewBox="0 0 650 1160" enable-background="new 0 0 650 1160" xml:space="preserve">
<g>
	<g>
		<rect x="-31" y="-4" fill="#EF7373" width="712" height="1168"/>
		<g>
			<path fill="#FFFFFF" d="M515.418,251c0,0-287.647,0-383.53,0c-4.24,0-9.888,2.942-9.888,7.183v269.012
				c0,4.24,5.647,7.806,9.888,7.806h383.53c4.24,0,5.582-3.565,5.582-7.806V258.183C521,253.942,519.658,251,515.418,251z
				 M505,511.322c0,4.24-3.438,7.678-7.678,7.678H145.678c-4.24,0-7.678-3.438-7.678-7.678V273.678c0-4.24,3.438-7.678,7.678-7.678
				h351.645c4.24,0,7.678,3.438,7.678,7.678V511.322z M325.198,258.764c0,1.18-0.955,2.137-2.134,2.137s-2.134-0.957-2.134-2.137
				s0.955-2.137,2.134-2.137S325.198,257.584,325.198,258.764z M323.439,258.766c0,0.237-0.192,0.43-0.43,0.43
				c-0.238,0-0.43-0.192-0.43-0.43c0-0.238,0.191-0.43,0.43-0.43C323.247,258.336,323.439,258.527,323.439,258.766z"/>
			<path fill="#FFFFFF" d="M460,300.678c0-4.24-3.438-7.678-7.678-7.678H189.678c-4.24,0-7.678,3.438-7.678,7.678v182.645
				c0,4.24,3.438,7.678,7.678,7.678h262.645c4.24,0,7.678-3.438,7.678-7.678V300.678z M430,470.418c0,4.24-1.065,8.582-5.382,8.582
				H203.763c-4.317,0-9.763-4.342-9.763-8.582V313.352c0-4.24,5.445-7.352,9.763-7.352h220.855c4.316,0,5.382,3.111,5.382,7.352
				V470.418z M447.503,384.369c3.853,0,6.975,3.123,6.975,6.975c0,3.853-3.122,6.976-6.975,6.976c-3.852,0-6.975-3.123-6.975-6.976
				C440.528,387.492,443.651,384.369,447.503,384.369z M192.191,391.563c0,1.18-0.955,2.136-2.134,2.136
				c-1.178,0-2.134-0.956-2.134-2.136c0-1.181,0.956-2.137,2.134-2.137C191.236,389.427,192.191,390.383,192.191,391.563z
				 M190.479,391.566c0,0.254-0.206,0.459-0.459,0.459c-0.254,0-0.459-0.205-0.459-0.459c0-0.253,0.205-0.459,0.459-0.459
				C190.273,391.107,190.479,391.313,190.479,391.566z"/>
			<path fill="#FFFFFF" d="M589.405,542H375v1.377c0,2.922-1.386,5.623-5.626,5.623H267.638c-4.24,0-9.638-2.701-9.638-5.623V542
				H64.335c-4.24,0-9.335,2.557-9.335,6.238v15.719c0,3.682,5.095,8.043,9.335,8.043h525.07c4.24,0,5.595-4.361,5.595-8.043v-15.719
				C595,544.557,593.646,542,589.405,542z M540.788,555h-15.44c-0.533,0-0.966-0.468-0.966-1c0-0.533,0.433-1,0.966-1h15.44
				c0.533,0,0.965,0.467,0.965,1C541.753,554.532,541.321,555,540.788,555z"/>
			<path fill="#FFFFFF" d="M358,325.4c0-3.929-0.44-6.4-3.852-6.4h-69.419c-3.412,0-7.729,2.472-7.729,6.4v132.404
				c0,3.929,4.317,8.195,7.729,8.195h69.419c3.411,0,3.852-4.267,3.852-8.195V325.4z M352,433.572c0,3.34-0.134,7.428-3.544,7.428
				h-57.514c-3.41,0-7.942-4.088-7.942-7.428v-98.848c0-3.338,4.532-3.725,7.942-3.725h57.514c3.41,0,3.544,0.387,3.544,3.725
				V433.572z M326.426,452.4c0,3.457-2.434,6.259-5.435,6.259s-5.434-2.802-5.434-6.259c0-3.456,2.433-6.259,5.434-6.259
				S326.426,448.944,326.426,452.4z M328,325.188c0,0.518,0.201,0.812-0.489,0.812h-17.5c-0.69,0-2.011-0.295-2.011-0.812v-0.375
				c0-0.518,1.32-0.812,2.011-0.812h17.5c0.69,0,0.489,0.295,0.489,0.812V325.188z"/>
		</g>
	</g>
	<text transform="matrix(1 0 0 1 23.0278 816.1367)" fill="#FFFFFF" font-family="'EuphemiaUCAS-Bold'" font-size="161.2827">Gracias</text>
</g>
</svg>
