<?xml version="1.0" encoding="utf-8"?>
<!-- Generator: Adobe Illustrator 15.1.0, SVG Export Plug-In . SVG Version: 6.00 Build 0)  -->
<!DOCTYPE svg PUBLIC "-//W3C//DTD SVG 1.0//EN" "http://www.w3.org/TR/2001/REC-SVG-20010904/DTD/svg10.dtd">
<svg version="1.0" id="Layer_1" xmlns="http://www.w3.org/2000/svg" xmlns:xlink="http://www.w3.org/1999/xlink" x="0px" y="0px"
	 width="1200px" height="1000px" viewBox="0 0 1200 1000" enable-background="new 0 0 1200 1000" xml:space="preserve">
<g>
	<rect x="2" y="-2" fill="#EF7373" width="1200" height="1000"/>
	<g>
		<path fill="#FFFFFF" d="M789.594,201c0,0-287.647,0-383.53,0c-4.24,0-9.063,2.906-9.063,7.146v269.012
			c0,4.24,4.823,7.842,9.063,7.842h383.53c4.24,0,6.406-3.602,6.406-7.842V208.146C796,203.906,793.834,201,789.594,201z
			 M780,461.322c0,4.24-3.438,7.678-7.678,7.678H420.678c-4.24,0-7.678-3.438-7.678-7.678V223.678c0-4.24,3.438-7.678,7.678-7.678
			h351.645c4.24,0,7.678,3.438,7.678,7.678V461.322z M599.373,208.728c0,1.18-0.954,2.137-2.133,2.137s-2.134-0.957-2.134-2.137
			c0-1.18,0.955-2.137,2.134-2.137S599.373,207.547,599.373,208.728z M597.615,208.729c0,0.238-0.192,0.431-0.43,0.431
			c-0.238,0-0.43-0.192-0.43-0.431c0-0.237,0.191-0.43,0.43-0.43C597.423,208.299,597.615,208.491,597.615,208.729z"/>
		<path fill="#FFFFFF" d="M735,250.678c0-4.24-3.438-7.678-7.678-7.678H464.678c-4.24,0-7.678,3.438-7.678,7.678v182.645
			c0,4.24,3.438,7.678,7.678,7.678h262.645c4.24,0,7.678-3.438,7.678-7.678V250.678z M705,420.381c0,4.24-1.89,8.619-6.206,8.619
			H477.938c-4.317,0-8.938-4.378-8.938-8.619V263.315c0-4.24,4.621-7.315,8.938-7.315h220.855c4.316,0,6.206,3.075,6.206,7.315
			V420.381z M721.679,334.333c3.853,0,6.975,3.123,6.975,6.975c0,3.852-3.122,6.976-6.975,6.976c-3.852,0-6.975-3.124-6.975-6.976
			C714.704,337.455,717.827,334.333,721.679,334.333z M466.367,341.527c0,1.18-0.955,2.136-2.134,2.136
			c-1.178,0-2.134-0.957-2.134-2.136c0-1.18,0.956-2.137,2.134-2.137C465.412,339.39,466.367,340.347,466.367,341.527z
			 M464.655,341.53c0,0.253-0.206,0.459-0.459,0.459c-0.254,0-0.459-0.206-0.459-0.459c0-0.253,0.205-0.459,0.459-0.459
			C464.449,341.071,464.655,341.277,464.655,341.53z"/>
		<path fill="#FFFFFF" d="M863.581,492H650v1.34c0,2.922-2.21,5.66-6.45,5.66H541.813c-4.24,0-8.813-2.738-8.813-5.66V492H338.511
			c-4.24,0-8.511,2.52-8.511,6.201v15.719c0,3.682,4.271,8.08,8.511,8.08h525.07c4.24,0,6.419-4.398,6.419-8.08v-15.719
			C870,494.52,867.821,492,863.581,492z M814.964,505h-15.44c-0.533,0-0.966-0.468-0.966-1c0-0.533,0.433-1,0.966-1h15.44
			c0.533,0,0.965,0.467,0.965,1C815.929,504.532,815.497,505,814.964,505z"/>
		<path fill="#FFFFFF" d="M633,275.363c0-3.928-1.265-6.363-4.676-6.363h-69.419c-3.412,0-6.905,2.436-6.905,6.363v132.405
			c0,3.929,3.493,8.232,6.905,8.232h69.419c3.411,0,4.676-4.303,4.676-8.232V275.363z M627,383.536c0,3.339-0.958,7.464-4.368,7.464
			h-57.514c-3.411,0-7.118-4.125-7.118-7.464v-98.847c0-3.339,3.707-3.688,7.118-3.688h57.514c3.41,0,4.368,0.35,4.368,3.688
			V383.536z M600.602,402.364c0,3.457-2.434,6.259-5.436,6.259c-3,0-5.433-2.802-5.433-6.259c0-3.456,2.433-6.259,5.433-6.259
			C598.168,396.105,600.602,398.908,600.602,402.364z M603,275.151c0,0.518-0.623,0.849-1.313,0.849h-17.5
			c-0.69,0-1.187-0.332-1.187-0.849v-0.375c0-0.518,0.496-0.776,1.187-0.776h17.5c0.69,0,1.313,0.259,1.313,0.776V275.151z"/>
	</g>
	<text transform="matrix(1 0 0 1 298.0283 694.5654)" fill="#FFFFFF" font-family="'EuphemiaUCAS-Bold'" font-size="161.2827">Gracias</text>
</g>
</svg>
