<?xml version="1.0" encoding="utf-8"?>
<!-- Generator: Adobe Illustrator 15.1.0, SVG Export Plug-In . SVG Version: 6.00 Build 0)  -->
<!DOCTYPE svg PUBLIC "-//W3C//DTD SVG 1.0//EN" "http://www.w3.org/TR/2001/REC-SVG-20010904/DTD/svg10.dtd">
<svg version="1.0" id="Layer_1" xmlns="http://www.w3.org/2000/svg" xmlns:xlink="http://www.w3.org/1999/xlink" x="0px" y="0px"
	 width="1200px" height="1000px" viewBox="0 0 1200 1000" enable-background="new 0 0 1200 1000" xml:space="preserve">
<g>
	<rect fill="#EF7373" width="1200" height="1000"/>
	<text transform="matrix(1 0 0 1 174.5503 675.6406)" fill="#FFFFFF" font-family="'EuphemiaUCAS-Bold'" font-size="161.2827">Responsive</text>
	<g>
		<path fill="#FFFFFF" d="M789.657,213c0,0-287.647,0-383.531,0c-4.24,0-9.126,2.942-9.126,7.183v269.012
			c0,4.24,4.887,7.806,9.126,7.806h383.531c4.24,0,6.343-3.565,6.343-7.806V220.183C796,215.942,793.897,213,789.657,213z
			 M780,473.323c0,4.24-3.438,7.677-7.678,7.677H420.678c-4.24,0-7.678-3.438-7.678-7.677V235.678c0-4.24,3.438-7.678,7.678-7.678
			h351.645c4.24,0,7.678,3.438,7.678,7.678V473.323z M599.438,220.764c0,1.18-0.955,2.137-2.134,2.137
			c-1.179,0-2.134-0.957-2.134-2.137c0-1.181,0.955-2.137,2.134-2.137C598.482,218.627,599.438,219.583,599.438,220.764z
			 M597.679,220.766c0,0.238-0.192,0.431-0.43,0.431s-0.429-0.193-0.429-0.431c0-0.237,0.191-0.43,0.429-0.43
			S597.679,220.528,597.679,220.766z"/>
		<path fill="#FFFFFF" d="M735,262.678c0-4.24-3.438-7.678-7.678-7.678H464.678c-4.24,0-7.678,3.438-7.678,7.678v182.645
			c0,4.24,3.438,7.677,7.678,7.677h262.645c4.24,0,7.678-3.438,7.678-7.677V262.678z M705,432.417c0,4.241-1.826,8.583-6.143,8.583
			H478.001c-4.317,0-9.001-4.341-9.001-8.583V275.352c0-4.24,4.685-7.352,9.001-7.352h220.856c4.316,0,6.143,3.112,6.143,7.352
			V432.417z M721.742,346.369c3.853,0,6.975,3.123,6.975,6.975s-3.122,6.975-6.975,6.975c-3.852,0-6.975-3.123-6.975-6.975
			S717.891,346.369,721.742,346.369z M466.431,353.563c0,1.18-0.955,2.137-2.134,2.137c-1.178,0-2.134-0.957-2.134-2.137
			c0-1.18,0.956-2.136,2.134-2.136C465.476,351.427,466.431,352.383,466.431,353.563z M464.719,353.567
			c0,0.253-0.206,0.458-0.459,0.458c-0.254,0-0.459-0.206-0.459-0.458c0-0.253,0.205-0.459,0.459-0.459
			C464.513,353.108,464.719,353.314,464.719,353.567z"/>
		<path fill="#FFFFFF" d="M863.645,504H650v1.375c0,2.924-2.146,5.625-6.387,5.625H541.876c-4.24,0-8.876-2.701-8.876-5.625V504
			H338.574c-4.241,0-8.574,2.557-8.574,6.238v15.719c0,3.682,4.333,8.043,8.574,8.043h525.07c4.24,0,6.355-4.361,6.355-8.043
			v-15.719C870,506.557,867.885,504,863.645,504z M815.027,517h-15.44c-0.533,0-0.966-0.468-0.966-1c0-0.533,0.433-1,0.966-1h15.44
			c0.533,0,0.965,0.467,0.965,1C815.992,516.532,815.561,517,815.027,517z"/>
		<path fill="#FFFFFF" d="M633,287.4c0-3.928-1.201-6.4-4.612-6.4h-69.419c-3.412,0-6.969,2.472-6.969,6.4v132.405
			c0,3.929,3.557,8.195,6.969,8.195h69.419c3.411,0,4.612-4.266,4.612-8.195V287.4z M627,395.572c0,3.34-0.895,7.428-4.305,7.428
			h-57.514c-3.41,0-7.182-4.088-7.182-7.428v-98.847c0-3.338,3.771-3.725,7.182-3.725h57.514c3.41,0,4.305,0.387,4.305,3.725
			V395.572z M600.665,414.4c0,3.458-2.433,6.259-5.434,6.259s-5.434-2.801-5.434-6.259c0-3.456,2.433-6.259,5.434-6.259
			S600.665,410.944,600.665,414.4z M603,287.188c0,0.518-0.56,0.812-1.25,0.812h-17.5c-0.69,0-1.25-0.295-1.25-0.812v-0.375
			c0-0.518,0.56-0.813,1.25-0.813h17.5c0.69,0,1.25,0.295,1.25,0.813V287.188z"/>
	</g>
	<text transform="matrix(1 0 0 1 592.5 750.1846)" fill="#383838" font-family="'EuphemiaUCAS-Bold'" font-size="76.9103">Web Design</text>
	<text transform="matrix(1 0 0 1 455.9727 957.0059)" fill="#FFFFFF" font-family="'Helvetica'" font-size="39.8213">@imNicoSuarez</text>
</g>
</svg>
