<?xml version="1.0" encoding="utf-8"?>
<!-- Generator: Adobe Illustrator 15.1.0, SVG Export Plug-In . SVG Version: 6.00 Build 0)  -->
<!DOCTYPE svg PUBLIC "-//W3C//DTD SVG 1.0//EN" "http://www.w3.org/TR/2001/REC-SVG-20010904/DTD/svg10.dtd">
<svg version="1.0" id="Layer_1" xmlns="http://www.w3.org/2000/svg" xmlns:xlink="http://www.w3.org/1999/xlink" x="0px" y="0px"
	 width="1200px" height="1000px" viewBox="0 0 1200 1000" enable-background="new 0 0 1200 1000" xml:space="preserve">
<g>
	<rect fill="#FFFFFF" width="1200" height="1000"/>
	<text transform="matrix(1 0 0 1 484.1855 260)"><tspan x="0" y="0" fill="#6EA7CE" font-family="'MyriadPro-Bold'" font-size="104.7051">1990</tspan><tspan x="232.442" y="0" fill="#6EA7CE" font-family="'MyriadPro-Bold'" font-size="64">s</tspan></text>
	<g>
		<g>
			<g>
				<g>
					<rect x="292" y="379" fill="#FFFFFF" width="427" height="322"/>
					<path fill="#6EA7CE" d="M732,374.962c0-4.95-4.012-8.962-8.961-8.962H292.961c-4.949,0-8.961,4.012-8.961,8.962v329.077
						c0,4.949,4.012,8.961,8.961,8.961h430.078c4.949,0,8.961-4.012,8.961-8.961V374.962z M714,686.039
						c0,4.949-4.012,8.961-8.961,8.961H311.961c-4.949,0-8.961-4.012-8.961-8.961V392.961c0-4.949,4.012-8.961,8.961-8.961h393.078
						c4.949,0,8.961,4.012,8.961,8.961V686.039z"/>
					<path fill="#6EA7CE" d="M590,749.261c0,7.411-4.174,12.739-9.467,12.739H436.67c-5.295,0-9.67-5.328-9.67-12.739v-18.145
						c0-7.413,4.375-13.116,9.67-13.116h143.863c5.293,0,9.467,5.703,9.467,13.116V749.261z"/>
				</g>
				<g>
					<rect x="745" y="372" fill="#FFFFFF" width="162" height="379"/>
					<path fill="#6EA7CE" d="M916,372.962c0-4.95-3.658-8.962-8.674-8.962h-159.84c-5.014,0-9.486,4.012-9.486,8.962v378.077
						c0,4.949,4.473,8.961,9.486,8.961h159.84c5.016,0,8.674-4.012,8.674-8.961V372.962z M907,739.515
						c0,4.646-3.801,8.485-8.27,8.485H754.244c-4.467,0-8.244-3.84-8.244-8.485V384.822c0-4.647,3.777-8.822,8.244-8.822H898.73
						c4.469,0,8.27,4.175,8.27,8.822V739.515z"/>
					<rect x="745" y="417" fill="#6EA7CE" width="161" height="7"/>
					<rect x="745" y="470" fill="#6EA7CE" width="161" height="7"/>
					<rect x="746" y="522" fill="#6EA7CE" width="161" height="8"/>
					<circle fill="#6EA7CE" cx="877.784" cy="572.982" r="11.108"/>
					<rect x="764" y="568" fill="#6EA7CE" width="79" height="10"/>
				</g>
			</g>
		</g>
	</g>
</g>
</svg>
