<?xml version="1.0" encoding="utf-8"?>
<!-- Generator: Adobe Illustrator 15.1.0, SVG Export Plug-In . SVG Version: 6.00 Build 0)  -->
<!DOCTYPE svg PUBLIC "-//W3C//DTD SVG 1.0//EN" "http://www.w3.org/TR/2001/REC-SVG-20010904/DTD/svg10.dtd">
<svg version="1.0" id="Layer_1" xmlns="http://www.w3.org/2000/svg" xmlns:xlink="http://www.w3.org/1999/xlink" x="0px" y="0px"
	 width="650px" height="1160px" viewBox="0 0 650 1160" enable-background="new 0 0 650 1160" xml:space="preserve">
<g>
	<rect x="-25" y="-7" fill="#FFFFFF" width="699" height="1173"/>
	<text transform="matrix(1 0 0 1 208.9141 259.5)" fill="#6EA7CE" font-family="'MyriadPro-Bold'" font-size="104.7051">1990</text>
	<g>
		<g>
			<g>
				<g>
					<rect x="109" y="382" fill="#FFFFFF" width="427" height="322"/>
					<path fill="#6EA7CE" d="M549,377.961c0-4.949-4.012-8.961-8.961-8.961H109.961c-4.949,0-8.961,4.012-8.961,8.961v329.078
						c0,4.949,4.012,8.961,8.961,8.961h430.078c4.949,0,8.961-4.012,8.961-8.961V377.961z M531,689.039
						c0,4.949-4.012,8.961-8.961,8.961H128.961c-4.949,0-8.961-4.012-8.961-8.961V395.961c0-4.949,4.012-8.961,8.961-8.961h393.078
						c4.949,0,8.961,4.012,8.961,8.961V689.039z"/>
					<path fill="#6EA7CE" d="M407,752.261c0,7.411-4.538,12.739-9.831,12.739H253.306c-5.295,0-9.306-5.328-9.306-12.739v-18.145
						c0-7.413,4.011-13.116,9.306-13.116h143.863c5.293,0,9.831,5.703,9.831,13.116V752.261z"/>
				</g>
				<g>
					<rect x="132" y="780" fill="#FFFFFF" width="379" height="117"/>
					<path fill="#6EA7CE" d="M132.597,773c-4.949,0-8.597,2.969-8.597,6.595v115.548c0,3.624,3.647,6.857,8.597,6.857h378.078
						c4.948,0,9.325-3.233,9.325-6.857V779.595c0-3.626-4.377-6.595-9.325-6.595H132.597z M499.15,780
						c4.646,0,8.85,2.578,8.85,5.809v104.448c0,3.229-4.204,5.743-8.85,5.743H144.457c-4.647,0-8.457-2.514-8.457-5.743V785.809
						c0-3.23,3.81-5.809,8.457-5.809H499.15z"/>
					<rect x="180" y="779" fill="#6EA7CE" width="7" height="119"/>
					<rect x="230" y="778" fill="#6EA7CE" width="7" height="119"/>
					<rect x="282" y="780" fill="#6EA7CE" width="8" height="116"/>
					<ellipse fill="#6EA7CE" cx="476.572" cy="808.95" rx="8.063" ry="8.03"/>
					
						<rect x="304.136" y="803.563" transform="matrix(1 0.0038 -0.0038 1 3.0475 -1.3101)" fill="#6EA7CE" width="90.5" height="10"/>
				</g>
			</g>
		</g>
	</g>
</g>
</svg>
