<?xml version="1.0" encoding="utf-8"?>
<!-- Generator: Adobe Illustrator 15.1.0, SVG Export Plug-In . SVG Version: 6.00 Build 0)  -->
<!DOCTYPE svg PUBLIC "-//W3C//DTD SVG 1.0//EN" "http://www.w3.org/TR/2001/REC-SVG-20010904/DTD/svg10.dtd">
<svg version="1.0" id="Layer_1" xmlns="http://www.w3.org/2000/svg" xmlns:xlink="http://www.w3.org/1999/xlink" x="0px" y="0px"
	 width="1200px" height="1000px" viewBox="0 0 1200 1000" enable-background="new 0 0 1200 1000" xml:space="preserve">
<g>
	<rect fill="#FFFFFF" width="1200" height="1000"/>
	<g>
		<g>
			<path fill="#ED8C8C" d="M819.42,391c0,0-332.131,0-442.842,0c-4.896,0-11.578,2.243-11.578,7.139V708.75
				c0,4.898,6.683,10.25,11.578,10.25H819.42c4.896,0,6.58-5.352,6.58-10.25V398.139C826,393.243,824.315,391,819.42,391z
				 M808,691.135c0,4.896-3.969,8.865-8.865,8.865h-406.27c-4.896,0-8.865-3.969-8.865-8.865v-274.27
				c0-4.896,3.969-8.865,8.865-8.865h406.27c4.896,0,8.865,3.969,8.865,8.865V691.135z M599.783,398.81
				c0,1.363-1.103,2.467-2.463,2.467c-1.361,0-2.465-1.104-2.465-2.467c0-1.362,1.104-2.467,2.465-2.467
				C598.681,396.343,599.783,397.447,599.783,398.81z M597.752,398.812c0,0.274-0.222,0.497-0.496,0.497s-0.496-0.222-0.496-0.497
				s0.222-0.495,0.496-0.495S597.752,398.537,597.752,398.812z"/>
			<path fill="#ED8C8C" d="M904.848,727H657v0.436c0,3.375-1.313,7.564-6.209,7.564h-117.47c-4.896,0-11.321-4.189-11.321-7.564V727
				H298.579c-4.896,0-10.579,1.799-10.579,6.05v18.149c0,4.252,5.684,10.801,10.579,10.801h606.269
				c4.896,0,7.152-6.549,7.152-10.801V733.05C912,728.799,909.744,727,904.848,727z M848.713,742h-17.828
				c-0.615,0-1.115-0.385-1.115-1s0.5-1,1.115-1h17.828c0.615,0,1.113,0.385,1.113,1S849.328,742,848.713,742z"/>
		</g>
	</g>
	<text transform="matrix(1 0 0 1 469.9922 258)"><tspan x="0" y="0" fill="#ED8C8C" font-family="'MyriadPro-Bold'" font-size="104.7051">2000</tspan><tspan x="232.442" y="0" fill="#ED8C8C" font-family="'MyriadPro-Bold'" font-size="64">s</tspan></text>
</g>
</svg>
