<?xml version="1.0" encoding="utf-8"?>
<!-- Generator: Adobe Illustrator 15.1.0, SVG Export Plug-In . SVG Version: 6.00 Build 0)  -->
<!DOCTYPE svg PUBLIC "-//W3C//DTD SVG 1.0//EN" "http://www.w3.org/TR/2001/REC-SVG-20010904/DTD/svg10.dtd">
<svg version="1.0" id="Layer_1" xmlns="http://www.w3.org/2000/svg" xmlns:xlink="http://www.w3.org/1999/xlink" x="0px" y="0px"
	 width="650px" height="1160px" viewBox="0 0 650 1160" enable-background="new 0 0 650 1160" xml:space="preserve">
<g>
	<rect x="-25" y="-7" fill="#FFFFFF" width="699" height="1173"/>
	<text transform="matrix(1 0 0 1 194.9277 240.5)" fill="#86CC7A" font-family="'MyriadPro-Bold'" font-size="104.7051">2007</text>
	<g>
		<g>
			<g>
				<g>
					<path fill="#86CC7A" d="M529.187,406c0,0-309.781,0-413.042,0c-4.565,0-10.145,2.307-10.145,6.874v289.71
						c0,4.567,5.579,9.416,10.145,9.416h413.042c4.565,0,6.813-4.849,6.813-9.416v-289.71C536,408.307,533.752,406,529.187,406z
						 M519,685.731c0,4.566-3.701,8.269-8.268,8.269H132.268c-4.566,0-8.268-3.702-8.268-8.269V430.269
						c0-4.566,3.701-8.269,8.268-8.269h378.465c4.566,0,8.268,3.702,8.268,8.269V685.731z M324.329,413.5
						c0,1.271-1.027,2.302-2.297,2.302s-2.299-1.031-2.299-2.302s1.029-2.302,2.299-2.302S324.329,412.229,324.329,413.5z
						 M322.435,413.503c0,0.255-0.206,0.462-0.462,0.462c-0.257,0-0.463-0.207-0.463-0.462c0-0.257,0.206-0.463,0.463-0.463
						C322.229,413.04,322.435,413.246,322.435,413.503z"/>
					<path fill="#86CC7A" d="M608.865,719H378v1.012c0,3.147-1.529,6.988-6.095,6.988H262.34c-4.565,0-10.34-3.841-10.34-6.988V719
						H43.395c-4.565,0-9.395,2.283-9.395,6.248v16.928c0,3.965,4.829,9.824,9.395,9.824h565.471c4.567,0,7.135-5.859,7.135-9.824
						v-16.928C616,721.283,613.433,719,608.865,719z M556.508,733H539.88c-0.574,0-1.041-0.426-1.041-1s0.467-1,1.041-1h16.628
						c0.574,0,1.038,0.426,1.038,1S557.082,733,556.508,733z"/>
				</g>
			</g>
		</g>
		<path fill="#86CC7A" d="M382,462.1c0-5.586-0.997-9.1-5.847-9.1h-98.698c-4.851,0-10.455,3.514-10.455,9.1v188.248
			c0,5.586,5.604,11.652,10.455,11.652h98.698c4.85,0,5.847-6.066,5.847-11.652V462.1z M373,615.896
			c0,4.748-0.092,10.104-4.939,10.104h-81.771C281.44,626,275,620.644,275,615.896V475.356c0-4.745,6.44-5.356,11.289-5.356h81.771
			c4.848,0,4.939,0.611,4.939,5.356V615.896z M336.738,642.664c0,4.916-3.461,8.898-7.727,8.898c-4.268,0-7.726-3.982-7.726-8.898
			c0-4.913,3.458-8.898,7.726-8.898C333.277,633.766,336.738,637.751,336.738,642.664z M339,461.797
			c0,0.736,0.262,1.203-0.719,1.203h-24.882c-0.981,0-2.399-0.467-2.399-1.203v-0.533c0-0.735,1.418-1.264,2.399-1.264h24.882
			c0.98,0,0.719,0.528,0.719,1.264V461.797z"/>
	</g>
</g>
</svg>
