<?xml version="1.0" encoding="utf-8"?>
<!-- Generator: Adobe Illustrator 15.1.0, SVG Export Plug-In . SVG Version: 6.00 Build 0)  -->
<!DOCTYPE svg PUBLIC "-//W3C//DTD SVG 1.0//EN" "http://www.w3.org/TR/2001/REC-SVG-20010904/DTD/svg10.dtd">
<svg version="1.0" id="Layer_1" xmlns="http://www.w3.org/2000/svg" xmlns:xlink="http://www.w3.org/1999/xlink" x="0px" y="0px"
	 width="650px" height="1160px" viewBox="0 0 650 1160" enable-background="new 0 0 650 1160" xml:space="preserve">
<g>
	<rect x="-25" y="-7" fill="#FFFFFF" width="699" height="1173"/>
	<g>
		<path fill="#F2E397" d="M514.64,419c0,0-287.647,0-383.53,0c-4.24,0-10.109,1.942-10.109,6.183v269.012
			c0,4.24,5.869,8.806,10.109,8.806h383.53c4.24,0,5.36-4.565,5.36-8.806V425.183C520,420.942,518.88,419,514.64,419z M504,679.322
			c0,4.24-3.438,7.678-7.678,7.678H144.678c-4.24,0-7.678-3.438-7.678-7.678V441.678c0-4.24,3.438-7.678,7.678-7.678h351.645
			c4.24,0,7.678,3.438,7.678,7.678V679.322z M324.42,425.764c0,1.18-0.955,2.137-2.134,2.137s-2.134-0.957-2.134-2.137
			s0.955-2.137,2.134-2.137S324.42,424.584,324.42,425.764z M322.661,425.766c0,0.237-0.192,0.43-0.43,0.43
			c-0.238,0-0.43-0.192-0.43-0.43c0-0.238,0.191-0.43,0.43-0.43C322.469,425.336,322.661,425.527,322.661,425.766z"/>
		<path fill="#F2E397" d="M459,468.678c0-4.24-3.438-7.678-7.678-7.678H188.678c-4.24,0-7.678,3.438-7.678,7.678v182.645
			c0,4.24,3.438,7.678,7.678,7.678h262.645c4.24,0,7.678-3.438,7.678-7.678V468.678z M429,637.418c0,4.24-0.844,9.582-5.16,9.582
			H202.984c-4.317,0-9.984-5.342-9.984-9.582V480.352c0-4.24,5.667-6.352,9.984-6.352H423.84c4.316,0,5.16,2.111,5.16,6.352V637.418
			z M446.725,551.369c3.853,0,6.975,3.123,6.975,6.975c0,3.853-3.122,6.976-6.975,6.976c-3.852,0-6.975-3.123-6.975-6.976
			C439.75,554.492,442.873,551.369,446.725,551.369z M191.413,558.563c0,1.18-0.955,2.136-2.134,2.136
			c-1.178,0-2.134-0.956-2.134-2.136c0-1.181,0.956-2.137,2.134-2.137C190.458,556.427,191.413,557.383,191.413,558.563z
			 M189.701,558.566c0,0.254-0.206,0.459-0.459,0.459c-0.254,0-0.459-0.205-0.459-0.459c0-0.253,0.205-0.459,0.459-0.459
			C189.495,558.107,189.701,558.313,189.701,558.566z"/>
		<path fill="#F2E397" d="M588.627,710H374v0.376c0,2.923-1.164,6.624-5.404,6.624H266.859c-4.24,0-9.859-3.701-9.859-6.624V710
			H63.557c-4.24,0-9.557,1.557-9.557,5.238v15.719c0,3.682,5.316,9.043,9.557,9.043h525.07c4.24,0,5.373-5.361,5.373-9.043v-15.719
			C594,711.557,592.867,710,588.627,710z M540.01,723h-15.44c-0.533,0-0.966-0.468-0.966-1c0-0.533,0.433-1,0.966-1h15.44
			c0.533,0,0.965,0.467,0.965,1C540.975,722.532,540.543,723,540.01,723z"/>
		<path fill="#F2E397" d="M357,492.4c0-3.929-0.219-5.4-3.63-5.4h-69.419c-3.412,0-7.951,1.472-7.951,5.4v132.404
			c0,3.929,4.539,9.195,7.951,9.195h69.419c3.411,0,3.63-5.267,3.63-9.195V492.4z M351,600.572c0,3.34,0.088,8.428-3.322,8.428
			h-57.514c-3.41,0-8.164-5.088-8.164-8.428v-98.848c0-3.338,4.754-2.725,8.164-2.725h57.514c3.41,0,3.322-0.613,3.322,2.725
			V600.572z M325.647,619.4c0,3.457-2.434,6.259-5.435,6.259s-5.434-2.802-5.434-6.259c0-3.456,2.433-6.259,5.434-6.259
			S325.647,615.944,325.647,619.4z M327,492.188c0,0.518,0.423,1.812-0.268,1.812h-17.5c-0.69,0-2.232-1.295-2.232-1.812v-0.375
			c0-0.518,1.542,0.188,2.232,0.188h17.5c0.69,0,0.268-0.705,0.268-0.188V492.188z"/>
	</g>
	<text transform="matrix(1 0 0 1 208.5195 240.5)" fill="#F2E397" font-family="'MyriadPro-Bold'" font-size="104.7051">2010</text>
</g>
</svg>
