<?xml version="1.0" encoding="utf-8"?>
<!-- Generator: Adobe Illustrator 15.1.0, SVG Export Plug-In . SVG Version: 6.00 Build 0)  -->
<!DOCTYPE svg PUBLIC "-//W3C//DTD SVG 1.0//EN" "http://www.w3.org/TR/2001/REC-SVG-20010904/DTD/svg10.dtd">
<svg version="1.0" id="Layer_1" xmlns="http://www.w3.org/2000/svg" xmlns:xlink="http://www.w3.org/1999/xlink" x="0px" y="0px"
	 width="1200px" height="1000px" viewBox="0 0 1200 1000" enable-background="new 0 0 1200 1000" xml:space="preserve">
<g>
	<rect fill="#FFFFFF" width="1200" height="1000"/>
	<text transform="matrix(1 0 0 1 531.4277 242)" fill="#F2E397" font-family="'MyriadPro-Bold'" font-size="104.7051">2010</text>
	<g>
		<g>
			<g>
				<path fill="#F2E397" d="M457.863,440c0,0-243.376,0-324.502,0c-3.586,0-7.361,1.812-7.361,5.4v227.607
					c0,3.588,3.775,6.992,7.361,6.992h324.502c3.587,0,5.137-3.404,5.137-6.992V445.4C463,441.812,461.45,440,457.863,440z
					 M450,660.504c0,3.588-2.908,6.496-6.495,6.496h-297.01c-3.587,0-6.495-2.908-6.495-6.496V459.496
					c0-3.588,2.908-6.496,6.495-6.496h297.01c3.587,0,6.495,2.908,6.495,6.496V660.504z M296.92,445.892
					c0,0.999-0.808,1.809-1.805,1.809c-0.998,0-1.807-0.811-1.807-1.809s0.809-1.809,1.807-1.809
					C296.112,444.083,296.92,444.894,296.92,445.892z M295.432,445.895c0,0.2-0.162,0.363-0.363,0.363s-0.363-0.163-0.363-0.363
					c0-0.202,0.162-0.364,0.363-0.364S295.432,445.693,295.432,445.895z"/>
				<path fill="#F2E397" d="M520.462,686H339v0.699c0,2.473-1.115,5.301-4.703,5.301h-86.078c-3.587,0-8.219-2.828-8.219-5.301V686
					H76.207C72.62,686,69,687.699,69,690.814v13.299c0,3.114,3.62,7.887,7.207,7.887h444.255c3.589,0,5.538-4.772,5.538-7.887
					v-13.299C526,687.699,524.051,686,520.462,686z M479.328,697h-13.063c-0.451,0-0.817-0.549-0.817-1s0.366-1,0.817-1h13.063
					c0.451,0,0.815,0.549,0.815,1S479.779,697,479.328,697z"/>
			</g>
		</g>
		<path fill="#F2E397" d="M756,485.11c0-4.389-0.418-7.11-4.229-7.11H674.23c-3.811,0-8.23,2.721-8.23,7.11v147.894
			c0,4.389,4.42,9.996,8.23,9.996h77.541c3.811,0,4.229-5.607,4.229-9.996V485.11z M749,605.938c0,3.73,0.223,8.062-3.586,8.062
			h-64.243c-3.81,0-9.171-4.332-9.171-8.062V495.524c0-3.728,5.361-3.524,9.171-3.524h64.243c3.809,0,3.586-0.204,3.586,3.524
			V605.938z M720.806,626.969c0,3.861-2.72,6.99-6.07,6.99c-3.353,0-6.069-3.129-6.069-6.99s2.717-6.992,6.069-6.992
			C718.086,619.977,720.806,623.107,720.806,626.969z M723,484.872c0,0.579-0.212,1.128-0.982,1.128H702.47
			c-0.771,0-1.47-0.549-1.47-1.128v-0.418c0-0.579,0.699-0.453,1.47-0.453h19.548c0.771,0,0.982-0.125,0.982,0.453V484.872z"/>
		<text transform="matrix(1 0 0 1 552.7793 571.2012)" fill="#F2E397" font-family="'MyriadPro-Bold'" font-size="82.2604">+</text>
		<text transform="matrix(1 0 0 1 831.7793 571.2012)" fill="#F2E397" font-family="'MyriadPro-Bold'" font-size="82.2604">+</text>
		<path fill="#F2E397" d="M1122,433.492c0-4.138-3.354-7.492-7.492-7.492H936.492c-4.138,0-7.492,3.354-7.492,7.492v256.016
			c0,4.139,3.354,7.492,7.492,7.492h178.016c4.138,0,7.492-3.354,7.492-7.492V433.492z M949.445,668
			c-4.139,0-9.445-1.39-9.445-5.602V446.883c0-4.213,5.307-9.883,9.445-9.883h153.269c4.139,0,7.286,5.67,7.286,9.883v215.516
			c0,4.212-3.147,5.602-7.286,5.602H949.445z M1033.414,684.73c0,3.759-3.048,6.806-6.808,6.806c-3.759,0-6.807-3.047-6.807-6.806
			c0-3.76,3.048-6.807,6.807-6.807C1030.366,677.924,1033.414,680.971,1033.414,684.73z M1026.392,435.591
			c-1.15,0-2.082-0.932-2.082-2.082c0-1.149,0.932-2.082,2.082-2.082c1.153,0,2.086,0.933,2.086,2.082
			C1028.478,434.659,1027.545,435.591,1026.392,435.591z"/>
	</g>
</g>
</svg>
