<?xml version="1.0" encoding="utf-8"?>
<!-- Generator: Adobe Illustrator 15.1.0, SVG Export Plug-In . SVG Version: 6.00 Build 0)  -->
<!DOCTYPE svg PUBLIC "-//W3C//DTD SVG 1.0//EN" "http://www.w3.org/TR/2001/REC-SVG-20010904/DTD/svg10.dtd">
<svg version="1.0" id="Layer_1" xmlns="http://www.w3.org/2000/svg" xmlns:xlink="http://www.w3.org/1999/xlink" x="0px" y="0px"
	 width="1200px" height="1000px" viewBox="0 0 1200 1000" enable-background="new 0 0 1200 1000" xml:space="preserve">
<g>
	<rect fill="#FFFFFF" width="1200" height="1000"/>
	<text transform="matrix(1 0 0 1 479.5977 256)" fill="#F2E397" font-family="'MyriadPro-Bold'" font-size="104.7051">2014</text>
	<g>
		<g>
			<g>
				<g>
					<path fill="#6EA7CE" d="M491.393,311c0,0-265.686,0-354.248,0c-3.915,0-8.145,1.978-8.145,5.896v248.472
						c0,3.916,4.23,7.633,8.145,7.633h354.248c3.916,0,5.607-3.717,5.607-7.633V316.896C497,312.978,495.309,311,491.393,311z
						 M482,551.908c0,3.917-3.175,7.092-7.091,7.092H151.091c-3.916,0-7.091-3.175-7.091-7.092V332.092
						c0-3.917,3.175-7.092,7.091-7.092h323.818c3.916,0,7.091,3.175,7.091,7.092V551.908z M315.696,317.432
						c0,1.09-0.881,1.975-1.97,1.975c-1.089,0-1.972-0.884-1.972-1.975c0-1.089,0.883-1.974,1.972-1.974
						C314.814,315.458,315.696,316.343,315.696,317.432z M314.071,317.435c0,0.219-0.177,0.397-0.396,0.397
						c-0.22,0-0.397-0.178-0.397-0.397c0-0.22,0.177-0.396,0.397-0.396C313.894,317.039,314.071,317.214,314.071,317.435z"/>
					<path fill="#6EA7CE" d="M537.462,577H356v0.699c0,2.473-1.115,5.301-4.703,5.301h-86.078c-3.587,0-8.219-2.828-8.219-5.301V577
						H93.207C89.62,577,86,578.699,86,581.814v13.299c0,3.114,3.62,7.887,7.207,7.887h444.255c3.589,0,5.538-4.772,5.538-7.887
						v-13.299C543,578.699,541.051,577,537.462,577z M496.328,588h-13.063c-0.451,0-0.817-0.549-0.817-1s0.366-1,0.817-1h13.063
						c0.451,0,0.815,0.549,0.815,1S496.779,588,496.328,588z"/>
				</g>
			</g>
			<path fill="#ED8C8C" d="M596,404.11c0-4.389-0.418-7.11-4.229-7.11H514.23c-3.811,0-8.23,2.721-8.23,7.11v147.894
				c0,4.389,4.42,9.996,8.23,9.996h77.541c3.811,0,4.229-5.607,4.229-9.996V404.11z M589,524.938c0,3.73,0.223,8.062-3.586,8.062
				h-64.243c-3.81,0-9.171-4.332-9.171-8.062V414.524c0-3.728,5.361-3.524,9.171-3.524h64.243c3.809,0,3.586-0.204,3.586,3.524
				V524.938z M560.806,545.969c0,3.861-2.72,6.99-6.07,6.99c-3.353,0-6.069-3.129-6.069-6.99s2.717-6.992,6.069-6.992
				C558.086,538.977,560.806,542.107,560.806,545.969z M563,403.872c0,0.579-0.212,1.128-0.982,1.128H542.47
				c-0.771,0-1.47-0.549-1.47-1.128v-0.419c0-0.579,0.699-0.453,1.47-0.453h19.548c0.771,0,0.982-0.125,0.982,0.453V403.872z"/>
			<path fill="#86CC7A" d="M798,338.492c0-4.138-3.354-7.492-7.492-7.492H612.492c-4.138,0-7.492,3.354-7.492,7.492v256.017
				c0,4.138,3.354,7.491,7.492,7.491h178.016c4.138,0,7.492-3.354,7.492-7.491V338.492z M624.953,573
				c-4.139,0-8.953-1.39-8.953-5.602V351.883c0-4.213,4.814-9.883,8.953-9.883h153.269c4.139,0,7.778,5.67,7.778,9.883v215.516
				c0,4.212-3.64,5.602-7.778,5.602H624.953z M708.922,589.73c0,3.759-3.048,6.806-6.808,6.806c-3.759,0-6.807-3.047-6.807-6.806
				c0-3.76,3.048-6.807,6.807-6.807C705.874,582.924,708.922,585.971,708.922,589.73z M701.899,340.59
				c-1.15,0-2.082-0.931-2.082-2.082c0-1.149,0.932-2.082,2.082-2.082c1.153,0,2.086,0.932,2.086,2.082
				C703.985,339.659,703.053,340.59,701.899,340.59z"/>
		</g>
		<g>
			<path fill="#6EA7CE" d="M993,625.56c0-3.835-3.607-6.56-8.391-6.56H569.042c-4.782,0-9.042,2.725-9.042,6.56v254.987
				c0,3.836,4.26,7.453,9.042,7.453h415.567c4.783,0,8.391-3.617,8.391-7.453V625.56z M976,866.6c0,3.836-4,7.4-8.782,7.4H587.4
				c-4.781,0-9.4-3.564-9.4-7.4V639.507c0-3.835,4.619-6.507,9.4-6.507h379.817c4.782,0,8.782,2.672,8.782,6.507V866.6z"/>
			<path fill="#6EA7CE" d="M831,919.068c0,3.753-3.125,6.932-6.637,6.932h-95.448c-3.513,0-6.915-3.179-6.915-6.932v-9.188
				c0-3.753,3.402-6.881,6.915-6.881h95.448c3.512,0,6.637,3.128,6.637,6.881V919.068z"/>
			<polygon fill="#6EA7CE" points="828.322,906 775.866,880.474 723.411,906 			"/>
		</g>
		<path fill="#6EA7CE" d="M531.1,710.544l-9.413-52.234l-33.438-0.095L480.028,711h-1.606c-6.591,0-12.422,4.848-12.422,11.438
			v48.133c0,6.443,5.354,11.68,11.741,11.912l9.55,49.962l33.561,0.393L528.503,783h2.052c6.591,0,11.445-5.839,11.445-12.43
			v-48.133C542,716.113,537.32,710.951,531.1,710.544z M532,762.066c0,6.591-5.343,11.934-11.934,11.934h-34.133
			c-6.591,0-11.934-5.343-11.934-11.934v-31.133c0-6.591,5.343-11.934,11.934-11.934h34.133c6.591,0,11.934,5.343,11.934,11.934
			V762.066z"/>
		<path fill="#ED8C8C" d="M880,501.608c0-3.65-2.959-6.608-6.608-6.608h-53.783c-3.649,0-6.608,2.958-6.608,6.608v101.784
			c0,3.649,2.959,6.607,6.608,6.607h53.783c3.649,0,6.608-2.958,6.608-6.607V501.608z M845.05,597.705
			c-8.257,0-14.95-6.137-14.95-13.705s6.693-13.703,14.95-13.703c8.256,0,14.95,6.135,14.95,13.703S853.306,597.705,845.05,597.705z
			 M873,553.392c0,3.649-2.959,6.608-6.608,6.608h-39.783c-3.649,0-6.608-2.959-6.608-6.608v-45.783
			c0-3.649,2.959-6.608,6.608-6.608h39.783c3.649,0,6.608,2.959,6.608,6.608V553.392z"/>
		<g>
			<path fill="none" stroke="#86CC7A" stroke-miterlimit="10" d="M338.5,657.476c0,4.854-4.621,10.024-11.014,10.024h-66.088
				c-6.393,0-12.898-5.171-12.898-10.024v-14.09c0-4.854,6.506-7.886,12.898-7.886h66.088c6.393,0,11.014,3.032,11.014,7.886
				V657.476z"/>
			<path fill="#86CC7A" d="M462.841,631h-0.72h-9.355H222.117h-0.72H220v0.109c-2,0.499-4,2.676-4,5.289v25.186
				c0,2.613,2,4.789,4,5.289V667h1.397h0.72h40.557c5.224,0,9.326-4.229,9.326-9.423v-14.292c0-3.363-1.646-6.285-4.313-8.285
				h81.183l3.793,8.286c-0.074,0.958-0.043,2.107,0.146,3.269c0.512,3.127-3.578,7.64-2.19,8.021
				c2.776,0.762,6.462-3.128,7.776-7.919c1.316-4.791-0.271-7.156-3.047-7.917c-0.748-0.206-1.656,0.528-2.213,2.152L350.457,635
				h20.967l-2.68,5.896c-0.557-1.623-1.465-2.432-2.213-2.227c-2.774,0.762-4.362,3.175-3.047,7.966s5.002,8.722,7.777,7.959
				c1.388-0.38-2.702-4.845-2.191-7.972c0.189-1.158,0.222-2.384,0.146-3.342l3.794-8.281h79.755h9.355h0.72
				c1.192,0,2.159-0.809,2.159-2C465,631.808,464.033,631,462.841,631z M236.51,658.348c-4.571,0-8.276-3.706-8.276-8.277
				c0-4.57,3.706-8.275,8.276-8.275s8.276,3.705,8.276,8.275C244.786,654.642,241.081,658.348,236.51,658.348z"/>
		</g>
		<path fill="#ED8C8C" d="M404.233,691H216.767c-6.499,0-11.767,4.453-11.767,9.945v90.11c0,5.493,5.268,9.944,11.767,9.944h187.467
			c6.499,0,11.767-4.451,11.767-9.944v-90.11C416,695.453,410.732,691,404.233,691z M224.241,758.43
			c-6.348,0-11.494-4.926-11.494-11c0-6.075,5.146-11,11.494-11s11.494,4.925,11.494,11
			C235.735,753.504,230.589,758.43,224.241,758.43z M379,779.389c0,5.492-4.158,9.611-9.325,9.611H251.989
			c-5.166,0-8.989-4.119-8.989-9.611v-68.444c0-5.492,3.823-10.944,8.989-10.944h117.686c5.167,0,9.325,5.452,9.325,10.944V779.389z
			 M398.348,757c-5.667,0-10.262-4.397-10.262-9.82c0-5.426,4.595-9.822,10.262-9.822c5.668,0,10.264,4.396,10.264,9.822
			C408.611,752.603,404.016,757,398.348,757z"/>
		<path fill="#86CC7A" d="M1076.085,746h-56.32c-3.86,0-6.765,3.894-6.765,8.184v122.463c0,4.291,2.904,7.354,6.765,7.354h56.32
			c3.86,0,6.915-3.062,6.915-7.354V754.184C1083,749.894,1079.945,746,1076.085,746z M1040,753.437c0-0.376,0.351-0.437,0.853-0.437
			h12.725c0.502,0,0.423,0.061,0.423,0.437v0.272c0,0.377,0.079,0.291-0.423,0.291h-12.725c-0.502,0-0.853,0.086-0.853-0.291
			V753.437z M1047.491,880.51c-3.596,0-6.51-2.914-6.51-6.51s2.914-6.51,6.51-6.51c3.594,0,6.509,2.914,6.509,6.51
			S1051.085,880.51,1047.491,880.51z M1080,863h-65V760h65V863z"/>
		<path fill="#6EA7CE" d="M1084,483.086c0-2.809-2.277-5.086-5.086-5.086H905.086c-2.809,0-5.086,2.277-5.086,5.086v120.828
			c0,2.809,2.277,5.086,5.086,5.086h173.828c2.809,0,5.086-2.277,5.086-5.086V483.086z M920,491.542
			c0-2.808,0.627-6.542,3.486-6.542h146.282c2.859,0,6.231,3.734,6.231,6.542v104.033c0,2.81-3.372,5.425-6.231,5.425H923.486
			c-2.859,0-3.486-2.615-3.486-5.425V491.542z M908.328,548.537c-2.551,0-4.619-2.068-4.619-4.621c0-2.551,2.068-4.619,4.619-4.619
			c2.552,0,4.62,2.068,4.62,4.619C912.948,546.469,910.88,548.537,908.328,548.537z M1077.434,543.771
			c0-0.78,0.632-1.412,1.412-1.412c0.781,0,1.414,0.632,1.414,1.412c0,0.783-0.633,1.416-1.414,1.416
			C1078.065,545.187,1077.434,544.554,1077.434,543.771z"/>
	</g>
</g>
</svg>
