<?xml version="1.0" encoding="utf-8"?>
<!-- Generator: Adobe Illustrator 15.1.0, SVG Export Plug-In . SVG Version: 6.00 Build 0)  -->
<!DOCTYPE svg PUBLIC "-//W3C//DTD SVG 1.0//EN" "http://www.w3.org/TR/2001/REC-SVG-20010904/DTD/svg10.dtd">
<svg version="1.0" id="Layer_1" xmlns="http://www.w3.org/2000/svg" xmlns:xlink="http://www.w3.org/1999/xlink" x="0px" y="0px"
	 width="650px" height="1160px" viewBox="0 0 650 1160" enable-background="new 0 0 650 1160" xml:space="preserve">
<g>
	<rect x="-25" y="-7" fill="#FFFFFF" width="699" height="1173"/>
	<text transform="matrix(1 0 0 1 209.0977 241.5)" fill="#F2E397" font-family="'MyriadPro-Bold'" font-size="104.7051">2014</text>
	<g>
		<g>
			<path fill="#6EA7CE" d="M516.027,387c0,0-287.648,0-383.531,0c-4.24,0-10.496,1.942-10.496,6.183v269.012
				c0,4.24,6.256,8.806,10.496,8.806h383.531c4.24,0,4.973-4.565,4.973-8.806V393.183C521,388.942,520.268,387,516.027,387z
				 M505,647.322c0,4.24-3.438,7.678-7.678,7.678H145.678c-4.24,0-7.678-3.438-7.678-7.678V409.678c0-4.24,3.438-7.678,7.678-7.678
				h351.645c4.24,0,7.678,3.438,7.678,7.678V647.322z M325.807,393.764c0,1.18-0.955,2.137-2.133,2.137
				c-1.18,0-2.135-0.957-2.135-2.137s0.955-2.137,2.135-2.137C324.852,391.627,325.807,392.584,325.807,393.764z M324.049,393.766
				c0,0.237-0.193,0.43-0.43,0.43c-0.238,0-0.43-0.192-0.43-0.43c0-0.238,0.191-0.43,0.43-0.43
				C323.855,393.336,324.049,393.527,324.049,393.766z"/>
			<path fill="#86CC7A" d="M459.887,436.678c0-4.24-3.438-7.678-7.678-7.678H189.564c-4.24,0-7.678,3.438-7.678,7.678v182.645
				c0,4.24,3.438,7.678,7.678,7.678h262.645c4.24,0,7.678-3.438,7.678-7.678V436.678z M429.887,605.418
				c0,4.24-0.344,9.582-4.66,9.582H204.371c-4.316,0-10.484-5.342-10.484-9.582V448.352c0-4.24,6.168-6.352,10.484-6.352h220.855
				c4.316,0,4.66,2.111,4.66,6.352V605.418z M448.111,519.369c3.854,0,6.975,3.123,6.975,6.975c0,3.853-3.121,6.976-6.975,6.976
				c-3.852,0-6.975-3.123-6.975-6.976C441.137,522.492,444.26,519.369,448.111,519.369z M192.801,526.563
				c0,1.18-0.955,2.136-2.135,2.136c-1.178,0-2.133-0.956-2.133-2.136c0-1.181,0.955-2.137,2.133-2.137
				C191.846,524.427,192.801,525.383,192.801,526.563z M191.088,526.566c0,0.254-0.205,0.459-0.459,0.459s-0.459-0.205-0.459-0.459
				c0-0.253,0.205-0.459,0.459-0.459S191.088,526.313,191.088,526.566z"/>
			<path fill="#6EA7CE" d="M590.014,678H375v0.376c0,2.923-0.777,6.624-5.018,6.624H268.246c-4.24,0-10.246-3.701-10.246-6.624V678
				H64.943c-4.24,0-9.943,1.557-9.943,5.238v15.719c0,3.682,5.703,9.043,9.943,9.043h525.07c4.24,0,4.986-5.361,4.986-9.043v-15.719
				C595,679.557,594.254,678,590.014,678z M541.396,691h-15.439c-0.533,0-0.967-0.468-0.967-1c0-0.533,0.434-1,0.967-1h15.439
				c0.533,0,0.965,0.467,0.965,1C542.361,690.532,541.93,691,541.396,691z"/>
			<path fill="#ED8C8C" d="M358,460.4c0-3.929,0.168-5.4-3.242-5.4h-69.42c-3.412,0-8.338,1.472-8.338,5.4v132.404
				c0,3.929,4.926,9.195,8.338,9.195h69.42c3.41,0,3.242-5.267,3.242-9.195V460.4z M352,568.572c0,3.34,0.475,8.428-2.936,8.428
				h-57.514c-3.41,0-8.551-5.088-8.551-8.428v-98.848c0-3.338,5.141-2.725,8.551-2.725h57.514c3.41,0,2.936-0.613,2.936,2.725
				V568.572z M327.035,587.4c0,3.457-2.434,6.259-5.436,6.259c-3,0-5.434-2.802-5.434-6.259c0-3.456,2.434-6.259,5.434-6.259
				C324.602,581.142,327.035,583.944,327.035,587.4z M328,460.188c0,0.518,0.811,1.812,0.119,1.812h-17.5
				c-0.689,0-2.619-1.295-2.619-1.812v-0.375c0-0.518,1.93,0.188,2.619,0.188h17.5c0.691,0-0.119-0.705-0.119-0.188V460.188z"/>
		</g>
		<path fill="#6EA7CE" d="M170.021,870.659l-11.126-63.052l-40.336-0.263l-10.146,63.64l-1.939-0.006
			c-7.949-0.029-15.005,5.791-15.034,13.742l-0.211,58.062c-0.028,7.773,6.409,14.113,14.112,14.422l11.302,60.312l40.481,0.62
			l9.449-60.086l2.474,0.01c7.952,0.029,13.833-6.993,13.862-14.943l0.211-58.062C183.146,877.426,177.523,871.178,170.021,870.659z
			 M170.881,932.814c-0.028,7.951-6.497,14.373-14.447,14.344l-41.176-0.15c-7.95-0.029-14.371-6.496-14.342-14.447l0.137-37.555
			c0.027-7.951,6.496-14.373,14.447-14.345l41.174,0.149c7.951,0.029,14.373,6.498,14.344,14.449L170.881,932.814z"/>
		<path fill="#ED8C8C" d="M565,732.285c0-5.681-4.605-10.285-10.286-10.285h-83.428c-5.681,0-10.286,4.604-10.286,10.285v158.43
			c0,5.681,4.605,10.285,10.286,10.285h83.428c5.681,0,10.286-4.604,10.286-10.285V732.285z M510.276,881.863
			c-12.852,0-23.271-9.553-23.271-21.333s10.419-21.331,23.271-21.331c12.851,0,23.271,9.551,23.271,21.331
			S523.127,881.863,510.276,881.863z M554,812.714c0,5.681-4.605,10.286-10.286,10.286h-61.428c-5.681,0-10.286-4.605-10.286-10.286
			v-71.428c0-5.681,4.605-10.286,10.286-10.286h61.428c5.681,0,10.286,4.605,10.286,10.286V812.714z"/>
		<g>
			<path fill="none" stroke="#86CC7A" stroke-miterlimit="10" d="M245.5,767.69c0,6.569-5.961,13.81-14.613,13.81h-89.444
				c-8.652,0-17.943-7.24-17.943-13.81v-19.067c0-6.569,9.291-11.123,17.943-11.123h89.444c8.652,0,14.613,4.554,14.613,11.123
				V767.69z"/>
			<path fill="#86CC7A" d="M414.078,732h-0.975h-12.662H88.279h-0.975H85v0.008c-2,0.675-5,3.621-5,7.156v34.09
				c0,3.535,3,6.481,5,7.156V781h2.305h0.975h54.891c7.07,0,12.83-6.141,12.83-13.172v-19.342c0-4.552-2.438-8.486-6.047-11.486
				h109.874l5.133,11.352c-0.101,1.296-0.058,2.922,0.198,4.491c0.693,4.231-4.843,10.374-2.964,10.89
				c3.757,1.03,8.745-4.219,10.524-10.701c1.781-6.484-0.367-9.675-4.124-10.706c-1.012-0.279-2.241,0.583-2.995,2.78L261.976,737
				h28.376l-3.626,8.117c-0.753-2.197-1.983-3.225-2.995-2.945c-3.755,1.031-5.904,4.331-4.124,10.815s6.77,11.821,10.526,10.788
				c1.878-0.516-3.657-6.548-2.966-10.778c0.256-1.57,0.3-3.36,0.198-4.657L292.5,737h107.941h12.662h0.975
				c1.613,0,2.922-0.888,2.922-2.5C417,732.887,415.691,732,414.078,732z M107.759,768.871c-6.186,0-11.201-5.015-11.201-11.201
				c0-6.186,5.015-11.2,11.201-11.2c6.187,0,11.201,5.015,11.201,11.2C118.959,763.856,113.945,768.871,107.759,768.871z"/>
		</g>
		<path fill="#ED8C8C" d="M421,802H233.533c-6.499,0-11.533,4.064-11.533,9.557v90.11c0,5.492,5.035,10.333,11.533,10.333H421
			c6.499,0,12-4.841,12-10.333v-90.11C433,806.064,427.499,802,421,802z M241.008,869.04c-6.348,0-11.494-4.925-11.494-11
			c0-6.074,5.146-11,11.494-11s11.494,4.926,11.494,11C252.502,864.115,247.356,869.04,241.008,869.04z M396,890
			c0,5.492-4.392,10-9.559,10H268.756c-5.166,0-8.756-4.508-8.756-10v-68.444c0-5.492,3.59-10.556,8.756-10.556h117.686
			c5.167,0,9.559,5.063,9.559,10.556V890z M415.114,867.611c-5.667,0-10.262-4.397-10.262-9.821c0-5.425,4.595-9.821,10.262-9.821
			c5.668,0,10.264,4.396,10.264,9.821C425.378,863.214,420.782,867.611,415.114,867.611z"/>
		<path fill="#86CC7A" d="M543.085,909h-56.32c-3.86,0-6.765,3.893-6.765,8.184v122.463c0,4.291,2.904,7.354,6.765,7.354h56.32
			c3.86,0,6.915-3.062,6.915-7.354V917.184C550,912.893,546.945,909,543.085,909z M507,916.437c0-0.376,0.351-0.437,0.853-0.437
			h12.725c0.502,0,0.423,0.061,0.423,0.437v0.272c0,0.377,0.079,0.291-0.423,0.291h-12.725c-0.502,0-0.853,0.086-0.853-0.291
			V916.437z M514.491,1043.51c-3.596,0-6.51-2.914-6.51-6.51s2.914-6.51,6.51-6.51c3.594,0,6.509,2.914,6.509,6.51
			S518.085,1043.51,514.491,1043.51z M547,1026h-65V923h65V1026z"/>
		<path fill="#6EA7CE" d="M415,925.086c0-2.809-2.277-5.086-5.086-5.086H236.086c-2.809,0-5.086,2.277-5.086,5.086v120.828
			c0,2.809,2.277,5.086,5.086,5.086h173.828c2.809,0,5.086-2.277,5.086-5.086V925.086z M251,933.543
			c0-2.809,0.627-6.543,3.486-6.543h146.282c2.859,0,6.231,3.734,6.231,6.543v104.032c0,2.81-3.372,5.425-6.231,5.425H254.486
			c-2.859,0-3.486-2.615-3.486-5.425V933.543z M239.328,990.537c-2.551,0-4.619-2.068-4.619-4.62s2.068-4.62,4.619-4.62
			c2.552,0,4.62,2.068,4.62,4.62S241.88,990.537,239.328,990.537z M408.434,985.771c0-0.781,0.632-1.414,1.412-1.414
			c0.781,0,1.414,0.633,1.414,1.414c0,0.782-0.633,1.416-1.414,1.416C409.065,987.188,408.434,986.554,408.434,985.771z"/>
	</g>
</g>
</svg>
