<?xml version="1.0" encoding="utf-8"?>
<!-- Generator: Adobe Illustrator 15.1.0, SVG Export Plug-In . SVG Version: 6.00 Build 0)  -->
<!DOCTYPE svg PUBLIC "-//W3C//DTD SVG 1.0//EN" "http://www.w3.org/TR/2001/REC-SVG-20010904/DTD/svg10.dtd">
<svg version="1.0" id="Layer_1" xmlns="http://www.w3.org/2000/svg" xmlns:xlink="http://www.w3.org/1999/xlink" x="0px" y="0px"
	 width="650px" height="1160px" viewBox="0 0 650 1160" enable-background="new 0 0 650 1160" xml:space="preserve">
<g>
	<rect x="-25" y="-7" fill="#FFFFFF" width="699" height="1173"/>
	<g>
		<g>
			<g>
				<g>
					<g>
						<g>
							<path fill="#86CC7A" d="M459.488,166c0,0-235.56,0-314.08,0c-3.471,0-7.408,1.557-7.408,5.029v220.297
								c0,3.472,3.938,6.674,7.408,6.674h314.08c3.469,0,5.512-3.202,5.512-6.674V171.029C465,167.557,462.957,166,459.488,166z
								 M451,378.713c0,3.473-2.815,6.287-6.288,6.287H157.288c-3.473,0-6.288-2.814-6.288-6.287V184.287
								c0-3.473,2.815-6.287,6.288-6.287h287.424c3.473,0,6.288,2.814,6.288,6.287V378.713z M303.714,171.505
								c0,0.968-0.781,1.75-1.747,1.75c-0.965,0-1.748-0.782-1.748-1.75c0-0.965,0.783-1.751,1.748-1.751
								C302.933,169.754,303.714,170.54,303.714,171.505z M302.272,171.508c0,0.193-0.155,0.352-0.351,0.352
								s-0.353-0.158-0.353-0.352c0-0.195,0.157-0.353,0.353-0.353S302.272,171.312,302.272,171.508z"/>
							<path fill="#86CC7A" d="M520.075,404H345v0.577c0,2.395-1.639,5.423-5.109,5.423h-83.314c-3.471,0-7.576-3.028-7.576-5.423
								V404H90.09c-3.471,0-7.09,1.545-7.09,4.561v12.871c0,3.016,3.619,7.568,7.09,7.568h429.985c3.474,0,4.925-4.553,4.925-7.568
								v-12.871C525,405.545,523.549,404,520.075,404z M480.263,414h-12.644c-0.438,0-0.793-0.064-0.793-0.5s0.355-0.5,0.793-0.5
								h12.644c0.437,0,0.79,0.064,0.79,0.5S480.699,414,480.263,414z"/>
						</g>
					</g>
				</g>
			</g>
			<rect x="164" y="191" fill="#9E9E9E" width="275" height="32"/>
			<rect x="287" y="240" fill="#BABABA" width="149" height="75"/>
			<rect x="166" y="328" fill="#BABABA" width="77" height="48"/>
			<rect x="260" y="328" fill="#BABABA" width="77" height="48"/>
			<rect x="358" y="328" fill="#BABABA" width="77" height="48"/>
			<g>
				<rect x="166" y="252" fill="#C4C4C4" width="80" height="3"/>
				<rect x="166" y="259" fill="#C4C4C4" width="96" height="3"/>
				<rect x="166" y="266" fill="#C4C4C4" width="111" height="3"/>
				<rect x="166" y="274" fill="#C4C4C4" width="80" height="3"/>
				<rect x="166" y="281" fill="#C4C4C4" width="96" height="3"/>
				<rect x="166" y="289" fill="#C4C4C4" width="80" height="2"/>
				<rect x="166" y="296" fill="#C4C4C4" width="80" height="3"/>
				<rect x="166" y="303" fill="#C4C4C4" width="96" height="3"/>
				<rect x="166" y="311" fill="#C4C4C4" width="111" height="3"/>
			</g>
			<rect x="166" y="240" fill="#AFAFAF" width="72" height="6"/>
		</g>
		<g>
			<path fill="#86CC7A" d="M564.84,233.605c0-4.247-0.758-6.919-4.445-6.919h-75.05c-3.688,0-7.951,2.672-7.951,6.919v143.144
				c0,4.249,4.263,8.861,7.951,8.861h75.05c3.688,0,4.445-4.612,4.445-8.861V233.605z M557.998,350.552
				c0,3.612-0.071,7.685-3.757,7.685h-62.179c-3.688,0-8.585-4.072-8.585-7.685V243.687c0-3.608,4.897-4.073,8.585-4.073h62.179
				c3.686,0,3.757,0.465,3.757,4.073V350.552z M530.424,370.906c0,3.739-2.631,6.768-5.876,6.768s-5.874-3.028-5.874-6.768
				c0-3.734,2.629-6.766,5.874-6.766S530.424,367.172,530.424,370.906z M532.144,233.376c0,0.56,0.198,0.914-0.548,0.914h-18.92
				c-0.745,0-1.824-0.354-1.824-0.914v-0.406c0-0.559,1.079-0.96,1.824-0.96h18.92c0.746,0,0.548,0.401,0.548,0.96V233.376z"/>
			<rect x="487" y="243" fill="#9E9E9E" width="68" height="17"/>
			<rect x="487" y="262" fill="#BABABA" width="68" height="38"/>
			<g>
				<rect x="488" y="303" fill="#C4C4C4" width="67" height="3"/>
				<rect x="488" y="325" fill="#C4C4C4" width="67" height="3"/>
				<rect x="488" y="311" fill="#C4C4C4" width="67" height="3"/>
				<rect x="488" y="318" fill="#C4C4C4" width="67" height="3"/>
				<g>
					<rect x="488" y="346" fill="#C4C4C4" width="67" height="3"/>
					<rect x="488" y="331" fill="#C4C4C4" width="67" height="3"/>
					<rect x="488" y="339" fill="#C4C4C4" width="67" height="3"/>
				</g>
			</g>
		</g>
	</g>
	<g>
		<g>
			<g>
				<g>
					<g>
						<g>
							<path fill="#6EA7CE" d="M463.502,681c0,0-242.363,0-323.15,0c-3.57,0-8.352,2.006-8.352,5.578v226.66
								c0,3.572,4.781,6.762,8.352,6.762h323.15c3.57,0,5.498-3.189,5.498-6.762v-226.66C469,683.006,467.072,681,463.502,681z
								 M455,899.531c0,3.572-2.756,6.469-6.33,6.469H152.609c-3.572,0-6.609-2.896-6.609-6.469V699.469
								c0-3.572,3.037-6.469,6.609-6.469H448.67c3.574,0,6.33,2.896,6.33,6.469V899.531z M303.229,687.067
								c0,0.995-0.803,1.801-1.797,1.801c-0.992,0-1.799-0.806-1.799-1.801c0-0.992,0.807-1.801,1.799-1.801
								C302.426,685.267,303.229,686.075,303.229,687.067z M301.746,687.07c0,0.199-0.16,0.363-0.361,0.363
								c-0.199,0-0.361-0.164-0.361-0.363c0-0.2,0.162-0.362,0.361-0.362C301.586,686.708,301.746,686.87,301.746,687.07z"/>
							<path fill="#6EA7CE" d="M525.84,926H345v0.871c0,2.465-0.979,5.129-4.549,5.129H254.73c-3.572,0-8.73-2.664-8.73-5.129V926
								H83.436c-3.572,0-7.436,1.867-7.436,4.97v13.243c0,3.102,3.863,7.787,7.436,7.787H525.84c3.572,0,5.16-4.686,5.16-7.787
								V930.97C531,927.867,529.412,926,525.84,926z M484.877,937h-13.008c-0.451,0-0.816-0.552-0.816-1s0.365-1,0.816-1h13.008
								c0.449,0,0.812,0.552,0.812,1S485.326,937,484.877,937z"/>
						</g>
					</g>
				</g>
			</g>
			<rect x="160" y="707" fill="#9E9E9E" width="283" height="34"/>
			<rect x="286" y="757" fill="#BABABA" width="154" height="78"/>
			<rect x="161" y="849" fill="#BABABA" width="79" height="48"/>
			<rect x="259" y="849" fill="#BABABA" width="79" height="48"/>
			<rect x="359" y="849" fill="#BABABA" width="79" height="48"/>
			<g>
				<rect x="161" y="769" fill="#C4C4C4" width="82" height="3"/>
				<rect x="161" y="777" fill="#C4C4C4" width="99" height="3"/>
				<rect x="161" y="785" fill="#C4C4C4" width="114" height="3"/>
				<rect x="161" y="792" fill="#C4C4C4" width="82" height="3"/>
				<rect x="161" y="800" fill="#C4C4C4" width="99" height="3"/>
				<rect x="161" y="807" fill="#C4C4C4" width="82" height="4"/>
				<rect x="161" y="815" fill="#C4C4C4" width="82" height="3"/>
				<rect x="161" y="823" fill="#C4C4C4" width="99" height="3"/>
				<rect x="161" y="830" fill="#C4C4C4" width="114" height="3"/>
			</g>
			<rect x="161" y="757" fill="#AFAFAF" width="75" height="6"/>
		</g>
		<g>
			<path fill="#6EA7CE" d="M572,750.962c0-4.37-0.881-6.962-4.676-6.962h-77.219c-3.795,0-8.105,2.592-8.105,6.962V898.24
				c0,4.371,4.311,9.76,8.105,9.76h77.219c3.795,0,4.676-5.389,4.676-9.76V750.962z M564,871.286c0,3.716,0.785,7.714-3.008,7.714
				h-63.975c-3.795,0-9.018-3.998-9.018-7.714V761.334c0-3.713,5.223-4.334,9.018-4.334h63.975c3.793,0,3.008,0.621,3.008,4.334
				V871.286z M536.486,892.229c0,3.847-2.707,6.963-6.045,6.963c-3.34,0-6.043-3.116-6.043-6.963c0-3.842,2.703-6.961,6.043-6.961
				C533.779,885.268,536.486,888.387,536.486,892.229z M539,750.726c0,0.577-0.539,0.274-1.307,0.274h-19.467
				c-0.768,0-2.227,0.303-2.227-0.274v-0.417c0-0.575,1.459-0.309,2.227-0.309h19.467c0.768,0,1.307-0.267,1.307,0.309V750.726z"/>
			<g>
				<rect x="493" y="760" fill="#9E9E9E" width="67" height="20"/>
				<rect x="494" y="842" fill="#BABABA" width="66" height="34"/>
				<g>
					<rect x="494" y="798" fill="#C4C4C4" width="49" height="2"/>
					<rect x="494" y="803" fill="#C4C4C4" width="60" height="1"/>
					<rect x="494" y="807" fill="#C4C4C4" width="69" height="2"/>
					<rect x="494" y="812" fill="#C4C4C4" width="49" height="2"/>
					<rect x="494" y="817" fill="#C4C4C4" width="60" height="1"/>
					<rect x="494" y="821" fill="#C4C4C4" width="49" height="2"/>
					<rect x="494" y="826" fill="#C4C4C4" width="49" height="1"/>
					<rect x="494" y="830" fill="#C4C4C4" width="60" height="2"/>
					<rect x="494" y="835" fill="#C4C4C4" width="69" height="1"/>
				</g>
				<rect x="494" y="791" fill="#AFAFAF" width="45" height="3"/>
			</g>
		</g>
	</g>
	<text transform="matrix(1 0 0 1 275.5 593.5)" font-family="'Helvetica'" font-size="100">=</text>
	<line fill="none" stroke="#D85656" stroke-width="9" stroke-miterlimit="10" x1="332" y1="540" x2="271.849" y2="602.854"/>
</g>
</svg>
