<?xml version="1.0" encoding="utf-8"?>
<!-- Generator: Adobe Illustrator 15.1.0, SVG Export Plug-In . SVG Version: 6.00 Build 0)  -->
<!DOCTYPE svg PUBLIC "-//W3C//DTD SVG 1.0//EN" "http://www.w3.org/TR/2001/REC-SVG-20010904/DTD/svg10.dtd">
<svg version="1.0" id="Layer_1" xmlns="http://www.w3.org/2000/svg" xmlns:xlink="http://www.w3.org/1999/xlink" x="0px" y="0px"
	 width="1200px" height="1000px" viewBox="0 0 1200 1000" enable-background="new 0 0 1200 1000" xml:space="preserve">
<g>
	<rect fill="#FFFFFF" width="1200" height="1000"/>
	<text transform="matrix(1 0 0 1 168.9199 629.8906)" font-family="'Helvetica'" font-size="85">Adaptable = Escalable</text>
	<line fill="none" stroke="#D85656" stroke-width="9" stroke-miterlimit="10" x1="636" y1="576" x2="575.849" y2="638.854"/>
	<g>
		<g>
			<g>
				<g>
					<g>
						<g>
							<path fill="#86CC7A" d="M433.597,360c0,0-159.295,0-212.394,0c-2.347,0-5.203,1.201-5.203,3.55v148.974
								c0,2.348,2.856,4.477,5.203,4.477h212.394c2.347,0,3.403-2.129,3.403-4.477V363.55C437,361.201,435.943,360,433.597,360z
								 M428,503.748c0,2.35-1.903,4.252-4.252,4.252H229.252c-2.349,0-4.252-1.902-4.252-4.252V372.252
								c0-2.349,1.903-4.252,4.252-4.252h194.496c2.349,0,4.252,1.903,4.252,4.252V503.748z M328.256,363.872
								c0,0.654-0.528,1.184-1.182,1.184c-0.652,0-1.182-0.529-1.182-1.184c0-0.653,0.529-1.184,1.182-1.184
								C327.728,362.688,328.256,363.219,328.256,363.872z M327.281,363.873c0,0.131-0.105,0.239-0.237,0.239
								s-0.238-0.107-0.238-0.239s0.106-0.238,0.238-0.238S327.281,363.741,327.281,363.873z"/>
							<path fill="#86CC7A" d="M474.568,521H356v0.484c0,1.619-0.933,3.516-3.28,3.516h-56.34c-2.348,0-5.38-1.896-5.38-3.516V521
								H183.795c-2.348,0-4.795,1.139-4.795,3.178v8.704c0,2.039,2.447,5.118,4.795,5.118h290.773c2.348,0,3.432-3.079,3.432-5.118
								v-8.704C478,522.139,476.917,521,474.568,521z M447.646,528h-8.55c-0.296,0-0.536-0.205-0.536-0.5s0.24-0.5,0.536-0.5h8.55
								c0.295,0,0.534,0.205,0.534,0.5S447.94,528,447.646,528z"/>
						</g>
					</g>
				</g>
			</g>
			<rect x="234" y="377" fill="#9E9E9E" width="186" height="22"/>
			<rect x="317" y="410" fill="#BABABA" width="101" height="51"/>
			<rect x="235" y="470" fill="#BABABA" width="52" height="32"/>
			<rect x="299" y="470" fill="#BABABA" width="52" height="32"/>
			<rect x="365" y="470" fill="#BABABA" width="52" height="32"/>
			<g>
				<rect x="235" y="418" fill="#C4C4C4" width="54" height="2"/>
				<rect x="235" y="423" fill="#C4C4C4" width="65" height="2"/>
				<rect x="235" y="428" fill="#C4C4C4" width="75" height="2"/>
				<rect x="235" y="433" fill="#C4C4C4" width="54" height="2"/>
				<rect x="235" y="438" fill="#C4C4C4" width="65" height="2"/>
				<rect x="235" y="443" fill="#C4C4C4" width="54" height="2"/>
				<rect x="235" y="448" fill="#C4C4C4" width="54" height="2"/>
				<rect x="235" y="453" fill="#C4C4C4" width="65" height="2"/>
				<rect x="235" y="458" fill="#C4C4C4" width="75" height="2"/>
			</g>
			<rect x="235" y="410" fill="#AFAFAF" width="49" height="4"/>
		</g>
		<g>
			<path fill="#86CC7A" d="M504.84,405.867c0-2.873-0.512-4.679-3.006-4.679h-50.752c-2.494,0-5.376,1.807-5.376,4.679v96.799
				c0,2.873,2.883,5.992,5.376,5.992h50.752c2.494,0,3.006-3.119,3.006-5.992V405.867z M500.213,484.951
				c0,2.442-0.048,5.196-2.54,5.196h-42.048c-2.494,0-5.805-2.753-5.805-5.196v-72.267c0-2.44,3.312-2.755,5.805-2.755h42.048
				c2.492,0,2.54,0.314,2.54,2.755V484.951z M481.566,498.715c0,2.528-1.779,4.576-3.974,4.576s-3.972-2.048-3.972-4.576
				c0-2.525,1.777-4.575,3.972-4.575S481.566,496.19,481.566,498.715z M482.729,405.711c0,0.379,0.134,0.618-0.37,0.618h-12.795
				c-0.504,0-1.233-0.239-1.233-0.618v-0.274c0-0.378,0.729-0.649,1.233-0.649h12.795c0.504,0,0.37,0.271,0.37,0.649V405.711z"/>
			<rect x="452" y="412" fill="#9E9E9E" width="46" height="12"/>
			<rect x="452" y="425" fill="#BABABA" width="46" height="26"/>
			<g>
				<rect x="453" y="453" fill="#C4C4C4" width="45" height="2"/>
				<rect x="453" y="468" fill="#C4C4C4" width="45" height="2"/>
				<rect x="453" y="458" fill="#C4C4C4" width="45" height="2"/>
				<rect x="453" y="463" fill="#C4C4C4" width="45" height="2"/>
				<g>
					<rect x="453" y="482" fill="#C4C4C4" width="45" height="2"/>
					<rect x="453" y="472" fill="#C4C4C4" width="45" height="2"/>
					<rect x="453" y="477" fill="#C4C4C4" width="45" height="2"/>
				</g>
			</g>
		</g>
	</g>
	<g>
		<g>
			<g>
				<g>
					<g>
						<g>
							<path fill="#6EA7CE" d="M913.597,367c0,0-159.295,0-212.394,0c-2.347,0-5.203,1.201-5.203,3.55v148.974
								c0,2.348,2.856,4.477,5.203,4.477h212.394c2.347,0,3.403-2.129,3.403-4.477V370.55C917,368.201,915.943,367,913.597,367z
								 M908,510.748c0,2.35-1.903,4.252-4.252,4.252H709.252c-2.349,0-4.252-1.902-4.252-4.252V379.252
								c0-2.349,1.903-4.252,4.252-4.252h194.496c2.349,0,4.252,1.903,4.252,4.252V510.748z M808.256,370.872
								c0,0.654-0.528,1.184-1.182,1.184c-0.652,0-1.182-0.529-1.182-1.184c0-0.653,0.529-1.184,1.182-1.184
								C807.728,369.688,808.256,370.219,808.256,370.872z M807.281,370.873c0,0.131-0.105,0.239-0.237,0.239
								s-0.238-0.107-0.238-0.239s0.106-0.238,0.238-0.238S807.281,370.741,807.281,370.873z"/>
							<path fill="#6EA7CE" d="M954.568,528H836v0.484c0,1.619-0.933,3.516-3.28,3.516h-56.34c-2.348,0-5.38-1.896-5.38-3.516V528
								H663.795c-2.348,0-4.795,1.139-4.795,3.178v8.704c0,2.039,2.447,5.118,4.795,5.118h290.773c2.349,0,3.432-3.079,3.432-5.118
								v-8.704C958,529.139,956.917,528,954.568,528z M927.646,535h-8.55c-0.296,0-0.536-0.205-0.536-0.5s0.24-0.5,0.536-0.5h8.55
								c0.295,0,0.534,0.205,0.534,0.5S927.94,535,927.646,535z"/>
						</g>
					</g>
				</g>
			</g>
			<rect x="714" y="384" fill="#9E9E9E" width="186" height="22"/>
			<rect x="797" y="417" fill="#BABABA" width="101" height="51"/>
			<rect x="715" y="477" fill="#BABABA" width="52" height="32"/>
			<rect x="779" y="477" fill="#BABABA" width="52" height="32"/>
			<rect x="845" y="477" fill="#BABABA" width="52" height="32"/>
			<g>
				<rect x="715" y="425" fill="#C4C4C4" width="54" height="2"/>
				<rect x="715" y="430" fill="#C4C4C4" width="65" height="2"/>
				<rect x="715" y="435" fill="#C4C4C4" width="75" height="2"/>
				<rect x="715" y="440" fill="#C4C4C4" width="54" height="2"/>
				<rect x="715" y="445" fill="#C4C4C4" width="65" height="2"/>
				<rect x="715" y="450" fill="#C4C4C4" width="54" height="2"/>
				<rect x="715" y="455" fill="#C4C4C4" width="54" height="2"/>
				<rect x="715" y="460" fill="#C4C4C4" width="65" height="2"/>
				<rect x="715" y="465" fill="#C4C4C4" width="75" height="2"/>
			</g>
			<rect x="715" y="417" fill="#AFAFAF" width="49" height="4"/>
		</g>
		<g>
			<path fill="#6EA7CE" d="M985,412.867c0-2.873-0.672-4.867-3.166-4.867h-50.752c-2.494,0-5.082,1.994-5.082,4.867v96.799
				c0,2.873,2.588,6.334,5.082,6.334h50.752c2.494,0,3.166-3.461,3.166-6.334V412.867z M980,491.951
				c0,2.442,0.164,5.049-2.327,5.049h-42.048c-2.494,0-5.625-2.607-5.625-5.049v-72.267c0-2.44,3.131-2.684,5.625-2.684h42.048
				c2.491,0,2.327,0.243,2.327,2.684V491.951z M961.566,505.715c0,2.528-1.779,4.576-3.974,4.576s-3.972-2.048-3.972-4.576
				c0-2.525,1.777-4.575,3.972-4.575S961.566,503.189,961.566,505.715z M963,412.711c0,0.379-0.137,0.289-0.641,0.289h-12.795
				c-0.504,0-1.564,0.09-1.564-0.289v-0.274c0-0.378,1.061-0.437,1.564-0.437h12.795c0.504,0,0.641,0.059,0.641,0.437V412.711z"/>
			<g>
				<rect x="933" y="419" fill="#9E9E9E" width="44" height="13"/>
				<rect x="934" y="473" fill="#BABABA" width="43" height="22"/>
				<g>
					<rect x="934" y="444" fill="#C4C4C4" width="32" height="1"/>
					<rect x="934" y="447" fill="#C4C4C4" width="39" height="1"/>
					<rect x="934" y="450" fill="#C4C4C4" width="45" height="1"/>
					<rect x="934" y="453" fill="#C4C4C4" width="32" height="1"/>
					<rect x="934" y="456" fill="#C4C4C4" width="39" height="1"/>
					<rect x="934" y="459" fill="#C4C4C4" width="32" height="1"/>
					<rect x="934" y="462" fill="#C4C4C4" width="32" height="1"/>
					<rect x="934" y="465" fill="#C4C4C4" width="39" height="1"/>
					<rect x="934" y="468" fill="#C4C4C4" width="45" height="1"/>
				</g>
				<rect x="934" y="439" fill="#AFAFAF" width="29" height="2"/>
			</g>
		</g>
	</g>
</g>
</svg>
