<?xml version="1.0" encoding="utf-8"?>
<!-- Generator: Adobe Illustrator 15.1.0, SVG Export Plug-In . SVG Version: 6.00 Build 0)  -->
<!DOCTYPE svg PUBLIC "-//W3C//DTD SVG 1.0//EN" "http://www.w3.org/TR/2001/REC-SVG-20010904/DTD/svg10.dtd">
<svg version="1.0" id="Layer_1" xmlns="http://www.w3.org/2000/svg" xmlns:xlink="http://www.w3.org/1999/xlink" x="0px" y="0px"
	 width="650px" height="1160px" viewBox="0 0 650 1160" enable-background="new 0 0 650 1160" xml:space="preserve">
<g>
	<rect x="-25" y="-6" fill="#FFFFFF" width="699" height="1173"/>
	<g>
		<g>
			<g>
				<g>
					<g>
						<g>
							<path fill="#86CC7A" d="M528.965,542c0,0-308.513,0-411.35,0c-4.546,0-10.615,1.378-10.615,5.926v288.522
								c0,4.548,6.069,9.552,10.615,9.552h411.35c4.545,0,6.035-5.004,6.035-9.552V547.926C535,543.378,533.51,542,528.965,542z
								 M517,819.771c0,4.547-2.982,9.229-7.531,9.229H133.191c-4.549,0-9.191-4.682-9.191-9.229V564.959
								c0-4.547,4.643-7.959,9.191-7.959h376.277c4.549,0,7.531,3.412,7.531,7.959V819.771z M324.947,548.549
								c0,1.268-1.022,2.292-2.288,2.292c-1.264,0-2.289-1.024-2.289-2.292c0-1.264,1.025-2.293,2.289-2.293
								C323.925,546.256,324.947,547.285,324.947,548.549z M323.061,548.553c0,0.253-0.204,0.461-0.46,0.461
								s-0.462-0.208-0.462-0.461c0-0.256,0.206-0.462,0.462-0.462S323.061,548.297,323.061,548.553z"/>
							<path fill="#86CC7A" d="M608.316,854H378v-0.196c0,3.136-1.126,8.196-5.672,8.196H263.212
								c-4.546,0-11.212-5.061-11.212-8.196V854H45.165C40.619,854,35,855.071,35,859.021v16.856C35,879.826,40.619,886,45.165,886
								h563.151c4.549,0,5.684-6.174,5.684-10.123v-16.856C614,855.071,612.865,854,608.316,854z M556.174,867h-16.56
								c-0.573,0-1.038-0.429-1.038-0.998c0-0.571,0.465-1.002,1.038-1.002h16.56c0.571,0,1.034,0.431,1.034,1.002
								C557.208,866.571,556.745,867,556.174,867z"/>
						</g>
					</g>
				</g>
			</g>
			<rect x="141" y="574" fill="#9E9E9E" width="360" height="42"/>
			<rect x="302" y="639" fill="#BABABA" width="195" height="98"/>
			<rect x="144" y="754" fill="#BABABA" width="101" height="63"/>
			<rect x="267" y="754" fill="#BABABA" width="101" height="63"/>
			<rect x="395" y="754" fill="#BABABA" width="101" height="63"/>
			<g>
				<rect x="144" y="654" fill="#C4C4C4" width="105" height="4"/>
				<rect x="144" y="663" fill="#C4C4C4" width="126" height="4"/>
				<rect x="144" y="673" fill="#C4C4C4" width="145" height="4"/>
				<rect x="144" y="684" fill="#C4C4C4" width="105" height="4"/>
				<rect x="144" y="692" fill="#C4C4C4" width="126" height="5"/>
				<rect x="144" y="703" fill="#C4C4C4" width="105" height="2"/>
				<rect x="144" y="712" fill="#C4C4C4" width="105" height="4"/>
				<rect x="144" y="722" fill="#C4C4C4" width="126" height="3"/>
				<rect x="144" y="732" fill="#C4C4C4" width="145" height="3"/>
			</g>
			<rect x="144" y="639" fill="#AFAFAF" width="94" height="7"/>
		</g>
		<g opacity="0.44">
			<rect x="130" y="570" fill="#9E9E9E" width="360" height="42"/>
			<rect x="291" y="634" fill="#BABABA" width="195" height="98"/>
			<rect x="133" y="749" fill="#BABABA" width="100" height="63"/>
			<rect x="256" y="749" fill="#BABABA" width="100" height="63"/>
			<rect x="384" y="749" fill="#BABABA" width="101" height="63"/>
			<g>
				<rect x="133" y="650" fill="#C4C4C4" width="104" height="4"/>
				<rect x="133" y="659" fill="#C4C4C4" width="126" height="4"/>
				<rect x="133" y="668" fill="#C4C4C4" width="145" height="4"/>
				<rect x="133" y="679" fill="#C4C4C4" width="104" height="4"/>
				<rect x="133" y="688" fill="#C4C4C4" width="126" height="4"/>
				<rect x="133" y="698" fill="#C4C4C4" width="104" height="3"/>
				<rect x="133" y="708" fill="#C4C4C4" width="104" height="4"/>
				<rect x="133" y="717" fill="#C4C4C4" width="126" height="4"/>
				<rect x="133" y="727" fill="#C4C4C4" width="145" height="4"/>
			</g>
			<rect x="133" y="634" fill="#AFAFAF" width="94" height="8"/>
		</g>
	</g>
	<text transform="matrix(1 0 0 1 83.5327 343.0132)"><tspan x="0" y="0" fill="#6EA7CE" font-family="'Helvetica'" font-size="100">Contenido </tspan><tspan x="0" y="120" fill="#6EA7CE" font-family="'Helvetica'" font-size="100">Duplicado</tspan></text>
</g>
</svg>
