<?xml version="1.0" encoding="utf-8"?>
<!-- Generator: Adobe Illustrator 15.1.0, SVG Export Plug-In . SVG Version: 6.00 Build 0)  -->
<!DOCTYPE svg PUBLIC "-//W3C//DTD SVG 1.0//EN" "http://www.w3.org/TR/2001/REC-SVG-20010904/DTD/svg10.dtd">
<svg version="1.0" id="Layer_1" xmlns="http://www.w3.org/2000/svg" xmlns:xlink="http://www.w3.org/1999/xlink" x="0px" y="0px"
	 width="1200px" height="1000px" viewBox="0 0 1200 1000" enable-background="new 0 0 1200 1000" xml:space="preserve">
<g>
	<rect y="12" fill="#FFFFFF" width="1200" height="976"/>
	<g>
		<g>
			<g>
				<g>
					<g>
						<g>
							<path fill="#EF7373" d="M895.284,319c0,0-446.782,0-595.711,0c-6.582,0-14.573,3.369-14.573,9.956V746.79
								c0,6.585,7.991,12.21,14.573,12.21h595.711c6.582,0,9.716-5.625,9.716-12.21V328.956C905,322.369,901.866,319,895.284,319z
								 M879,722.074c0,6.586-5.339,11.926-11.925,11.926h-545.15c-6.586,0-11.925-5.34-11.925-11.926V352.926
								c0-6.586,5.339-11.926,11.925-11.926h545.15c6.586,0,11.925,5.339,11.925,11.926V722.074z M599.829,329.857
								c0,1.835-1.481,3.32-3.313,3.32c-1.83,0-3.314-1.485-3.314-3.32c0-1.829,1.484-3.32,3.314-3.32
								C598.348,326.538,599.829,328.028,599.829,329.857z M597.096,329.863c0,0.367-0.296,0.668-0.665,0.668
								c-0.37,0-0.669-0.301-0.669-0.668c0-0.37,0.299-0.668,0.669-0.668C596.8,329.194,597.096,329.493,597.096,329.863z"/>
							<path fill="#EF7373" d="M1010.199,771H677v0.923c0,4.542-1.971,10.077-8.556,10.077H510.426
								c-6.585,0-15.426-5.535-15.426-10.077V771H194.652c-6.584,0-13.652,2.758-13.652,8.477v24.414
								c0,5.719,7.068,14.109,13.652,14.109h815.547c6.588,0,9.801-8.391,9.801-14.109v-24.414
								C1020,773.758,1016.787,771,1010.199,771z M934.688,790h-23.98c-0.829,0-1.503-0.673-1.503-1.5s0.674-1.5,1.503-1.5h23.98
								c0.827,0,1.498,0.673,1.498,1.5S935.515,790,934.688,790z"/>
						</g>
					</g>
				</g>
			</g>
			<rect x="335" y="367" fill="#9E9E9E" width="522" height="61"/>
			<rect x="568" y="459" fill="#BABABA" width="283" height="143"/>
			<rect x="338" y="628" fill="#BABABA" width="146" height="89"/>
			<rect x="518" y="628" fill="#BABABA" width="145" height="89"/>
			<rect x="703" y="628" fill="#BABABA" width="146" height="89"/>
			<g>
				<rect x="338" y="482" fill="#C4C4C4" width="152" height="5"/>
				<rect x="338" y="496" fill="#C4C4C4" width="182" height="5"/>
				<rect x="338" y="510" fill="#C4C4C4" width="210" height="5"/>
				<rect x="338" y="524" fill="#C4C4C4" width="152" height="5"/>
				<rect x="338" y="538" fill="#C4C4C4" width="182" height="5"/>
				<rect x="338" y="552" fill="#C4C4C4" width="152" height="5"/>
				<rect x="338" y="566" fill="#C4C4C4" width="152" height="5"/>
				<rect x="338" y="580" fill="#C4C4C4" width="182" height="5"/>
				<rect x="338" y="594" fill="#C4C4C4" width="210" height="5"/>
			</g>
			<rect x="338" y="459" fill="#AFAFAF" width="137" height="11"/>
		</g>
	</g>
	<text transform="matrix(1 0 0 1 176.8193 208.1123)" fill="#EF7373" font-family="'Helvetica'" font-size="90.6855">Contenido Relevante</text>
</g>
</svg>
