<?xml version="1.0" encoding="utf-8"?>
<!-- Generator: Adobe Illustrator 15.1.0, SVG Export Plug-In . SVG Version: 6.00 Build 0)  -->
<!DOCTYPE svg PUBLIC "-//W3C//DTD SVG 1.0//EN" "http://www.w3.org/TR/2001/REC-SVG-20010904/DTD/svg10.dtd">
<svg version="1.0" id="Layer_1" xmlns="http://www.w3.org/2000/svg" xmlns:xlink="http://www.w3.org/1999/xlink" x="0px" y="0px"
	 width="1200px" height="1000px" viewBox="0 0 1200 1000" enable-background="new 0 0 1200 1000" xml:space="preserve">
<g>
	<rect fill="#FFFFFF" width="1200" height="1000"/>
	<g>
		<g>
			<g>
				<g>
					<g>
						<g>
							<path fill="#86CC7A" d="M867.906,387c0,0-380.979,0-507.972,0c-5.613,0-11.935,2.518-11.935,8.134v356.293
								c0,5.615,6.321,10.573,11.935,10.573h507.972c5.611,0,9.094-4.958,9.094-10.573V395.134C877,389.518,873.518,387,867.906,387
								z M854,730.832c0,5.616-4.553,10.168-10.17,10.168H379.17c-5.617,0-10.17-4.552-10.17-10.168V416.168
								c0-5.616,4.553-10.168,10.17-10.168h464.66c5.617,0,10.17,4.552,10.17,10.168V730.832z M615.968,395.903
								c0,1.565-1.264,2.831-2.826,2.831c-1.561,0-2.827-1.265-2.827-2.831c0-1.561,1.267-2.832,2.827-2.832
								C614.704,393.071,615.968,394.343,615.968,395.903z M613.637,395.908c0,0.312-0.252,0.569-0.567,0.569
								c-0.316,0-0.57-0.256-0.57-0.569c0-0.316,0.254-0.57,0.57-0.57C613.385,395.338,613.637,395.592,613.637,395.908z"/>
							<path fill="#86CC7A" d="M965.896,772H683v0.858c0,3.872-2.909,9.142-8.522,9.142H539.73c-5.613,0-12.73-5.27-12.73-9.142V772
								H270.467c-5.613,0-11.467,2.424-11.467,7.301v20.816c0,4.877,5.854,11.883,11.467,11.883h695.429
								c5.618,0,8.104-7.006,8.104-11.883v-20.816C974,774.424,971.514,772,965.896,772z M901.506,788h-20.449
								c-0.708,0-1.282-0.295-1.282-1c0-0.704,0.574-1,1.282-1h20.449c0.705,0,1.277,0.296,1.277,1
								C902.783,787.705,902.211,788,901.506,788z"/>
						</g>
					</g>
				</g>
			</g>
			<rect x="390" y="427" fill="#9E9E9E" width="445" height="52"/>
			<rect x="589" y="507" fill="#BABABA" width="241" height="121"/>
			<rect x="393" y="649" fill="#BABABA" width="125" height="78"/>
			<rect x="545" y="649" fill="#BABABA" width="125" height="78"/>
			<rect x="704" y="649" fill="#BABABA" width="124" height="78"/>
			<g>
				<rect x="393" y="526" fill="#C4C4C4" width="130" height="5"/>
				<rect x="393" y="537" fill="#C4C4C4" width="156" height="5"/>
				<rect x="393" y="549" fill="#C4C4C4" width="180" height="5"/>
				<rect x="393" y="562" fill="#C4C4C4" width="130" height="5"/>
				<rect x="393" y="573" fill="#C4C4C4" width="156" height="5"/>
				<rect x="393" y="586" fill="#C4C4C4" width="130" height="3"/>
				<rect x="393" y="597" fill="#C4C4C4" width="130" height="5"/>
				<rect x="393" y="609" fill="#C4C4C4" width="156" height="4"/>
				<rect x="393" y="622" fill="#C4C4C4" width="180" height="4"/>
			</g>
			<rect x="393" y="507" fill="#AFAFAF" width="117" height="9"/>
		</g>
		<g opacity="0.44">
			<rect x="375" y="419" fill="#9E9E9E" width="445" height="52"/>
			<rect x="574" y="498" fill="#BABABA" width="241" height="121"/>
			<rect x="379" y="640" fill="#BABABA" width="124" height="78"/>
			<rect x="531" y="640" fill="#BABABA" width="124" height="78"/>
			<rect x="689" y="640" fill="#BABABA" width="125" height="78"/>
			<g>
				<rect x="379" y="518" fill="#C4C4C4" width="129" height="4"/>
				<rect x="379" y="529" fill="#C4C4C4" width="155" height="5"/>
				<rect x="379" y="540" fill="#C4C4C4" width="179" height="5"/>
				<rect x="379" y="553" fill="#C4C4C4" width="129" height="5"/>
				<rect x="379" y="564" fill="#C4C4C4" width="155" height="5"/>
				<rect x="379" y="577" fill="#C4C4C4" width="129" height="4"/>
				<rect x="379" y="589" fill="#C4C4C4" width="129" height="5"/>
				<rect x="379" y="600" fill="#C4C4C4" width="155" height="5"/>
				<rect x="379" y="613" fill="#C4C4C4" width="179" height="5"/>
			</g>
			<rect x="379" y="498" fill="#AFAFAF" width="116" height="10"/>
		</g>
	</g>
	<text transform="matrix(1 0 0 1 142.7896 268.5132)" fill="#6EA7CE" font-family="'Helvetica'" font-size="100">Contenido Duplicado</text>
</g>
</svg>
