<?xml version="1.0" encoding="utf-8"?>
<!-- Generator: Adobe Illustrator 15.1.0, SVG Export Plug-In . SVG Version: 6.00 Build 0)  -->
<!DOCTYPE svg PUBLIC "-//W3C//DTD SVG 1.0//EN" "http://www.w3.org/TR/2001/REC-SVG-20010904/DTD/svg10.dtd">
<svg version="1.0" id="Layer_1" xmlns="http://www.w3.org/2000/svg" xmlns:xlink="http://www.w3.org/1999/xlink" x="0px" y="0px"
	 width="650px" height="1160px" viewBox="0 0 650 1160" enable-background="new 0 0 650 1160" xml:space="preserve">
<g>
	<rect x="-25" y="-6" fill="#FFFFFF" width="699" height="1173"/>
	<g>
		<g>
			<g>
				<g>
					<g>
						<rect x="623.482" y="945.748" fill="none" width="18.191" height="18.191"/>
						<path fill-rule="evenodd" clip-rule="evenodd" fill="#90D370" d="M632.58,945.748c5.023,0,9.094,4.074,9.094,9.098
							s-4.07,9.094-9.094,9.094c-5.02,0-9.098-4.07-9.098-9.094S627.561,945.748,632.58,945.748z"/>
					</g>
				</g>
				<g>
					<g>
						<rect x="623.482" y="911.08" fill="none" width="18.191" height="18.191"/>
						<path fill-rule="evenodd" clip-rule="evenodd" fill="#90D370" d="M632.58,911.08c5.023,0,9.094,4.074,9.094,9.098
							s-4.07,9.094-9.094,9.094c-5.02,0-9.098-4.07-9.098-9.094S627.561,911.08,632.58,911.08z"/>
					</g>
				</g>
				<g>
					<g>
						<rect x="623.482" y="876.412" fill="none" width="18.191" height="18.191"/>
						<path fill-rule="evenodd" clip-rule="evenodd" fill="#90D370" d="M632.58,876.412c5.023,0,9.094,4.074,9.094,9.098
							s-4.07,9.094-9.094,9.094c-5.02,0-9.098-4.07-9.098-9.094S627.561,876.412,632.58,876.412z"/>
					</g>
				</g>
				<g>
					<g>
						<rect x="623.482" y="841.744" fill="none" width="18.191" height="18.191"/>
						<path fill-rule="evenodd" clip-rule="evenodd" fill="#90D370" d="M632.58,841.744c5.023,0,9.094,4.074,9.094,9.098
							s-4.07,9.094-9.094,9.094c-5.02,0-9.098-4.07-9.098-9.094S627.561,841.744,632.58,841.744z"/>
					</g>
				</g>
				<g>
					<g>
						<rect x="623.482" y="807.076" fill="none" width="18.191" height="18.191"/>
						<path fill-rule="evenodd" clip-rule="evenodd" fill="#90D370" d="M632.58,807.076c5.023,0,9.094,4.074,9.094,9.098
							s-4.07,9.094-9.094,9.094c-5.02,0-9.098-4.07-9.098-9.094S627.561,807.076,632.58,807.076z"/>
					</g>
				</g>
				<g>
					<g>
						<rect x="623.482" y="772.408" fill="none" width="18.191" height="18.191"/>
						<path fill-rule="evenodd" clip-rule="evenodd" fill="#90D370" d="M632.58,772.408c5.023,0,9.094,4.074,9.094,9.098
							s-4.07,9.094-9.094,9.094c-5.02,0-9.098-4.07-9.098-9.094S627.561,772.408,632.58,772.408z"/>
					</g>
				</g>
				<g>
					<g>
						<rect x="623.482" y="737.74" fill="none" width="18.191" height="18.191"/>
						<path fill-rule="evenodd" clip-rule="evenodd" fill="#90D370" d="M632.58,737.74c5.023,0,9.094,4.074,9.094,9.098
							s-4.07,9.094-9.094,9.094c-5.02,0-9.098-4.07-9.098-9.094S627.561,737.74,632.58,737.74z"/>
					</g>
				</g>
				<g>
					<g>
						<rect x="623.482" y="703.072" fill="none" width="18.191" height="18.191"/>
						<path fill-rule="evenodd" clip-rule="evenodd" fill="#90D370" d="M632.58,703.072c5.023,0,9.094,4.074,9.094,9.098
							s-4.07,9.094-9.094,9.094c-5.02,0-9.098-4.07-9.098-9.094S627.561,703.072,632.58,703.072z"/>
					</g>
				</g>
				<g>
					<g>
						<rect x="623.482" y="668.404" fill="none" width="18.191" height="18.191"/>
						<path fill-rule="evenodd" clip-rule="evenodd" fill="#90D370" d="M632.58,668.404c5.023,0,9.094,4.074,9.094,9.098
							s-4.07,9.094-9.094,9.094c-5.02,0-9.098-4.07-9.098-9.094S627.561,668.404,632.58,668.404z"/>
					</g>
				</g>
				<g>
					<g>
						<rect x="623.482" y="633.736" fill="none" width="18.191" height="18.191"/>
						<path fill-rule="evenodd" clip-rule="evenodd" fill="#90D370" d="M632.58,633.736c5.023,0,9.094,4.074,9.094,9.098
							s-4.07,9.094-9.094,9.094c-5.02,0-9.098-4.07-9.098-9.094S627.561,633.736,632.58,633.736z"/>
					</g>
				</g>
				<g>
					<g>
						<rect x="623.482" y="599.068" fill="none" width="18.191" height="18.191"/>
						<path fill-rule="evenodd" clip-rule="evenodd" fill="#90D370" d="M632.58,599.068c5.023,0,9.094,4.074,9.094,9.098
							s-4.07,9.094-9.094,9.094c-5.02,0-9.098-4.07-9.098-9.094S627.561,599.068,632.58,599.068z"/>
					</g>
				</g>
				<g>
					<g>
						<rect x="623.482" y="564.4" fill="none" width="18.191" height="18.191"/>
						<path fill-rule="evenodd" clip-rule="evenodd" fill="#90D370" d="M632.58,564.4c5.023,0,9.094,4.074,9.094,9.098
							s-4.07,9.094-9.094,9.094c-5.02,0-9.098-4.07-9.098-9.094S627.561,564.4,632.58,564.4z"/>
					</g>
				</g>
				<g>
					<g>
						<rect x="623.482" y="529.732" fill="none" width="18.191" height="18.191"/>
						<path fill-rule="evenodd" clip-rule="evenodd" fill="#90D370" d="M632.58,529.732c5.023,0,9.094,4.074,9.094,9.098
							s-4.07,9.094-9.094,9.094c-5.02,0-9.098-4.07-9.098-9.094S627.561,529.732,632.58,529.732z"/>
					</g>
				</g>
				<g>
					<g>
						<rect x="623.482" y="495.064" fill="none" width="18.191" height="18.191"/>
						<path fill-rule="evenodd" clip-rule="evenodd" fill="#90D370" d="M632.58,495.064c5.023,0,9.094,4.074,9.094,9.098
							s-4.07,9.094-9.094,9.094c-5.02,0-9.098-4.07-9.098-9.094S627.561,495.064,632.58,495.064z"/>
					</g>
				</g>
				<g>
					<g>
						<rect x="623.482" y="460.396" fill="none" width="18.191" height="18.191"/>
						<path fill-rule="evenodd" clip-rule="evenodd" fill="#90D370" d="M632.58,460.396c5.023,0,9.094,4.074,9.094,9.098
							s-4.07,9.094-9.094,9.094c-5.02,0-9.098-4.07-9.098-9.094S627.561,460.396,632.58,460.396z"/>
					</g>
				</g>
				<g>
					<g>
						<rect x="623.482" y="425.729" fill="none" width="18.191" height="18.191"/>
						<path fill-rule="evenodd" clip-rule="evenodd" fill="#90D370" d="M632.58,425.729c5.023,0,9.094,4.074,9.094,9.098
							s-4.07,9.094-9.094,9.094c-5.02,0-9.098-4.07-9.098-9.094S627.561,425.729,632.58,425.729z"/>
					</g>
				</g>
				<g>
					<g>
						<rect x="623.482" y="391.061" fill="none" width="18.191" height="18.191"/>
						<path fill-rule="evenodd" clip-rule="evenodd" fill="#90D370" d="M632.58,391.061c5.023,0,9.094,4.074,9.094,9.098
							s-4.07,9.094-9.094,9.094c-5.02,0-9.098-4.07-9.098-9.094S627.561,391.061,632.58,391.061z"/>
					</g>
				</g>
				<g>
					<g>
						<rect x="591.748" y="359.326" fill="none" width="18.191" height="18.191"/>
						<path fill-rule="evenodd" clip-rule="evenodd" fill="#90D370" d="M591.748,368.42c0-5.023,4.074-9.094,9.098-9.094
							s9.094,4.07,9.094,9.094c0,5.02-4.07,9.098-9.094,9.098S591.748,373.439,591.748,368.42z"/>
					</g>
				</g>
				<g>
					<g>
						<rect x="557.08" y="359.326" fill="none" width="18.191" height="18.191"/>
						<path fill-rule="evenodd" clip-rule="evenodd" fill="#90D370" d="M557.08,368.42c0-5.023,4.074-9.094,9.098-9.094
							s9.094,4.07,9.094,9.094c0,5.02-4.07,9.098-9.094,9.098S557.08,373.439,557.08,368.42z"/>
					</g>
				</g>
				<g>
					<g>
						<rect x="522.412" y="359.326" fill="none" width="18.191" height="18.191"/>
						<path fill-rule="evenodd" clip-rule="evenodd" fill="#90D370" d="M522.412,368.42c0-5.023,4.074-9.094,9.098-9.094
							s9.094,4.07,9.094,9.094c0,5.02-4.07,9.098-9.094,9.098S522.412,373.439,522.412,368.42z"/>
					</g>
				</g>
				<g>
					<g>
						<rect x="487.744" y="359.326" fill="none" width="18.191" height="18.191"/>
						<path fill-rule="evenodd" clip-rule="evenodd" fill="#90D370" d="M487.744,368.42c0-5.023,4.074-9.094,9.098-9.094
							s9.094,4.07,9.094,9.094c0,5.02-4.07,9.098-9.094,9.098S487.744,373.439,487.744,368.42z"/>
					</g>
				</g>
				<g>
					<g>
						<rect x="453.076" y="359.326" fill="none" width="18.191" height="18.191"/>
						<path fill-rule="evenodd" clip-rule="evenodd" fill="#90D370" d="M453.076,368.42c0-5.023,4.074-9.094,9.098-9.094
							s9.094,4.07,9.094,9.094c0,5.02-4.07,9.098-9.094,9.098S453.076,373.439,453.076,368.42z"/>
					</g>
				</g>
				<g>
					<g>
						<rect x="418.408" y="359.326" fill="none" width="18.191" height="18.191"/>
						<path fill-rule="evenodd" clip-rule="evenodd" fill="#90D370" d="M418.408,368.42c0-5.023,4.074-9.094,9.098-9.094
							s9.094,4.07,9.094,9.094c0,5.02-4.07,9.098-9.094,9.098S418.408,373.439,418.408,368.42z"/>
					</g>
				</g>
				<g>
					<g>
						<rect x="383.74" y="359.326" fill="none" width="18.191" height="18.191"/>
						<path fill-rule="evenodd" clip-rule="evenodd" fill="#90D370" d="M383.74,368.42c0-5.023,4.074-9.094,9.098-9.094
							s9.094,4.07,9.094,9.094c0,5.02-4.07,9.098-9.094,9.098S383.74,373.439,383.74,368.42z"/>
					</g>
				</g>
				<g>
					<g>
						<rect x="349.072" y="359.326" fill="none" width="18.191" height="18.191"/>
						<path fill-rule="evenodd" clip-rule="evenodd" fill="#90D370" d="M349.072,368.42c0-5.023,4.074-9.094,9.098-9.094
							s9.094,4.07,9.094,9.094c0,5.02-4.07,9.098-9.094,9.098S349.072,373.439,349.072,368.42z"/>
					</g>
				</g>
				<g>
					<g>
						<rect x="314.404" y="359.326" fill="none" width="18.191" height="18.191"/>
						<path fill-rule="evenodd" clip-rule="evenodd" fill="#90D370" d="M314.404,368.42c0-5.023,4.074-9.094,9.098-9.094
							s9.094,4.07,9.094,9.094c0,5.02-4.07,9.098-9.094,9.098S314.404,373.439,314.404,368.42z"/>
					</g>
				</g>
				<g>
					<g>
						<rect x="279.736" y="359.326" fill="none" width="18.191" height="18.191"/>
						<path fill-rule="evenodd" clip-rule="evenodd" fill="#90D370" d="M279.736,368.42c0-5.023,4.074-9.094,9.098-9.094
							s9.094,4.07,9.094,9.094c0,5.02-4.07,9.098-9.094,9.098S279.736,373.439,279.736,368.42z"/>
					</g>
				</g>
				<g>
					<g>
						<rect x="245.068" y="359.326" fill="none" width="18.191" height="18.191"/>
						<path fill-rule="evenodd" clip-rule="evenodd" fill="#90D370" d="M245.068,368.42c0-5.023,4.074-9.094,9.098-9.094
							s9.094,4.07,9.094,9.094c0,5.02-4.07,9.098-9.094,9.098S245.068,373.439,245.068,368.42z"/>
					</g>
				</g>
				<g>
					<g>
						<rect x="210.4" y="359.326" fill="none" width="18.191" height="18.191"/>
						<path fill-rule="evenodd" clip-rule="evenodd" fill="#90D370" d="M210.4,368.42c0-5.023,4.074-9.094,9.098-9.094
							s9.094,4.07,9.094,9.094c0,5.02-4.07,9.098-9.094,9.098S210.4,373.439,210.4,368.42z"/>
					</g>
				</g>
				<g>
					<g>
						<rect x="175.732" y="359.326" fill="none" width="18.191" height="18.191"/>
						<path fill-rule="evenodd" clip-rule="evenodd" fill="#90D370" d="M175.732,368.42c0-5.023,4.074-9.094,9.098-9.094
							s9.094,4.07,9.094,9.094c0,5.02-4.07,9.098-9.094,9.098S175.732,373.439,175.732,368.42z"/>
					</g>
				</g>
				<g>
					<g>
						<rect x="141.064" y="359.326" fill="none" width="18.191" height="18.191"/>
						<path fill-rule="evenodd" clip-rule="evenodd" fill="#90D370" d="M141.064,368.42c0-5.023,4.074-9.094,9.098-9.094
							s9.094,4.07,9.094,9.094c0,5.02-4.07,9.098-9.094,9.098S141.064,373.439,141.064,368.42z"/>
					</g>
				</g>
				<g>
					<g>
						<rect x="106.396" y="359.326" fill="none" width="18.191" height="18.191"/>
						<path fill-rule="evenodd" clip-rule="evenodd" fill="#90D370" d="M106.396,368.42c0-5.023,4.074-9.094,9.098-9.094
							s9.094,4.07,9.094,9.094c0,5.02-4.07,9.098-9.094,9.098S106.396,373.439,106.396,368.42z"/>
					</g>
				</g>
				<g>
					<g>
						<rect x="71.729" y="359.326" fill="none" width="18.191" height="18.191"/>
						<path fill-rule="evenodd" clip-rule="evenodd" fill="#90D370" d="M71.729,368.42c0-5.023,4.074-9.094,9.098-9.094
							s9.094,4.07,9.094,9.094c0,5.02-4.07,9.098-9.094,9.098S71.729,373.439,71.729,368.42z"/>
					</g>
				</g>
				<g>
					<g>
						<rect x="37.061" y="359.326" fill="none" width="18.191" height="18.191"/>
						<path fill-rule="evenodd" clip-rule="evenodd" fill="#90D370" d="M37.061,368.42c0-5.023,4.074-9.094,9.098-9.094
							s9.094,4.07,9.094,9.094c0,5.02-4.07,9.098-9.094,9.098S37.061,373.439,37.061,368.42z"/>
					</g>
				</g>
				<g>
					<g>
						<rect x="5.326" y="391.061" fill="none" width="18.191" height="18.191"/>
						<path fill-rule="evenodd" clip-rule="evenodd" fill="#90D370" d="M14.42,409.252c-5.023,0-9.094-4.074-9.094-9.098
							s4.07-9.094,9.094-9.094c5.02,0,9.098,4.07,9.098,9.094S19.439,409.252,14.42,409.252z"/>
					</g>
				</g>
				<g>
					<g>
						<rect x="5.326" y="425.729" fill="none" width="18.191" height="18.191"/>
						<path fill-rule="evenodd" clip-rule="evenodd" fill="#90D370" d="M14.42,443.92c-5.023,0-9.094-4.074-9.094-9.098
							s4.07-9.094,9.094-9.094c5.02,0,9.098,4.07,9.098,9.094S19.439,443.92,14.42,443.92z"/>
					</g>
				</g>
				<g>
					<g>
						<rect x="5.326" y="460.396" fill="none" width="18.191" height="18.191"/>
						<path fill-rule="evenodd" clip-rule="evenodd" fill="#90D370" d="M14.42,478.588c-5.023,0-9.094-4.074-9.094-9.098
							s4.07-9.094,9.094-9.094c5.02,0,9.098,4.07,9.098,9.094S19.439,478.588,14.42,478.588z"/>
					</g>
				</g>
				<g>
					<g>
						<rect x="5.326" y="495.064" fill="none" width="18.191" height="18.191"/>
						<path fill-rule="evenodd" clip-rule="evenodd" fill="#90D370" d="M14.42,513.256c-5.023,0-9.094-4.074-9.094-9.098
							s4.07-9.094,9.094-9.094c5.02,0,9.098,4.07,9.098,9.094S19.439,513.256,14.42,513.256z"/>
					</g>
				</g>
				<g>
					<g>
						<rect x="5.326" y="529.732" fill="none" width="18.191" height="18.191"/>
						<path fill-rule="evenodd" clip-rule="evenodd" fill="#90D370" d="M14.42,547.924c-5.023,0-9.094-4.074-9.094-9.098
							s4.07-9.094,9.094-9.094c5.02,0,9.098,4.07,9.098,9.094S19.439,547.924,14.42,547.924z"/>
					</g>
				</g>
				<g>
					<g>
						<rect x="5.326" y="564.4" fill="none" width="18.191" height="18.191"/>
						<path fill-rule="evenodd" clip-rule="evenodd" fill="#90D370" d="M14.42,582.592c-5.023,0-9.094-4.074-9.094-9.098
							s4.07-9.094,9.094-9.094c5.02,0,9.098,4.07,9.098,9.094S19.439,582.592,14.42,582.592z"/>
					</g>
				</g>
				<g>
					<g>
						<rect x="5.326" y="599.068" fill="none" width="18.191" height="18.191"/>
						<path fill-rule="evenodd" clip-rule="evenodd" fill="#90D370" d="M14.42,617.26c-5.023,0-9.094-4.074-9.094-9.098
							s4.07-9.094,9.094-9.094c5.02,0,9.098,4.07,9.098,9.094S19.439,617.26,14.42,617.26z"/>
					</g>
				</g>
				<g>
					<g>
						<rect x="5.326" y="633.736" fill="none" width="18.191" height="18.191"/>
						<path fill-rule="evenodd" clip-rule="evenodd" fill="#90D370" d="M14.42,651.928c-5.023,0-9.094-4.074-9.094-9.098
							s4.07-9.094,9.094-9.094c5.02,0,9.098,4.07,9.098,9.094S19.439,651.928,14.42,651.928z"/>
					</g>
				</g>
				<g>
					<g>
						<rect x="5.326" y="668.404" fill="none" width="18.191" height="18.191"/>
						<path fill-rule="evenodd" clip-rule="evenodd" fill="#90D370" d="M14.42,686.596c-5.023,0-9.094-4.074-9.094-9.098
							s4.07-9.094,9.094-9.094c5.02,0,9.098,4.07,9.098,9.094S19.439,686.596,14.42,686.596z"/>
					</g>
				</g>
				<g>
					<g>
						<rect x="5.326" y="703.072" fill="none" width="18.191" height="18.191"/>
						<path fill-rule="evenodd" clip-rule="evenodd" fill="#90D370" d="M14.42,721.264c-5.023,0-9.094-4.074-9.094-9.098
							s4.07-9.094,9.094-9.094c5.02,0,9.098,4.07,9.098,9.094S19.439,721.264,14.42,721.264z"/>
					</g>
				</g>
				<g>
					<g>
						<rect x="5.326" y="737.74" fill="none" width="18.191" height="18.191"/>
						<path fill-rule="evenodd" clip-rule="evenodd" fill="#90D370" d="M14.42,755.932c-5.023,0-9.094-4.074-9.094-9.098
							s4.07-9.094,9.094-9.094c5.02,0,9.098,4.07,9.098,9.094S19.439,755.932,14.42,755.932z"/>
					</g>
				</g>
				<g>
					<g>
						<rect x="5.326" y="772.408" fill="none" width="18.191" height="18.191"/>
						<path fill-rule="evenodd" clip-rule="evenodd" fill="#90D370" d="M14.42,790.6c-5.023,0-9.094-4.074-9.094-9.098
							s4.07-9.094,9.094-9.094c5.02,0,9.098,4.07,9.098,9.094S19.439,790.6,14.42,790.6z"/>
					</g>
				</g>
				<g>
					<g>
						<rect x="5.326" y="807.076" fill="none" width="18.191" height="18.191"/>
						<path fill-rule="evenodd" clip-rule="evenodd" fill="#90D370" d="M14.42,825.268c-5.023,0-9.094-4.074-9.094-9.098
							s4.07-9.094,9.094-9.094c5.02,0,9.098,4.07,9.098,9.094S19.439,825.268,14.42,825.268z"/>
					</g>
				</g>
				<g>
					<g>
						<rect x="5.326" y="841.744" fill="none" width="18.191" height="18.191"/>
						<path fill-rule="evenodd" clip-rule="evenodd" fill="#90D370" d="M14.42,859.936c-5.023,0-9.094-4.074-9.094-9.098
							s4.07-9.094,9.094-9.094c5.02,0,9.098,4.07,9.098,9.094S19.439,859.936,14.42,859.936z"/>
					</g>
				</g>
				<g>
					<g>
						<rect x="5.326" y="876.412" fill="none" width="18.191" height="18.191"/>
						<path fill-rule="evenodd" clip-rule="evenodd" fill="#90D370" d="M14.42,894.604c-5.023,0-9.094-4.074-9.094-9.098
							s4.07-9.094,9.094-9.094c5.02,0,9.098,4.07,9.098,9.094S19.439,894.604,14.42,894.604z"/>
					</g>
				</g>
				<g>
					<g>
						<rect x="5.326" y="911.08" fill="none" width="18.191" height="18.191"/>
						<path fill-rule="evenodd" clip-rule="evenodd" fill="#90D370" d="M14.42,929.271c-5.023,0-9.094-4.074-9.094-9.098
							s4.07-9.094,9.094-9.094c5.02,0,9.098,4.07,9.098,9.094S19.439,929.271,14.42,929.271z"/>
					</g>
				</g>
				<g>
					<g>
						<rect x="5.326" y="945.748" fill="none" width="18.191" height="18.191"/>
						<path fill-rule="evenodd" clip-rule="evenodd" fill="#90D370" d="M14.42,963.939c-5.023,0-9.094-4.074-9.094-9.098
							s4.07-9.094,9.094-9.094c5.02,0,9.098,4.07,9.098,9.094S19.439,963.939,14.42,963.939z"/>
					</g>
				</g>
				<g>
					<g>
						<rect x="37.061" y="977.482" fill="none" width="18.191" height="18.191"/>
						<path fill-rule="evenodd" clip-rule="evenodd" fill="#90D370" d="M55.252,986.58c0,5.023-4.074,9.094-9.098,9.094
							s-9.094-4.07-9.094-9.094c0-5.02,4.07-9.098,9.094-9.098S55.252,981.561,55.252,986.58z"/>
					</g>
				</g>
				<g>
					<g>
						<rect x="71.729" y="977.482" fill="none" width="18.191" height="18.191"/>
						<path fill-rule="evenodd" clip-rule="evenodd" fill="#90D370" d="M89.92,986.58c0,5.023-4.074,9.094-9.098,9.094
							s-9.094-4.07-9.094-9.094c0-5.02,4.07-9.098,9.094-9.098S89.92,981.561,89.92,986.58z"/>
					</g>
				</g>
				<g>
					<g>
						<rect x="106.396" y="977.482" fill="none" width="18.191" height="18.191"/>
						<path fill-rule="evenodd" clip-rule="evenodd" fill="#90D370" d="M124.588,986.58c0,5.023-4.074,9.094-9.098,9.094
							s-9.094-4.07-9.094-9.094c0-5.02,4.07-9.098,9.094-9.098S124.588,981.561,124.588,986.58z"/>
					</g>
				</g>
				<g>
					<g>
						<rect x="141.064" y="977.482" fill="none" width="18.191" height="18.191"/>
						<path fill-rule="evenodd" clip-rule="evenodd" fill="#90D370" d="M159.256,986.58c0,5.023-4.074,9.094-9.098,9.094
							s-9.094-4.07-9.094-9.094c0-5.02,4.07-9.098,9.094-9.098S159.256,981.561,159.256,986.58z"/>
					</g>
				</g>
				<g>
					<g>
						<rect x="175.732" y="977.482" fill="none" width="18.191" height="18.191"/>
						<path fill-rule="evenodd" clip-rule="evenodd" fill="#90D370" d="M193.924,986.58c0,5.023-4.074,9.094-9.098,9.094
							s-9.094-4.07-9.094-9.094c0-5.02,4.07-9.098,9.094-9.098S193.924,981.561,193.924,986.58z"/>
					</g>
				</g>
				<g>
					<g>
						<rect x="210.4" y="977.482" fill="none" width="18.191" height="18.191"/>
						<path fill-rule="evenodd" clip-rule="evenodd" fill="#90D370" d="M228.592,986.58c0,5.023-4.074,9.094-9.098,9.094
							s-9.094-4.07-9.094-9.094c0-5.02,4.07-9.098,9.094-9.098S228.592,981.561,228.592,986.58z"/>
					</g>
				</g>
				<g>
					<g>
						<rect x="245.068" y="977.482" fill="none" width="18.191" height="18.191"/>
						<path fill-rule="evenodd" clip-rule="evenodd" fill="#90D370" d="M263.26,986.58c0,5.023-4.074,9.094-9.098,9.094
							s-9.094-4.07-9.094-9.094c0-5.02,4.07-9.098,9.094-9.098S263.26,981.561,263.26,986.58z"/>
					</g>
				</g>
				<g>
					<g>
						<rect x="279.736" y="977.482" fill="none" width="18.191" height="18.191"/>
						<path fill-rule="evenodd" clip-rule="evenodd" fill="#90D370" d="M297.928,986.58c0,5.023-4.074,9.094-9.098,9.094
							s-9.094-4.07-9.094-9.094c0-5.02,4.07-9.098,9.094-9.098S297.928,981.561,297.928,986.58z"/>
					</g>
				</g>
				<g>
					<g>
						<rect x="314.404" y="977.482" fill="none" width="18.191" height="18.191"/>
						<path fill-rule="evenodd" clip-rule="evenodd" fill="#90D370" d="M332.596,986.58c0,5.023-4.074,9.094-9.098,9.094
							s-9.094-4.07-9.094-9.094c0-5.02,4.07-9.098,9.094-9.098S332.596,981.561,332.596,986.58z"/>
					</g>
				</g>
				<g>
					<g>
						<rect x="349.072" y="977.482" fill="none" width="18.191" height="18.191"/>
						<path fill-rule="evenodd" clip-rule="evenodd" fill="#90D370" d="M367.264,986.58c0,5.023-4.074,9.094-9.098,9.094
							s-9.094-4.07-9.094-9.094c0-5.02,4.07-9.098,9.094-9.098S367.264,981.561,367.264,986.58z"/>
					</g>
				</g>
				<g>
					<g>
						<rect x="383.74" y="977.482" fill="none" width="18.191" height="18.191"/>
						<path fill-rule="evenodd" clip-rule="evenodd" fill="#90D370" d="M401.932,986.58c0,5.023-4.074,9.094-9.098,9.094
							s-9.094-4.07-9.094-9.094c0-5.02,4.07-9.098,9.094-9.098S401.932,981.561,401.932,986.58z"/>
					</g>
				</g>
				<g>
					<g>
						<rect x="418.408" y="977.482" fill="none" width="18.191" height="18.191"/>
						<path fill-rule="evenodd" clip-rule="evenodd" fill="#90D370" d="M436.6,986.58c0,5.023-4.074,9.094-9.098,9.094
							s-9.094-4.07-9.094-9.094c0-5.02,4.07-9.098,9.094-9.098S436.6,981.561,436.6,986.58z"/>
					</g>
				</g>
				<g>
					<g>
						<rect x="453.076" y="977.482" fill="none" width="18.191" height="18.191"/>
						<path fill-rule="evenodd" clip-rule="evenodd" fill="#90D370" d="M471.268,986.58c0,5.023-4.074,9.094-9.098,9.094
							s-9.094-4.07-9.094-9.094c0-5.02,4.07-9.098,9.094-9.098S471.268,981.561,471.268,986.58z"/>
					</g>
				</g>
				<g>
					<g>
						<rect x="487.744" y="977.482" fill="none" width="18.191" height="18.191"/>
						<path fill-rule="evenodd" clip-rule="evenodd" fill="#90D370" d="M505.936,986.58c0,5.023-4.074,9.094-9.098,9.094
							s-9.094-4.07-9.094-9.094c0-5.02,4.07-9.098,9.094-9.098S505.936,981.561,505.936,986.58z"/>
					</g>
				</g>
				<g>
					<g>
						<rect x="522.412" y="977.482" fill="none" width="18.191" height="18.191"/>
						<path fill-rule="evenodd" clip-rule="evenodd" fill="#90D370" d="M540.604,986.58c0,5.023-4.074,9.094-9.098,9.094
							s-9.094-4.07-9.094-9.094c0-5.02,4.07-9.098,9.094-9.098S540.604,981.561,540.604,986.58z"/>
					</g>
				</g>
				<g>
					<g>
						<rect x="557.08" y="977.482" fill="none" width="18.191" height="18.191"/>
						<path fill-rule="evenodd" clip-rule="evenodd" fill="#90D370" d="M575.271,986.58c0,5.023-4.074,9.094-9.098,9.094
							s-9.094-4.07-9.094-9.094c0-5.02,4.07-9.098,9.094-9.098S575.271,981.561,575.271,986.58z"/>
					</g>
				</g>
				<g>
					<g>
						<rect x="591.748" y="977.482" fill="none" width="18.191" height="18.191"/>
						<path fill-rule="evenodd" clip-rule="evenodd" fill="#90D370" d="M609.939,986.58c0,5.023-4.074,9.094-9.098,9.094
							s-9.094-4.07-9.094-9.094c0-5.02,4.07-9.098,9.094-9.098S609.939,981.561,609.939,986.58z"/>
					</g>
				</g>
				<g>
					<g>
						<rect x="623.486" y="359.318" fill="none" width="18.191" height="18.191"/>
						<polygon fill-rule="evenodd" clip-rule="evenodd" fill="#90D370" points="623.486,368.416 623.498,368.884 623.533,369.346 
							623.591,369.801 623.671,370.249 623.772,370.689 623.896,371.121 624.038,371.543 624.201,371.956 624.384,372.359 
							624.585,372.751 624.804,373.132 625.04,373.501 625.294,373.857 625.564,374.201 625.85,374.531 626.151,374.847 
							626.468,375.148 626.798,375.434 627.142,375.704 627.498,375.957 627.867,376.193 628.248,376.413 628.641,376.613 
							629.043,376.795 629.456,376.958 629.879,377.101 630.311,377.224 630.751,377.325 631.199,377.405 631.654,377.463 
							632.116,377.498 632.584,377.51 633.052,377.498 633.514,377.463 633.969,377.405 634.417,377.325 634.857,377.224 
							635.289,377.101 635.711,376.958 636.124,376.795 636.527,376.613 636.919,376.413 637.3,376.193 637.669,375.957 
							638.025,375.704 638.369,375.434 638.699,375.148 639.015,374.847 639.315,374.531 639.602,374.201 639.871,373.857 
							640.125,373.501 640.361,373.132 640.58,372.751 640.781,372.359 640.963,371.956 641.126,371.543 641.269,371.121 
							641.392,370.689 641.493,370.249 641.573,369.801 641.631,369.346 641.666,368.884 641.678,368.416 641.666,367.948 
							641.631,367.487 641.573,367.032 641.493,366.584 641.392,366.144 641.269,365.712 641.126,365.29 640.963,364.877 
							640.781,364.474 640.58,364.082 640.361,363.701 640.125,363.332 639.871,362.975 639.602,362.631 639.315,362.301 
							639.015,361.985 638.699,361.684 638.369,361.397 638.025,361.127 637.669,360.874 637.3,360.637 636.919,360.417 
							636.527,360.216 636.124,360.034 635.711,359.871 635.289,359.728 634.857,359.605 634.417,359.503 633.969,359.423 
							633.514,359.365 633.052,359.33 632.584,359.318 632.116,359.33 631.654,359.365 631.199,359.423 630.751,359.503 
							630.311,359.605 629.879,359.728 629.456,359.871 629.043,360.034 628.641,360.216 628.248,360.417 627.867,360.637 
							627.498,360.874 627.142,361.127 626.798,361.397 626.468,361.684 626.151,361.985 625.85,362.301 625.564,362.631 
							625.294,362.975 625.04,363.332 624.804,363.701 624.585,364.082 624.384,364.474 624.201,364.877 624.038,365.29 
							623.896,365.712 623.772,366.144 623.671,366.584 623.591,367.032 623.533,367.487 623.498,367.948 						"/>
					</g>
				</g>
				<g>
					<g>
						<rect x="5.318" y="359.322" fill="none" width="18.191" height="18.191"/>
						<polygon fill-rule="evenodd" clip-rule="evenodd" fill="#90D370" points="14.416,377.514 14.884,377.502 15.346,377.467 
							15.801,377.409 16.249,377.329 16.689,377.227 17.121,377.104 17.543,376.961 17.956,376.799 18.359,376.616 18.751,376.416 
							19.132,376.196 19.501,375.959 19.857,375.706 20.201,375.436 20.531,375.15 20.847,374.849 21.148,374.533 21.434,374.203 
							21.704,373.859 21.957,373.502 22.193,373.133 22.413,372.752 22.613,372.36 22.795,371.957 22.958,371.543 23.101,371.121 
							23.224,370.689 23.325,370.249 23.405,369.801 23.463,369.346 23.498,368.884 23.51,368.416 23.498,367.948 23.463,367.486 
							23.405,367.031 23.325,366.583 23.224,366.143 23.101,365.711 22.958,365.289 22.795,364.876 22.613,364.473 22.413,364.081 
							22.193,363.7 21.957,363.331 21.704,362.975 21.434,362.631 21.148,362.301 20.847,361.985 20.531,361.684 20.201,361.398 
							19.857,361.128 19.501,360.875 19.132,360.639 18.751,360.419 18.359,360.219 17.956,360.037 17.543,359.874 17.121,359.731 
							16.689,359.608 16.249,359.507 15.801,359.427 15.346,359.369 14.884,359.334 14.416,359.322 13.948,359.334 13.487,359.369 
							13.032,359.427 12.584,359.507 12.144,359.608 11.712,359.731 11.29,359.874 10.877,360.037 10.474,360.219 10.082,360.419 
							9.701,360.639 9.332,360.875 8.975,361.128 8.631,361.398 8.301,361.684 7.985,361.985 7.684,362.301 7.397,362.631 
							7.127,362.975 6.874,363.331 6.637,363.7 6.417,364.081 6.216,364.473 6.034,364.876 5.871,365.289 5.728,365.711 
							5.605,366.143 5.503,366.583 5.423,367.031 5.365,367.486 5.33,367.948 5.318,368.416 5.33,368.884 5.365,369.346 
							5.423,369.801 5.503,370.249 5.605,370.689 5.728,371.121 5.871,371.543 6.034,371.957 6.216,372.36 6.417,372.752 
							6.637,373.133 6.874,373.502 7.127,373.859 7.397,374.203 7.684,374.533 7.985,374.849 8.301,375.15 8.631,375.436 
							8.975,375.706 9.332,375.959 9.701,376.196 10.082,376.416 10.474,376.616 10.877,376.799 11.29,376.961 11.712,377.104 
							12.144,377.227 12.584,377.329 13.032,377.409 13.487,377.467 13.948,377.502 						"/>
					</g>
				</g>
				<g>
					<g>
						<rect x="5.322" y="977.49" fill="none" width="18.191" height="18.191"/>
						<polygon fill-rule="evenodd" clip-rule="evenodd" fill="#90D370" points="23.514,986.584 23.502,986.116 23.467,985.654 
							23.409,985.199 23.329,984.751 23.227,984.311 23.104,983.879 22.961,983.457 22.799,983.044 22.616,982.641 22.416,982.249 
							22.196,981.868 21.959,981.499 21.706,981.143 21.436,980.799 21.15,980.469 20.849,980.153 20.533,979.853 20.203,979.566 
							19.859,979.297 19.502,979.043 19.133,978.807 18.752,978.588 18.36,978.387 17.957,978.205 17.543,978.042 17.121,977.899 
							16.689,977.776 16.249,977.675 15.801,977.595 15.346,977.537 14.884,977.502 14.416,977.49 13.948,977.502 13.486,977.537 
							13.031,977.595 12.583,977.675 12.143,977.776 11.711,977.899 11.289,978.042 10.876,978.205 10.473,978.387 10.081,978.588 
							9.7,978.807 9.331,979.043 8.975,979.297 8.631,979.566 8.301,979.853 7.985,980.153 7.684,980.469 7.398,980.799 
							7.128,981.143 6.875,981.499 6.639,981.868 6.419,982.249 6.219,982.641 6.037,983.044 5.874,983.457 5.731,983.879 
							5.608,984.311 5.507,984.751 5.427,985.199 5.369,985.654 5.334,986.116 5.322,986.584 5.334,987.052 5.369,987.514 
							5.427,987.969 5.507,988.416 5.608,988.855 5.731,989.287 5.874,989.71 6.037,990.123 6.219,990.526 6.419,990.918 
							6.639,991.299 6.875,991.668 7.128,992.025 7.398,992.369 7.684,992.699 7.985,993.016 8.301,993.316 8.631,993.603 
							8.975,993.873 9.331,994.127 9.7,994.363 10.081,994.583 10.473,994.783 10.876,994.966 11.289,995.129 11.711,995.272 
							12.143,995.395 12.583,995.496 13.031,995.577 13.486,995.635 13.948,995.67 14.416,995.682 14.884,995.67 15.346,995.635 
							15.801,995.577 16.249,995.496 16.689,995.395 17.121,995.272 17.543,995.129 17.957,994.966 18.36,994.783 18.752,994.583 
							19.133,994.363 19.502,994.127 19.859,993.873 20.203,993.603 20.533,993.316 20.849,993.016 21.15,992.699 21.436,992.369 
							21.706,992.025 21.959,991.668 22.196,991.299 22.416,990.918 22.616,990.526 22.799,990.123 22.961,989.71 23.104,989.287 
							23.227,988.855 23.329,988.416 23.409,987.969 23.467,987.514 23.502,987.052 						"/>
					</g>
				</g>
				<g>
					<g>
						<rect x="623.49" y="977.486" fill="none" width="18.191" height="18.191"/>
						<polygon fill-rule="evenodd" clip-rule="evenodd" fill="#90D370" points="632.584,977.486 632.116,977.498 631.654,977.533 
							631.199,977.591 630.751,977.671 630.311,977.772 629.879,977.896 629.457,978.038 629.044,978.201 628.641,978.384 
							628.249,978.585 627.868,978.804 627.499,979.04 627.143,979.294 626.799,979.564 626.469,979.85 626.153,980.151 
							625.853,980.468 625.566,980.798 625.297,981.142 625.043,981.498 624.807,981.867 624.588,982.248 624.387,982.641 
							624.205,983.043 624.042,983.456 623.899,983.879 623.776,984.311 623.675,984.751 623.595,985.199 623.537,985.654 
							623.502,986.116 623.49,986.584 623.502,987.052 623.537,987.514 623.595,987.969 623.675,988.417 623.776,988.857 
							623.899,989.289 624.042,989.711 624.205,990.124 624.387,990.527 624.588,990.919 624.807,991.3 625.043,991.669 
							625.297,992.025 625.566,992.369 625.853,992.699 626.153,993.015 626.469,993.315 626.799,993.602 627.143,993.871 
							627.499,994.125 627.868,994.361 628.249,994.58 628.641,994.781 629.044,994.963 629.457,995.126 629.879,995.269 
							630.311,995.392 630.751,995.493 631.199,995.573 631.654,995.631 632.116,995.666 632.584,995.678 633.052,995.666 
							633.514,995.631 633.969,995.573 634.416,995.493 634.855,995.392 635.287,995.269 635.71,995.126 636.123,994.963 
							636.526,994.781 636.918,994.58 637.299,994.361 637.668,994.125 638.025,993.871 638.369,993.602 638.699,993.315 
							639.016,993.015 639.316,992.699 639.603,992.369 639.873,992.025 640.127,991.669 640.363,991.3 640.583,990.919 
							640.783,990.527 640.966,990.124 641.129,989.711 641.272,989.289 641.395,988.857 641.496,988.417 641.577,987.969 
							641.635,987.514 641.67,987.052 641.682,986.584 641.67,986.116 641.635,985.654 641.577,985.199 641.496,984.751 
							641.395,984.311 641.272,983.879 641.129,983.456 640.966,983.043 640.783,982.641 640.583,982.248 640.363,981.867 
							640.127,981.498 639.873,981.142 639.603,980.798 639.316,980.468 639.016,980.151 638.699,979.85 638.369,979.564 
							638.025,979.294 637.668,979.04 637.299,978.804 636.918,978.585 636.526,978.384 636.123,978.201 635.71,978.038 
							635.287,977.896 634.855,977.772 634.416,977.671 633.969,977.591 633.514,977.533 633.052,977.498 						"/>
					</g>
				</g>
			</g>
		</g>
	</g>
	<rect x="16" y="641" fill="#86CC7A" stroke="#86CC7A" stroke-width="8" stroke-miterlimit="10" width="376" height="344"/>
	<text transform="matrix(1 0 0 1 168.5 168.043)"><tspan x="0" y="0" fill="#86CC7A" font-family="'Helvetica'" font-size="93.1988">Images </tspan><tspan x="0" y="111.839" fill="#86CC7A" font-family="'Helvetica'" font-size="93.1988">flexibles</tspan></text>
</g>
</svg>
