<?xml version="1.0" encoding="utf-8"?>
<!-- Generator: Adobe Illustrator 15.1.0, SVG Export Plug-In . SVG Version: 6.00 Build 0)  -->
<!DOCTYPE svg PUBLIC "-//W3C//DTD SVG 1.0//EN" "http://www.w3.org/TR/2001/REC-SVG-20010904/DTD/svg10.dtd">
<svg version="1.0" id="Layer_1" xmlns="http://www.w3.org/2000/svg" xmlns:xlink="http://www.w3.org/1999/xlink" x="0px" y="0px"
	 width="1200px" height="1000px" viewBox="0 0 1200 1000" enable-background="new 0 0 1200 1000" xml:space="preserve">
<g>
	<rect fill="#FFFFFF" width="1200" height="1000"/>
	<g>
		<g>
			<g>
				<g>
					<g>
						<rect x="679.982" y="760.248" fill="none" width="18.191" height="18.191"/>
						<path fill-rule="evenodd" clip-rule="evenodd" fill="#90D370" d="M689.08,760.248c5.023,0,9.094,4.074,9.094,9.098
							s-4.07,9.094-9.094,9.094c-5.02,0-9.098-4.07-9.098-9.094S684.061,760.248,689.08,760.248z"/>
					</g>
				</g>
				<g>
					<g>
						<rect x="679.982" y="725.58" fill="none" width="18.191" height="18.191"/>
						<path fill-rule="evenodd" clip-rule="evenodd" fill="#90D370" d="M689.08,725.58c5.023,0,9.094,4.074,9.094,9.098
							s-4.07,9.094-9.094,9.094c-5.02,0-9.098-4.07-9.098-9.094S684.061,725.58,689.08,725.58z"/>
					</g>
				</g>
				<g>
					<g>
						<rect x="679.982" y="690.912" fill="none" width="18.191" height="18.191"/>
						<path fill-rule="evenodd" clip-rule="evenodd" fill="#90D370" d="M689.08,690.912c5.023,0,9.094,4.074,9.094,9.098
							s-4.07,9.094-9.094,9.094c-5.02,0-9.098-4.07-9.098-9.094S684.061,690.912,689.08,690.912z"/>
					</g>
				</g>
				<g>
					<g>
						<rect x="679.982" y="656.244" fill="none" width="18.191" height="18.191"/>
						<path fill-rule="evenodd" clip-rule="evenodd" fill="#90D370" d="M689.08,656.244c5.023,0,9.094,4.074,9.094,9.098
							s-4.07,9.094-9.094,9.094c-5.02,0-9.098-4.07-9.098-9.094S684.061,656.244,689.08,656.244z"/>
					</g>
				</g>
				<g>
					<g>
						<rect x="679.982" y="621.576" fill="none" width="18.191" height="18.191"/>
						<path fill-rule="evenodd" clip-rule="evenodd" fill="#90D370" d="M689.08,621.576c5.023,0,9.094,4.074,9.094,9.098
							s-4.07,9.094-9.094,9.094c-5.02,0-9.098-4.07-9.098-9.094S684.061,621.576,689.08,621.576z"/>
					</g>
				</g>
				<g>
					<g>
						<rect x="679.982" y="586.908" fill="none" width="18.191" height="18.191"/>
						<path fill-rule="evenodd" clip-rule="evenodd" fill="#90D370" d="M689.08,586.908c5.023,0,9.094,4.074,9.094,9.098
							s-4.07,9.094-9.094,9.094c-5.02,0-9.098-4.07-9.098-9.094S684.061,586.908,689.08,586.908z"/>
					</g>
				</g>
				<g>
					<g>
						<rect x="679.982" y="552.24" fill="none" width="18.191" height="18.191"/>
						<path fill-rule="evenodd" clip-rule="evenodd" fill="#90D370" d="M689.08,552.24c5.023,0,9.094,4.074,9.094,9.098
							s-4.07,9.094-9.094,9.094c-5.02,0-9.098-4.07-9.098-9.094S684.061,552.24,689.08,552.24z"/>
					</g>
				</g>
				<g>
					<g>
						<rect x="679.982" y="517.572" fill="none" width="18.191" height="18.191"/>
						<path fill-rule="evenodd" clip-rule="evenodd" fill="#90D370" d="M689.08,517.572c5.023,0,9.094,4.074,9.094,9.098
							s-4.07,9.094-9.094,9.094c-5.02,0-9.098-4.07-9.098-9.094S684.061,517.572,689.08,517.572z"/>
					</g>
				</g>
				<g>
					<g>
						<rect x="679.982" y="482.904" fill="none" width="18.191" height="18.191"/>
						<path fill-rule="evenodd" clip-rule="evenodd" fill="#90D370" d="M689.08,482.904c5.023,0,9.094,4.074,9.094,9.098
							s-4.07,9.094-9.094,9.094c-5.02,0-9.098-4.07-9.098-9.094S684.061,482.904,689.08,482.904z"/>
					</g>
				</g>
				<g>
					<g>
						<rect x="679.982" y="448.236" fill="none" width="18.191" height="18.191"/>
						<path fill-rule="evenodd" clip-rule="evenodd" fill="#90D370" d="M689.08,448.236c5.023,0,9.094,4.074,9.094,9.098
							s-4.07,9.094-9.094,9.094c-5.02,0-9.098-4.07-9.098-9.094S684.061,448.236,689.08,448.236z"/>
					</g>
				</g>
				<g>
					<g>
						<rect x="679.982" y="413.568" fill="none" width="18.191" height="18.191"/>
						<path fill-rule="evenodd" clip-rule="evenodd" fill="#90D370" d="M689.08,413.568c5.023,0,9.094,4.074,9.094,9.098
							s-4.07,9.094-9.094,9.094c-5.02,0-9.098-4.07-9.098-9.094S684.061,413.568,689.08,413.568z"/>
					</g>
				</g>
				<g>
					<g>
						<rect x="679.982" y="378.9" fill="none" width="18.191" height="18.191"/>
						<path fill-rule="evenodd" clip-rule="evenodd" fill="#90D370" d="M689.08,378.9c5.023,0,9.094,4.074,9.094,9.098
							s-4.07,9.094-9.094,9.094c-5.02,0-9.098-4.07-9.098-9.094S684.061,378.9,689.08,378.9z"/>
					</g>
				</g>
				<g>
					<g>
						<rect x="679.982" y="344.232" fill="none" width="18.191" height="18.191"/>
						<path fill-rule="evenodd" clip-rule="evenodd" fill="#90D370" d="M689.08,344.232c5.023,0,9.094,4.074,9.094,9.098
							s-4.07,9.094-9.094,9.094c-5.02,0-9.098-4.07-9.098-9.094S684.061,344.232,689.08,344.232z"/>
					</g>
				</g>
				<g>
					<g>
						<rect x="679.982" y="309.564" fill="none" width="18.191" height="18.191"/>
						<path fill-rule="evenodd" clip-rule="evenodd" fill="#90D370" d="M689.08,309.564c5.023,0,9.094,4.074,9.094,9.098
							s-4.07,9.094-9.094,9.094c-5.02,0-9.098-4.07-9.098-9.094S684.061,309.564,689.08,309.564z"/>
					</g>
				</g>
				<g>
					<g>
						<rect x="679.982" y="274.896" fill="none" width="18.191" height="18.191"/>
						<path fill-rule="evenodd" clip-rule="evenodd" fill="#90D370" d="M689.08,274.896c5.023,0,9.094,4.074,9.094,9.098
							s-4.07,9.094-9.094,9.094c-5.02,0-9.098-4.07-9.098-9.094S684.061,274.896,689.08,274.896z"/>
					</g>
				</g>
				<g>
					<g>
						<rect x="679.982" y="240.229" fill="none" width="18.191" height="18.191"/>
						<path fill-rule="evenodd" clip-rule="evenodd" fill="#90D370" d="M689.08,240.229c5.023,0,9.094,4.074,9.094,9.098
							s-4.07,9.094-9.094,9.094c-5.02,0-9.098-4.07-9.098-9.094S684.061,240.229,689.08,240.229z"/>
					</g>
				</g>
				<g>
					<g>
						<rect x="679.982" y="205.561" fill="none" width="18.191" height="18.191"/>
						<path fill-rule="evenodd" clip-rule="evenodd" fill="#90D370" d="M689.08,205.561c5.023,0,9.094,4.074,9.094,9.098
							s-4.07,9.094-9.094,9.094c-5.02,0-9.098-4.07-9.098-9.094S684.061,205.561,689.08,205.561z"/>
					</g>
				</g>
				<g>
					<g>
						<rect x="648.248" y="173.826" fill="none" width="18.191" height="18.191"/>
						<path fill-rule="evenodd" clip-rule="evenodd" fill="#90D370" d="M648.248,182.92c0-5.023,4.074-9.094,9.098-9.094
							s9.094,4.07,9.094,9.094c0,5.02-4.07,9.098-9.094,9.098S648.248,187.939,648.248,182.92z"/>
					</g>
				</g>
				<g>
					<g>
						<rect x="613.58" y="173.826" fill="none" width="18.191" height="18.191"/>
						<path fill-rule="evenodd" clip-rule="evenodd" fill="#90D370" d="M613.58,182.92c0-5.023,4.074-9.094,9.098-9.094
							s9.094,4.07,9.094,9.094c0,5.02-4.07,9.098-9.094,9.098S613.58,187.939,613.58,182.92z"/>
					</g>
				</g>
				<g>
					<g>
						<rect x="578.912" y="173.826" fill="none" width="18.191" height="18.191"/>
						<path fill-rule="evenodd" clip-rule="evenodd" fill="#90D370" d="M578.912,182.92c0-5.023,4.074-9.094,9.098-9.094
							s9.094,4.07,9.094,9.094c0,5.02-4.07,9.098-9.094,9.098S578.912,187.939,578.912,182.92z"/>
					</g>
				</g>
				<g>
					<g>
						<rect x="544.244" y="173.826" fill="none" width="18.191" height="18.191"/>
						<path fill-rule="evenodd" clip-rule="evenodd" fill="#90D370" d="M544.244,182.92c0-5.023,4.074-9.094,9.098-9.094
							s9.094,4.07,9.094,9.094c0,5.02-4.07,9.098-9.094,9.098S544.244,187.939,544.244,182.92z"/>
					</g>
				</g>
				<g>
					<g>
						<rect x="509.576" y="173.826" fill="none" width="18.191" height="18.191"/>
						<path fill-rule="evenodd" clip-rule="evenodd" fill="#90D370" d="M509.576,182.92c0-5.023,4.074-9.094,9.098-9.094
							s9.094,4.07,9.094,9.094c0,5.02-4.07,9.098-9.094,9.098S509.576,187.939,509.576,182.92z"/>
					</g>
				</g>
				<g>
					<g>
						<rect x="474.908" y="173.826" fill="none" width="18.191" height="18.191"/>
						<path fill-rule="evenodd" clip-rule="evenodd" fill="#90D370" d="M474.908,182.92c0-5.023,4.074-9.094,9.098-9.094
							s9.094,4.07,9.094,9.094c0,5.02-4.07,9.098-9.094,9.098S474.908,187.939,474.908,182.92z"/>
					</g>
				</g>
				<g>
					<g>
						<rect x="440.24" y="173.826" fill="none" width="18.191" height="18.191"/>
						<path fill-rule="evenodd" clip-rule="evenodd" fill="#90D370" d="M440.24,182.92c0-5.023,4.074-9.094,9.098-9.094
							s9.094,4.07,9.094,9.094c0,5.02-4.07,9.098-9.094,9.098S440.24,187.939,440.24,182.92z"/>
					</g>
				</g>
				<g>
					<g>
						<rect x="405.572" y="173.826" fill="none" width="18.191" height="18.191"/>
						<path fill-rule="evenodd" clip-rule="evenodd" fill="#90D370" d="M405.572,182.92c0-5.023,4.074-9.094,9.098-9.094
							s9.094,4.07,9.094,9.094c0,5.02-4.07,9.098-9.094,9.098S405.572,187.939,405.572,182.92z"/>
					</g>
				</g>
				<g>
					<g>
						<rect x="370.904" y="173.826" fill="none" width="18.191" height="18.191"/>
						<path fill-rule="evenodd" clip-rule="evenodd" fill="#90D370" d="M370.904,182.92c0-5.023,4.074-9.094,9.098-9.094
							s9.094,4.07,9.094,9.094c0,5.02-4.07,9.098-9.094,9.098S370.904,187.939,370.904,182.92z"/>
					</g>
				</g>
				<g>
					<g>
						<rect x="336.236" y="173.826" fill="none" width="18.191" height="18.191"/>
						<path fill-rule="evenodd" clip-rule="evenodd" fill="#90D370" d="M336.236,182.92c0-5.023,4.074-9.094,9.098-9.094
							s9.094,4.07,9.094,9.094c0,5.02-4.07,9.098-9.094,9.098S336.236,187.939,336.236,182.92z"/>
					</g>
				</g>
				<g>
					<g>
						<rect x="301.568" y="173.826" fill="none" width="18.191" height="18.191"/>
						<path fill-rule="evenodd" clip-rule="evenodd" fill="#90D370" d="M301.568,182.92c0-5.023,4.074-9.094,9.098-9.094
							s9.094,4.07,9.094,9.094c0,5.02-4.07,9.098-9.094,9.098S301.568,187.939,301.568,182.92z"/>
					</g>
				</g>
				<g>
					<g>
						<rect x="266.9" y="173.826" fill="none" width="18.191" height="18.191"/>
						<path fill-rule="evenodd" clip-rule="evenodd" fill="#90D370" d="M266.9,182.92c0-5.023,4.074-9.094,9.098-9.094
							s9.094,4.07,9.094,9.094c0,5.02-4.07,9.098-9.094,9.098S266.9,187.939,266.9,182.92z"/>
					</g>
				</g>
				<g>
					<g>
						<rect x="232.232" y="173.826" fill="none" width="18.191" height="18.191"/>
						<path fill-rule="evenodd" clip-rule="evenodd" fill="#90D370" d="M232.232,182.92c0-5.023,4.074-9.094,9.098-9.094
							s9.094,4.07,9.094,9.094c0,5.02-4.07,9.098-9.094,9.098S232.232,187.939,232.232,182.92z"/>
					</g>
				</g>
				<g>
					<g>
						<rect x="197.564" y="173.826" fill="none" width="18.191" height="18.191"/>
						<path fill-rule="evenodd" clip-rule="evenodd" fill="#90D370" d="M197.564,182.92c0-5.023,4.074-9.094,9.098-9.094
							s9.094,4.07,9.094,9.094c0,5.02-4.07,9.098-9.094,9.098S197.564,187.939,197.564,182.92z"/>
					</g>
				</g>
				<g>
					<g>
						<rect x="162.896" y="173.826" fill="none" width="18.191" height="18.191"/>
						<path fill-rule="evenodd" clip-rule="evenodd" fill="#90D370" d="M162.896,182.92c0-5.023,4.074-9.094,9.098-9.094
							s9.094,4.07,9.094,9.094c0,5.02-4.07,9.098-9.094,9.098S162.896,187.939,162.896,182.92z"/>
					</g>
				</g>
				<g>
					<g>
						<rect x="128.229" y="173.826" fill="none" width="18.191" height="18.191"/>
						<path fill-rule="evenodd" clip-rule="evenodd" fill="#90D370" d="M128.229,182.92c0-5.023,4.074-9.094,9.098-9.094
							s9.094,4.07,9.094,9.094c0,5.02-4.07,9.098-9.094,9.098S128.229,187.939,128.229,182.92z"/>
					</g>
				</g>
				<g>
					<g>
						<rect x="93.561" y="173.826" fill="none" width="18.191" height="18.191"/>
						<path fill-rule="evenodd" clip-rule="evenodd" fill="#90D370" d="M93.561,182.92c0-5.023,4.074-9.094,9.098-9.094
							s9.094,4.07,9.094,9.094c0,5.02-4.07,9.098-9.094,9.098S93.561,187.939,93.561,182.92z"/>
					</g>
				</g>
				<g>
					<g>
						<rect x="61.826" y="205.561" fill="none" width="18.191" height="18.191"/>
						<path fill-rule="evenodd" clip-rule="evenodd" fill="#90D370" d="M70.92,223.752c-5.023,0-9.094-4.074-9.094-9.098
							s4.07-9.094,9.094-9.094c5.02,0,9.098,4.07,9.098,9.094S75.939,223.752,70.92,223.752z"/>
					</g>
				</g>
				<g>
					<g>
						<rect x="61.826" y="240.229" fill="none" width="18.191" height="18.191"/>
						<path fill-rule="evenodd" clip-rule="evenodd" fill="#90D370" d="M70.92,258.42c-5.023,0-9.094-4.074-9.094-9.098
							s4.07-9.094,9.094-9.094c5.02,0,9.098,4.07,9.098,9.094S75.939,258.42,70.92,258.42z"/>
					</g>
				</g>
				<g>
					<g>
						<rect x="61.826" y="274.896" fill="none" width="18.191" height="18.191"/>
						<path fill-rule="evenodd" clip-rule="evenodd" fill="#90D370" d="M70.92,293.088c-5.023,0-9.094-4.074-9.094-9.098
							s4.07-9.094,9.094-9.094c5.02,0,9.098,4.07,9.098,9.094S75.939,293.088,70.92,293.088z"/>
					</g>
				</g>
				<g>
					<g>
						<rect x="61.826" y="309.564" fill="none" width="18.191" height="18.191"/>
						<path fill-rule="evenodd" clip-rule="evenodd" fill="#90D370" d="M70.92,327.756c-5.023,0-9.094-4.074-9.094-9.098
							s4.07-9.094,9.094-9.094c5.02,0,9.098,4.07,9.098,9.094S75.939,327.756,70.92,327.756z"/>
					</g>
				</g>
				<g>
					<g>
						<rect x="61.826" y="344.232" fill="none" width="18.191" height="18.191"/>
						<path fill-rule="evenodd" clip-rule="evenodd" fill="#90D370" d="M70.92,362.424c-5.023,0-9.094-4.074-9.094-9.098
							s4.07-9.094,9.094-9.094c5.02,0,9.098,4.07,9.098,9.094S75.939,362.424,70.92,362.424z"/>
					</g>
				</g>
				<g>
					<g>
						<rect x="61.826" y="378.9" fill="none" width="18.191" height="18.191"/>
						<path fill-rule="evenodd" clip-rule="evenodd" fill="#90D370" d="M70.92,397.092c-5.023,0-9.094-4.074-9.094-9.098
							s4.07-9.094,9.094-9.094c5.02,0,9.098,4.07,9.098,9.094S75.939,397.092,70.92,397.092z"/>
					</g>
				</g>
				<g>
					<g>
						<rect x="61.826" y="413.568" fill="none" width="18.191" height="18.191"/>
						<path fill-rule="evenodd" clip-rule="evenodd" fill="#90D370" d="M70.92,431.76c-5.023,0-9.094-4.074-9.094-9.098
							s4.07-9.094,9.094-9.094c5.02,0,9.098,4.07,9.098,9.094S75.939,431.76,70.92,431.76z"/>
					</g>
				</g>
				<g>
					<g>
						<rect x="61.826" y="448.236" fill="none" width="18.191" height="18.191"/>
						<path fill-rule="evenodd" clip-rule="evenodd" fill="#90D370" d="M70.92,466.428c-5.023,0-9.094-4.074-9.094-9.098
							s4.07-9.094,9.094-9.094c5.02,0,9.098,4.07,9.098,9.094S75.939,466.428,70.92,466.428z"/>
					</g>
				</g>
				<g>
					<g>
						<rect x="61.826" y="482.904" fill="none" width="18.191" height="18.191"/>
						<path fill-rule="evenodd" clip-rule="evenodd" fill="#90D370" d="M70.92,501.096c-5.023,0-9.094-4.074-9.094-9.098
							s4.07-9.094,9.094-9.094c5.02,0,9.098,4.07,9.098,9.094S75.939,501.096,70.92,501.096z"/>
					</g>
				</g>
				<g>
					<g>
						<rect x="61.826" y="517.572" fill="none" width="18.191" height="18.191"/>
						<path fill-rule="evenodd" clip-rule="evenodd" fill="#90D370" d="M70.92,535.764c-5.023,0-9.094-4.074-9.094-9.098
							s4.07-9.094,9.094-9.094c5.02,0,9.098,4.07,9.098,9.094S75.939,535.764,70.92,535.764z"/>
					</g>
				</g>
				<g>
					<g>
						<rect x="61.826" y="552.24" fill="none" width="18.191" height="18.191"/>
						<path fill-rule="evenodd" clip-rule="evenodd" fill="#90D370" d="M70.92,570.432c-5.023,0-9.094-4.074-9.094-9.098
							s4.07-9.094,9.094-9.094c5.02,0,9.098,4.07,9.098,9.094S75.939,570.432,70.92,570.432z"/>
					</g>
				</g>
				<g>
					<g>
						<rect x="61.826" y="586.908" fill="none" width="18.191" height="18.191"/>
						<path fill-rule="evenodd" clip-rule="evenodd" fill="#90D370" d="M70.92,605.1c-5.023,0-9.094-4.074-9.094-9.098
							s4.07-9.094,9.094-9.094c5.02,0,9.098,4.07,9.098,9.094S75.939,605.1,70.92,605.1z"/>
					</g>
				</g>
				<g>
					<g>
						<rect x="61.826" y="621.576" fill="none" width="18.191" height="18.191"/>
						<path fill-rule="evenodd" clip-rule="evenodd" fill="#90D370" d="M70.92,639.768c-5.023,0-9.094-4.074-9.094-9.098
							s4.07-9.094,9.094-9.094c5.02,0,9.098,4.07,9.098,9.094S75.939,639.768,70.92,639.768z"/>
					</g>
				</g>
				<g>
					<g>
						<rect x="61.826" y="656.244" fill="none" width="18.191" height="18.191"/>
						<path fill-rule="evenodd" clip-rule="evenodd" fill="#90D370" d="M70.92,674.436c-5.023,0-9.094-4.074-9.094-9.098
							s4.07-9.094,9.094-9.094c5.02,0,9.098,4.07,9.098,9.094S75.939,674.436,70.92,674.436z"/>
					</g>
				</g>
				<g>
					<g>
						<rect x="61.826" y="690.912" fill="none" width="18.191" height="18.191"/>
						<path fill-rule="evenodd" clip-rule="evenodd" fill="#90D370" d="M70.92,709.104c-5.023,0-9.094-4.074-9.094-9.098
							s4.07-9.094,9.094-9.094c5.02,0,9.098,4.07,9.098,9.094S75.939,709.104,70.92,709.104z"/>
					</g>
				</g>
				<g>
					<g>
						<rect x="61.826" y="725.58" fill="none" width="18.191" height="18.191"/>
						<path fill-rule="evenodd" clip-rule="evenodd" fill="#90D370" d="M70.92,743.771c-5.023,0-9.094-4.074-9.094-9.098
							s4.07-9.094,9.094-9.094c5.02,0,9.098,4.07,9.098,9.094S75.939,743.771,70.92,743.771z"/>
					</g>
				</g>
				<g>
					<g>
						<rect x="61.826" y="760.248" fill="none" width="18.191" height="18.191"/>
						<path fill-rule="evenodd" clip-rule="evenodd" fill="#90D370" d="M70.92,778.439c-5.023,0-9.094-4.074-9.094-9.098
							s4.07-9.094,9.094-9.094c5.02,0,9.098,4.07,9.098,9.094S75.939,778.439,70.92,778.439z"/>
					</g>
				</g>
				<g>
					<g>
						<rect x="93.561" y="791.982" fill="none" width="18.191" height="18.191"/>
						<path fill-rule="evenodd" clip-rule="evenodd" fill="#90D370" d="M111.752,801.08c0,5.023-4.074,9.094-9.098,9.094
							s-9.094-4.07-9.094-9.094c0-5.02,4.07-9.098,9.094-9.098S111.752,796.061,111.752,801.08z"/>
					</g>
				</g>
				<g>
					<g>
						<rect x="128.229" y="791.982" fill="none" width="18.191" height="18.191"/>
						<path fill-rule="evenodd" clip-rule="evenodd" fill="#90D370" d="M146.42,801.08c0,5.023-4.074,9.094-9.098,9.094
							s-9.094-4.07-9.094-9.094c0-5.02,4.07-9.098,9.094-9.098S146.42,796.061,146.42,801.08z"/>
					</g>
				</g>
				<g>
					<g>
						<rect x="162.896" y="791.982" fill="none" width="18.191" height="18.191"/>
						<path fill-rule="evenodd" clip-rule="evenodd" fill="#90D370" d="M181.088,801.08c0,5.023-4.074,9.094-9.098,9.094
							s-9.094-4.07-9.094-9.094c0-5.02,4.07-9.098,9.094-9.098S181.088,796.061,181.088,801.08z"/>
					</g>
				</g>
				<g>
					<g>
						<rect x="197.564" y="791.982" fill="none" width="18.191" height="18.191"/>
						<path fill-rule="evenodd" clip-rule="evenodd" fill="#90D370" d="M215.756,801.08c0,5.023-4.074,9.094-9.098,9.094
							s-9.094-4.07-9.094-9.094c0-5.02,4.07-9.098,9.094-9.098S215.756,796.061,215.756,801.08z"/>
					</g>
				</g>
				<g>
					<g>
						<rect x="232.232" y="791.982" fill="none" width="18.191" height="18.191"/>
						<path fill-rule="evenodd" clip-rule="evenodd" fill="#90D370" d="M250.424,801.08c0,5.023-4.074,9.094-9.098,9.094
							s-9.094-4.07-9.094-9.094c0-5.02,4.07-9.098,9.094-9.098S250.424,796.061,250.424,801.08z"/>
					</g>
				</g>
				<g>
					<g>
						<rect x="266.9" y="791.982" fill="none" width="18.191" height="18.191"/>
						<path fill-rule="evenodd" clip-rule="evenodd" fill="#90D370" d="M285.092,801.08c0,5.023-4.074,9.094-9.098,9.094
							s-9.094-4.07-9.094-9.094c0-5.02,4.07-9.098,9.094-9.098S285.092,796.061,285.092,801.08z"/>
					</g>
				</g>
				<g>
					<g>
						<rect x="301.568" y="791.982" fill="none" width="18.191" height="18.191"/>
						<path fill-rule="evenodd" clip-rule="evenodd" fill="#90D370" d="M319.76,801.08c0,5.023-4.074,9.094-9.098,9.094
							s-9.094-4.07-9.094-9.094c0-5.02,4.07-9.098,9.094-9.098S319.76,796.061,319.76,801.08z"/>
					</g>
				</g>
				<g>
					<g>
						<rect x="336.236" y="791.982" fill="none" width="18.191" height="18.191"/>
						<path fill-rule="evenodd" clip-rule="evenodd" fill="#90D370" d="M354.428,801.08c0,5.023-4.074,9.094-9.098,9.094
							s-9.094-4.07-9.094-9.094c0-5.02,4.07-9.098,9.094-9.098S354.428,796.061,354.428,801.08z"/>
					</g>
				</g>
				<g>
					<g>
						<rect x="370.904" y="791.982" fill="none" width="18.191" height="18.191"/>
						<path fill-rule="evenodd" clip-rule="evenodd" fill="#90D370" d="M389.096,801.08c0,5.023-4.074,9.094-9.098,9.094
							s-9.094-4.07-9.094-9.094c0-5.02,4.07-9.098,9.094-9.098S389.096,796.061,389.096,801.08z"/>
					</g>
				</g>
				<g>
					<g>
						<rect x="405.572" y="791.982" fill="none" width="18.191" height="18.191"/>
						<path fill-rule="evenodd" clip-rule="evenodd" fill="#90D370" d="M423.764,801.08c0,5.023-4.074,9.094-9.098,9.094
							s-9.094-4.07-9.094-9.094c0-5.02,4.07-9.098,9.094-9.098S423.764,796.061,423.764,801.08z"/>
					</g>
				</g>
				<g>
					<g>
						<rect x="440.24" y="791.982" fill="none" width="18.191" height="18.191"/>
						<path fill-rule="evenodd" clip-rule="evenodd" fill="#90D370" d="M458.432,801.08c0,5.023-4.074,9.094-9.098,9.094
							s-9.094-4.07-9.094-9.094c0-5.02,4.07-9.098,9.094-9.098S458.432,796.061,458.432,801.08z"/>
					</g>
				</g>
				<g>
					<g>
						<rect x="474.908" y="791.982" fill="none" width="18.191" height="18.191"/>
						<path fill-rule="evenodd" clip-rule="evenodd" fill="#90D370" d="M493.1,801.08c0,5.023-4.074,9.094-9.098,9.094
							s-9.094-4.07-9.094-9.094c0-5.02,4.07-9.098,9.094-9.098S493.1,796.061,493.1,801.08z"/>
					</g>
				</g>
				<g>
					<g>
						<rect x="509.576" y="791.982" fill="none" width="18.191" height="18.191"/>
						<path fill-rule="evenodd" clip-rule="evenodd" fill="#90D370" d="M527.768,801.08c0,5.023-4.074,9.094-9.098,9.094
							s-9.094-4.07-9.094-9.094c0-5.02,4.07-9.098,9.094-9.098S527.768,796.061,527.768,801.08z"/>
					</g>
				</g>
				<g>
					<g>
						<rect x="544.244" y="791.982" fill="none" width="18.191" height="18.191"/>
						<path fill-rule="evenodd" clip-rule="evenodd" fill="#90D370" d="M562.436,801.08c0,5.023-4.074,9.094-9.098,9.094
							s-9.094-4.07-9.094-9.094c0-5.02,4.07-9.098,9.094-9.098S562.436,796.061,562.436,801.08z"/>
					</g>
				</g>
				<g>
					<g>
						<rect x="578.912" y="791.982" fill="none" width="18.191" height="18.191"/>
						<path fill-rule="evenodd" clip-rule="evenodd" fill="#90D370" d="M597.104,801.08c0,5.023-4.074,9.094-9.098,9.094
							s-9.094-4.07-9.094-9.094c0-5.02,4.07-9.098,9.094-9.098S597.104,796.061,597.104,801.08z"/>
					</g>
				</g>
				<g>
					<g>
						<rect x="613.58" y="791.982" fill="none" width="18.191" height="18.191"/>
						<path fill-rule="evenodd" clip-rule="evenodd" fill="#90D370" d="M631.771,801.08c0,5.023-4.074,9.094-9.098,9.094
							s-9.094-4.07-9.094-9.094c0-5.02,4.07-9.098,9.094-9.098S631.771,796.061,631.771,801.08z"/>
					</g>
				</g>
				<g>
					<g>
						<rect x="648.248" y="791.982" fill="none" width="18.191" height="18.191"/>
						<path fill-rule="evenodd" clip-rule="evenodd" fill="#90D370" d="M666.439,801.08c0,5.023-4.074,9.094-9.098,9.094
							s-9.094-4.07-9.094-9.094c0-5.02,4.07-9.098,9.094-9.098S666.439,796.061,666.439,801.08z"/>
					</g>
				</g>
				<g>
					<g>
						<rect x="679.986" y="173.818" fill="none" width="18.191" height="18.191"/>
						<polygon fill-rule="evenodd" clip-rule="evenodd" fill="#90D370" points="679.986,182.916 679.998,183.384 680.033,183.846 
							680.091,184.301 680.171,184.749 680.272,185.189 680.396,185.621 680.538,186.043 680.701,186.456 680.884,186.859 
							681.085,187.251 681.304,187.632 681.54,188.001 681.794,188.357 682.064,188.701 682.35,189.031 682.651,189.347 
							682.968,189.648 683.298,189.934 683.642,190.204 683.998,190.457 684.367,190.693 684.748,190.913 685.141,191.113 
							685.543,191.295 685.956,191.458 686.379,191.601 686.811,191.724 687.251,191.825 687.699,191.905 688.154,191.963 
							688.616,191.998 689.084,192.01 689.552,191.998 690.014,191.963 690.469,191.905 690.917,191.825 691.357,191.724 
							691.789,191.601 692.211,191.458 692.624,191.295 693.027,191.113 693.419,190.913 693.8,190.693 694.169,190.457 
							694.525,190.204 694.869,189.934 695.199,189.648 695.515,189.347 695.815,189.031 696.102,188.701 696.371,188.357 
							696.625,188.001 696.861,187.632 697.08,187.251 697.281,186.859 697.463,186.456 697.626,186.043 697.769,185.621 
							697.892,185.189 697.993,184.749 698.073,184.301 698.131,183.846 698.166,183.384 698.178,182.916 698.166,182.448 
							698.131,181.987 698.073,181.532 697.993,181.084 697.892,180.644 697.769,180.212 697.626,179.79 697.463,179.377 
							697.281,178.974 697.08,178.582 696.861,178.201 696.625,177.832 696.371,177.475 696.102,177.131 695.815,176.801 
							695.515,176.485 695.199,176.184 694.869,175.897 694.525,175.627 694.169,175.374 693.8,175.137 693.419,174.917 
							693.027,174.716 692.624,174.534 692.211,174.371 691.789,174.228 691.357,174.105 690.917,174.003 690.469,173.923 
							690.014,173.865 689.552,173.83 689.084,173.818 688.616,173.83 688.154,173.865 687.699,173.923 687.251,174.003 
							686.811,174.105 686.379,174.228 685.956,174.371 685.543,174.534 685.141,174.716 684.748,174.917 684.367,175.137 
							683.998,175.374 683.642,175.627 683.298,175.897 682.968,176.184 682.651,176.485 682.35,176.801 682.064,177.131 
							681.794,177.475 681.54,177.832 681.304,178.201 681.085,178.582 680.884,178.974 680.701,179.377 680.538,179.79 
							680.396,180.212 680.272,180.644 680.171,181.084 680.091,181.532 680.033,181.987 679.998,182.448 						"/>
					</g>
				</g>
				<g>
					<g>
						<rect x="61.818" y="173.822" fill="none" width="18.191" height="18.191"/>
						<polygon fill-rule="evenodd" clip-rule="evenodd" fill="#90D370" points="70.916,192.014 71.384,192.002 71.846,191.967 
							72.301,191.909 72.749,191.829 73.189,191.727 73.621,191.604 74.043,191.461 74.456,191.299 74.859,191.116 75.251,190.916 
							75.632,190.696 76.001,190.459 76.357,190.206 76.701,189.936 77.031,189.65 77.347,189.349 77.648,189.033 77.934,188.703 
							78.204,188.359 78.457,188.002 78.693,187.633 78.913,187.252 79.113,186.86 79.295,186.457 79.458,186.043 79.601,185.621 
							79.724,185.189 79.825,184.749 79.905,184.301 79.963,183.846 79.998,183.384 80.01,182.916 79.998,182.448 79.963,181.986 
							79.905,181.531 79.825,181.083 79.724,180.643 79.601,180.211 79.458,179.789 79.295,179.376 79.113,178.973 78.913,178.581 
							78.693,178.2 78.457,177.831 78.204,177.475 77.934,177.131 77.648,176.801 77.347,176.485 77.031,176.184 76.701,175.898 
							76.357,175.628 76.001,175.375 75.632,175.139 75.251,174.919 74.859,174.719 74.456,174.537 74.043,174.374 73.621,174.231 
							73.189,174.108 72.749,174.007 72.301,173.927 71.846,173.869 71.384,173.834 70.916,173.822 70.448,173.834 69.987,173.869 
							69.532,173.927 69.084,174.007 68.644,174.108 68.212,174.231 67.79,174.374 67.377,174.537 66.974,174.719 66.582,174.919 
							66.201,175.139 65.832,175.375 65.475,175.628 65.131,175.898 64.801,176.184 64.485,176.485 64.184,176.801 63.897,177.131 
							63.627,177.475 63.374,177.831 63.137,178.2 62.917,178.581 62.716,178.973 62.534,179.376 62.371,179.789 62.228,180.211 
							62.105,180.643 62.003,181.083 61.923,181.531 61.865,181.986 61.83,182.448 61.818,182.916 61.83,183.384 61.865,183.846 
							61.923,184.301 62.003,184.749 62.105,185.189 62.228,185.621 62.371,186.043 62.534,186.457 62.716,186.86 62.917,187.252 
							63.137,187.633 63.374,188.002 63.627,188.359 63.897,188.703 64.184,189.033 64.485,189.349 64.801,189.65 65.131,189.936 
							65.475,190.206 65.832,190.459 66.201,190.696 66.582,190.916 66.974,191.116 67.377,191.299 67.79,191.461 68.212,191.604 
							68.644,191.727 69.084,191.829 69.532,191.909 69.987,191.967 70.448,192.002 						"/>
					</g>
				</g>
				<g>
					<g>
						<rect x="61.822" y="791.99" fill="none" width="18.191" height="18.191"/>
						<polygon fill-rule="evenodd" clip-rule="evenodd" fill="#90D370" points="80.014,801.084 80.002,800.616 79.967,800.154 
							79.909,799.699 79.829,799.251 79.727,798.811 79.604,798.379 79.461,797.957 79.299,797.544 79.116,797.141 78.916,796.749 
							78.696,796.368 78.459,795.999 78.206,795.643 77.936,795.299 77.65,794.969 77.349,794.653 77.033,794.353 76.703,794.066 
							76.359,793.797 76.002,793.543 75.633,793.307 75.252,793.088 74.86,792.887 74.457,792.705 74.043,792.542 73.621,792.399 
							73.189,792.276 72.749,792.175 72.301,792.095 71.846,792.037 71.384,792.002 70.916,791.99 70.448,792.002 69.986,792.037 
							69.531,792.095 69.083,792.175 68.643,792.276 68.211,792.399 67.789,792.542 67.376,792.705 66.973,792.887 66.581,793.088 
							66.2,793.307 65.831,793.543 65.475,793.797 65.131,794.066 64.801,794.353 64.485,794.653 64.184,794.969 63.898,795.299 
							63.628,795.643 63.375,795.999 63.139,796.368 62.919,796.749 62.719,797.141 62.537,797.544 62.374,797.957 62.231,798.379 
							62.108,798.811 62.007,799.251 61.927,799.699 61.869,800.154 61.834,800.616 61.822,801.084 61.834,801.552 61.869,802.014 
							61.927,802.469 62.007,802.916 62.108,803.355 62.231,803.787 62.374,804.21 62.537,804.623 62.719,805.026 62.919,805.418 
							63.139,805.799 63.375,806.168 63.628,806.525 63.898,806.869 64.184,807.199 64.485,807.516 64.801,807.816 65.131,808.103 
							65.475,808.373 65.831,808.627 66.2,808.863 66.581,809.083 66.973,809.283 67.376,809.466 67.789,809.629 68.211,809.772 
							68.643,809.895 69.083,809.996 69.531,810.077 69.986,810.135 70.448,810.17 70.916,810.182 71.384,810.17 71.846,810.135 
							72.301,810.077 72.749,809.996 73.189,809.895 73.621,809.772 74.043,809.629 74.457,809.466 74.86,809.283 75.252,809.083 
							75.633,808.863 76.002,808.627 76.359,808.373 76.703,808.103 77.033,807.816 77.349,807.516 77.65,807.199 77.936,806.869 
							78.206,806.525 78.459,806.168 78.696,805.799 78.916,805.418 79.116,805.026 79.299,804.623 79.461,804.21 79.604,803.787 
							79.727,803.355 79.829,802.916 79.909,802.469 79.967,802.014 80.002,801.552 						"/>
					</g>
				</g>
				<g>
					<g>
						<rect x="679.99" y="791.986" fill="none" width="18.191" height="18.191"/>
						<polygon fill-rule="evenodd" clip-rule="evenodd" fill="#90D370" points="689.084,791.986 688.616,791.998 688.154,792.033 
							687.699,792.091 687.251,792.171 686.811,792.272 686.379,792.396 685.957,792.538 685.544,792.701 685.141,792.884 
							684.749,793.085 684.368,793.304 683.999,793.54 683.643,793.794 683.299,794.064 682.969,794.35 682.653,794.651 
							682.353,794.968 682.066,795.298 681.797,795.642 681.543,795.998 681.307,796.367 681.088,796.748 680.887,797.141 
							680.705,797.543 680.542,797.956 680.399,798.379 680.276,798.811 680.175,799.251 680.095,799.699 680.037,800.154 
							680.002,800.616 679.99,801.084 680.002,801.552 680.037,802.014 680.095,802.469 680.175,802.917 680.276,803.357 
							680.399,803.789 680.542,804.211 680.705,804.624 680.887,805.027 681.088,805.419 681.307,805.8 681.543,806.169 
							681.797,806.525 682.066,806.869 682.353,807.199 682.653,807.515 682.969,807.815 683.299,808.102 683.643,808.371 
							683.999,808.625 684.368,808.861 684.749,809.08 685.141,809.281 685.544,809.463 685.957,809.626 686.379,809.769 
							686.811,809.892 687.251,809.993 687.699,810.073 688.154,810.131 688.616,810.166 689.084,810.178 689.552,810.166 
							690.014,810.131 690.469,810.073 690.916,809.993 691.355,809.892 691.787,809.769 692.21,809.626 692.623,809.463 
							693.026,809.281 693.418,809.08 693.799,808.861 694.168,808.625 694.525,808.371 694.869,808.102 695.199,807.815 
							695.516,807.515 695.816,807.199 696.103,806.869 696.373,806.525 696.627,806.169 696.863,805.8 697.083,805.419 
							697.283,805.027 697.466,804.624 697.629,804.211 697.772,803.789 697.895,803.357 697.996,802.917 698.077,802.469 
							698.135,802.014 698.17,801.552 698.182,801.084 698.17,800.616 698.135,800.154 698.077,799.699 697.996,799.251 
							697.895,798.811 697.772,798.379 697.629,797.956 697.466,797.543 697.283,797.141 697.083,796.748 696.863,796.367 
							696.627,795.998 696.373,795.642 696.103,795.298 695.816,794.968 695.516,794.651 695.199,794.35 694.869,794.064 
							694.525,793.794 694.168,793.54 693.799,793.304 693.418,793.085 693.026,792.884 692.623,792.701 692.21,792.538 
							691.787,792.396 691.355,792.272 690.916,792.171 690.469,792.091 690.014,792.033 689.552,791.998 						"/>
					</g>
				</g>
			</g>
		</g>
	</g>
	<rect x="73" y="455" fill="#86CC7A" stroke="#86CC7A" stroke-width="8" stroke-miterlimit="10" width="376" height="344"/>
	<text transform="matrix(1 0 0 1 773 454.543)"><tspan x="0" y="0" fill="#86CC7A" font-family="'Helvetica'" font-size="93.1988">Images </tspan><tspan x="0" y="111.839" fill="#86CC7A" font-family="'Helvetica'" font-size="93.1988">flexibles</tspan></text>
</g>
</svg>
