<?xml version="1.0" encoding="utf-8"?>
<!-- Generator: Adobe Illustrator 15.1.0, SVG Export Plug-In . SVG Version: 6.00 Build 0)  -->
<!DOCTYPE svg PUBLIC "-//W3C//DTD SVG 1.0//EN" "http://www.w3.org/TR/2001/REC-SVG-20010904/DTD/svg10.dtd">
<svg version="1.0" id="Layer_1" xmlns="http://www.w3.org/2000/svg" xmlns:xlink="http://www.w3.org/1999/xlink" x="0px" y="0px"
	 width="650px" height="1160px" viewBox="0 0 650 1160" enable-background="new 0 0 650 1160" xml:space="preserve">
<g>
	<rect x="-38" y="-8" fill="#EF7373" width="712" height="1168"/>
	<text transform="matrix(1 0 0 1 42.8149 806.3711)" fill="#FFFFFF" font-family="'EuphemiaUCAS-Bold'" font-size="236.2049">RWD</text>
	<g>
		<path fill="#FFFFFF" d="M508.535,247c0,0-287.646,0-383.529,0c-4.24,0-10.006,2.942-10.006,7.183v269.012
			c0,4.24,5.766,7.806,10.006,7.806h383.529c4.241,0,5.465-3.565,5.465-7.806V254.183C514,249.942,512.776,247,508.535,247z
			 M498,507.322c0,4.24-3.438,7.678-7.678,7.678H138.678c-4.24,0-7.678-3.438-7.678-7.678V269.678c0-4.24,3.438-7.678,7.678-7.678
			h351.645c4.24,0,7.678,3.438,7.678,7.678V507.322z M318.316,254.764c0,1.18-0.955,2.137-2.134,2.137s-2.134-0.957-2.134-2.137
			s0.955-2.137,2.134-2.137S318.316,253.584,318.316,254.764z M316.558,254.766c0,0.237-0.192,0.43-0.43,0.43
			c-0.238,0-0.43-0.192-0.43-0.43c0-0.238,0.191-0.43,0.43-0.43C316.365,254.336,316.558,254.527,316.558,254.766z"/>
		<path fill="#FFFFFF" d="M453,296.678c0-4.24-3.438-7.678-7.678-7.678H182.678c-4.24,0-7.678,3.438-7.678,7.678v182.645
			c0,4.24,3.438,7.678,7.678,7.678h262.645c4.24,0,7.678-3.438,7.678-7.678V296.678z M423,466.418c0,4.24-0.947,8.582-5.264,8.582
			H196.881c-4.317,0-9.881-4.342-9.881-8.582V309.352c0-4.24,5.563-7.352,9.881-7.352h220.855c4.316,0,5.264,3.111,5.264,7.352
			V466.418z M440.621,380.369c3.853,0,6.975,3.123,6.975,6.975c0,3.853-3.122,6.976-6.975,6.976c-3.852,0-6.975-3.123-6.975-6.976
			C433.646,383.492,436.77,380.369,440.621,380.369z M185.31,387.563c0,1.18-0.955,2.136-2.134,2.136
			c-1.178,0-2.134-0.956-2.134-2.136c0-1.181,0.956-2.137,2.134-2.137C184.354,385.427,185.31,386.383,185.31,387.563z
			 M183.598,387.566c0,0.254-0.206,0.459-0.459,0.459c-0.254,0-0.459-0.205-0.459-0.459c0-0.253,0.205-0.459,0.459-0.459
			C183.392,387.107,183.598,387.313,183.598,387.566z"/>
		<path fill="#FFFFFF" d="M582.523,538H368v1.376c0,2.923-1.268,5.624-5.508,5.624H260.756c-4.24,0-9.756-2.701-9.756-5.624V538
			H57.453c-4.24,0-9.453,2.557-9.453,6.238v15.719c0,3.682,5.213,8.043,9.453,8.043h525.071c4.24,0,5.477-4.361,5.477-8.043v-15.719
			C588,540.557,586.764,538,582.523,538z M533.906,551h-15.44c-0.533,0-0.966-0.468-0.966-1c0-0.533,0.433-1,0.966-1h15.44
			c0.533,0,0.965,0.467,0.965,1C534.871,550.532,534.439,551,533.906,551z"/>
		<path fill="#FFFFFF" d="M351,321.4c0-3.929-0.322-6.4-3.733-6.4h-69.419c-3.412,0-7.848,2.472-7.848,6.4v132.404
			c0,3.929,4.436,8.195,7.848,8.195h69.419c3.411,0,3.733-4.267,3.733-8.195V321.4z M345,429.572c0,3.34-0.016,7.428-3.426,7.428
			h-57.514c-3.41,0-8.061-4.088-8.061-7.428v-98.848c0-3.338,4.65-3.725,8.061-3.725h57.514c3.41,0,3.426,0.387,3.426,3.725V429.572
			z M319.544,448.4c0,3.457-2.434,6.259-5.435,6.259s-5.434-2.802-5.434-6.259c0-3.456,2.433-6.259,5.434-6.259
			S319.544,444.944,319.544,448.4z M321,321.188c0,0.518,0.319,0.812-0.371,0.812h-17.5c-0.69,0-2.129-0.295-2.129-0.812v-0.375
			c0-0.518,1.438-0.812,2.129-0.812h17.5c0.69,0,0.371,0.295,0.371,0.812V321.188z"/>
	</g>
	<text transform="matrix(1 0 0 1 173.9795 1023.0059)" fill="#FFFFFF" font-family="'Helvetica'" font-size="39.8213">@imNicoSuarez</text>
</g>
</svg>
