<?xml version="1.0" encoding="utf-8"?>
<!-- Generator: Adobe Illustrator 15.1.0, SVG Export Plug-In . SVG Version: 6.00 Build 0)  -->
<!DOCTYPE svg PUBLIC "-//W3C//DTD SVG 1.0//EN" "http://www.w3.org/TR/2001/REC-SVG-20010904/DTD/svg10.dtd">
<svg version="1.0" id="Layer_1" xmlns="http://www.w3.org/2000/svg" xmlns:xlink="http://www.w3.org/1999/xlink" x="0px" y="0px"
	 width="1200px" height="1000px" viewBox="0 0 1200 1000" enable-background="new 0 0 1200 1000" xml:space="preserve">
<g>
	<rect fill="#FFFFFF" width="1200" height="1000"/>
	<line fill="none" stroke="#020202" stroke-miterlimit="10" x1="206.5" y1="172" x2="206.5" y2="859"/>
	<line fill="none" stroke="#020202" stroke-miterlimit="10" x1="699" y1="771.5" x2="174" y2="771.5"/>
	<text transform="matrix(1 0 0 1 717.8018 525.0254)" font-family="'Helvetica'" font-size="64">+  Mobile</text>
	<path fill="#CC6060" d="M577.055,377.625l-28.212-69.346l-9.724,4.547l-68.917,26.093l6.728,17.77l44.757-16.947L405.647,558.498
		l-13.513-84.126l-19.861,4.327l-1.445-1.04l-0.813,1.532l-1.265,0.274l0.261,1.618L233.259,736.998l20.239,14.564L375.51,521.549
		l12.713,79.154l23.385-5.093l-0.326-2.034l2.695,1.939l135.121-254.729l17.061,41.936L577.055,377.625z M544.502,331.106
		l0.569-0.216l0.36,0.885L544.502,331.106z"/>
</g>
</svg>
