<?xml version="1.0" encoding="utf-8"?>
<!-- Generator: Adobe Illustrator 15.1.0, SVG Export Plug-In . SVG Version: 6.00 Build 0)  -->
<!DOCTYPE svg PUBLIC "-//W3C//DTD SVG 1.0//EN" "http://www.w3.org/TR/2001/REC-SVG-20010904/DTD/svg10.dtd">
<svg version="1.0" id="Layer_1" xmlns="http://www.w3.org/2000/svg" xmlns:xlink="http://www.w3.org/1999/xlink" x="0px" y="0px"
	 width="650px" height="1160px" viewBox="0 0 650 1160" enable-background="new 0 0 650 1160" xml:space="preserve">
<g>
	<rect x="-19" y="-4" fill="#86CC7A" width="688" height="1168"/>
	<text transform="matrix(1 0 0 1 47.5352 538.4424)"><tspan x="0" y="0" fill="#FFFFFF" font-family="'Helvetica'" font-size="100">¿Porque es</tspan><tspan x="0" y="120" fill="#FFFFFF" font-family="'Helvetica'" font-size="100"> importante?</tspan></text>
	<g>
		<rect x="-25" y="-6" fill="#FFFFFF" width="699" height="1173"/>
		<line fill="none" stroke="#020202" stroke-miterlimit="10" x1="97.5" y1="208" x2="97.5" y2="895"/>
		<line fill="none" stroke="#020202" stroke-miterlimit="10" x1="590" y1="807.5" x2="65" y2="807.5"/>
		<text transform="matrix(1 0 0 1 201.3018 928.5254)" font-family="'Helvetica'" font-size="64">+  Mobile</text>
		<path fill="#CC6060" d="M468.055,413.126l-28.212-69.347l-9.724,4.547l-68.917,26.094l6.728,17.77l44.757-16.946L296.647,593.998
			l-13.513-84.127l-19.862,4.327l-1.445-1.039l-0.813,1.532l-1.264,0.274l0.26,1.618L124.259,772.499l20.239,14.563L266.51,557.049
			l12.713,79.154l23.385-5.093l-0.327-2.034l2.695,1.939l135.122-254.729l17.061,41.936L468.055,413.126z M435.502,366.605
			l0.569-0.216l0.36,0.885L435.502,366.605z"/>
	</g>
</g>
</svg>
