<?xml version="1.0" encoding="utf-8"?>
<!-- Generator: Adobe Illustrator 15.1.0, SVG Export Plug-In . SVG Version: 6.00 Build 0)  -->
<!DOCTYPE svg PUBLIC "-//W3C//DTD SVG 1.0//EN" "http://www.w3.org/TR/2001/REC-SVG-20010904/DTD/svg10.dtd">
<svg version="1.0" id="Layer_1" xmlns="http://www.w3.org/2000/svg" xmlns:xlink="http://www.w3.org/1999/xlink" x="0px" y="0px"
	 width="650px" height="1160px" viewBox="0 0 650 1160" enable-background="new 0 0 650 1160" xml:space="preserve">
<g>
	<rect x="-24.5" y="-6.5" fill="#86CC7A" width="699" height="1173"/>
	<rect x="75" y="202" fill="#FFFFFF" width="498" height="845"/>
	<g>
		<path fill="#86CC7A" d="M582.246,211.945c0-24.559-4.557-40.007-26.762-40.007h-451.86c-22.206,0-47.872,15.448-47.872,40.007
			v827.729c0,24.564,25.666,51.236,47.872,51.236h451.86c22.205,0,26.762-26.672,26.762-51.236V211.945z M541.051,888.186
			c0,20.885-0.426,44.432-22.615,44.432H144.072c-22.205,0-51.689-23.547-51.689-44.432V270.242
			c0-20.869,29.484-23.559,51.689-23.559h374.363c22.189,0,22.615,2.689,22.615,23.559V888.186z M375.035,1005.887
			c0,21.62-15.841,39.131-35.377,39.131c-19.537,0-35.361-17.511-35.361-39.131c0-21.597,15.824-39.122,35.361-39.122
			C359.194,966.765,375.035,984.29,375.035,1005.887z M385.391,210.618c0,3.241,1.191,5.286-3.295,5.286H268.18
			c-4.488,0-10.982-2.045-10.982-5.286v-2.347c0-3.23,6.494-5.553,10.982-5.553h113.916c4.486,0,3.295,2.322,3.295,5.553V210.618z"
			/>
		<rect x="111" y="264" fill="#9E9E9E" width="409" height="105"/>
		<rect x="111" y="377" fill="#BABABA" width="409" height="221"/>
		<g>
			<rect x="120" y="617" fill="#C4C4C4" width="400" height="16"/>
			<rect x="120" y="743" fill="#C4C4C4" width="400" height="18"/>
			<rect x="120" y="658" fill="#C4C4C4" width="400" height="18"/>
			<rect x="120" y="701" fill="#C4C4C4" width="400" height="17"/>
			<g>
				<rect x="120" y="864" fill="#C4C4C4" width="400" height="16"/>
				<rect x="120" y="778" fill="#C4C4C4" width="400" height="17"/>
				<rect x="120" y="820" fill="#C4C4C4" width="400" height="19"/>
			</g>
		</g>
	</g>
	<text transform="matrix(1 0 0 1 160.9072 117.3809)" fill="#FFFFFF" font-family="'Helvetica'" font-size="66.7264">Mobile First</text>
</g>
</svg>
