<?xml version="1.0" encoding="utf-8"?>
<!-- Generator: Adobe Illustrator 15.1.0, SVG Export Plug-In . SVG Version: 6.00 Build 0)  -->
<!DOCTYPE svg PUBLIC "-//W3C//DTD SVG 1.0//EN" "http://www.w3.org/TR/2001/REC-SVG-20010904/DTD/svg10.dtd">
<svg version="1.0" id="Layer_1" xmlns="http://www.w3.org/2000/svg" xmlns:xlink="http://www.w3.org/1999/xlink" x="0px" y="0px"
	 width="1200px" height="1000px" viewBox="0 0 1200 1000" enable-background="new 0 0 1200 1000" xml:space="preserve">
<g>
	<rect y="12" fill="#FFFFFF" width="1200" height="976"/>
	<g>
		<g>
			<g>
				<g>
					<g>
						<g>
							<path fill="#86CC7A" d="M857.471,307c0,0-446.782,0-595.711,0c-6.582,0-14.76,3.369-14.76,9.956V734.79
								c0,6.585,8.178,12.21,14.76,12.21h595.711c6.582,0,9.529-5.625,9.529-12.21V316.956C867,310.369,864.053,307,857.471,307z
								 M841,710.075c0,6.585-5.339,11.925-11.925,11.925h-545.15c-6.586,0-11.925-5.34-11.925-11.925v-369.15
								c0-6.586,5.339-11.925,11.925-11.925h545.15c6.586,0,11.925,5.339,11.925,11.925V710.075z M562.016,317.857
								c0,1.835-1.481,3.32-3.313,3.32c-1.83,0-3.314-1.485-3.314-3.32c0-1.829,1.484-3.32,3.314-3.32
								C560.534,314.538,562.016,316.028,562.016,317.857z M559.282,317.863c0,0.367-0.296,0.668-0.665,0.668
								c-0.37,0-0.669-0.301-0.669-0.668c0-0.37,0.299-0.668,0.669-0.668C558.986,317.194,559.282,317.493,559.282,317.863z"/>
							<path fill="#86CC7A" d="M972.386,759H639v0.923c0,4.542-1.784,10.077-8.369,10.077H472.612
								c-6.585,0-15.612-5.535-15.612-10.077V759H156.839c-6.584,0-13.839,2.759-13.839,8.478v24.413
								c0,5.719,7.255,14.109,13.839,14.109h815.547c6.588,0,9.614-8.391,9.614-14.109v-24.413C982,761.759,978.974,759,972.386,759
								z M896.874,778h-23.98c-0.829,0-1.503-0.673-1.503-1.5s0.674-1.5,1.503-1.5h23.98c0.827,0,1.498,0.673,1.498,1.5
								S897.701,778,896.874,778z"/>
						</g>
					</g>
				</g>
			</g>
			<rect x="297" y="355" fill="#9E9E9E" width="522" height="61"/>
			<rect x="530" y="447" fill="#BABABA" width="283" height="143"/>
			<rect x="300" y="616" fill="#BABABA" width="146" height="89"/>
			<rect x="480" y="616" fill="#BABABA" width="145" height="89"/>
			<rect x="665" y="616" fill="#BABABA" width="146" height="89"/>
			<g>
				<rect x="300" y="470" fill="#C4C4C4" width="152" height="5"/>
				<rect x="300" y="484" fill="#C4C4C4" width="182" height="5"/>
				<rect x="300" y="498" fill="#C4C4C4" width="210" height="5"/>
				<rect x="300" y="512" fill="#C4C4C4" width="152" height="5"/>
				<rect x="300" y="526" fill="#C4C4C4" width="182" height="5"/>
				<rect x="300" y="540" fill="#C4C4C4" width="152" height="5"/>
				<rect x="300" y="554" fill="#C4C4C4" width="152" height="5"/>
				<rect x="300" y="568" fill="#C4C4C4" width="182" height="5"/>
				<rect x="300" y="582" fill="#C4C4C4" width="210" height="5"/>
			</g>
			<rect x="300" y="447" fill="#AFAFAF" width="137" height="11"/>
		</g>
		<g>
			<path fill="#86CC7A" d="M1057.29,435.644c0-8.056-1.436-13.123-8.431-13.123H906.513c-6.995,0-15.081,5.067-15.081,13.123
				v271.499c0,8.058,8.086,16.807,15.081,16.807h142.347c6.995,0,8.431-8.749,8.431-16.807V435.644z M1044.312,657.454
				c0,6.851-0.135,14.574-7.124,14.574H919.255c-6.996,0-16.284-7.724-16.284-14.574v-202.69c0-6.845,9.288-7.727,16.284-7.727
				h117.934c6.989,0,7.124,0.882,7.124,7.727V657.454z M992.014,696.061c0,7.091-4.99,12.835-11.146,12.835
				c-6.154,0-11.139-5.744-11.139-12.835c0-7.083,4.984-12.833,11.139-12.833C987.023,683.228,992.014,688.978,992.014,696.061z
				 M995.275,435.208c0,1.062,0.376,1.733-1.038,1.733h-35.886c-1.414,0-3.46-0.671-3.46-1.733v-0.771c0-1.06,2.046-1.82,3.46-1.82
				h35.886c1.414,0,1.038,0.761,1.038,1.82V435.208z"/>
			<rect x="909" y="453" fill="#9E9E9E" width="129" height="34"/>
			<rect x="909" y="493" fill="#BABABA" width="129" height="73"/>
			<g>
				<rect x="910" y="572" fill="#C4C4C4" width="127" height="5"/>
				<rect x="910" y="614" fill="#C4C4C4" width="127" height="6"/>
				<rect x="910" y="586" fill="#C4C4C4" width="127" height="5"/>
				<rect x="910" y="600" fill="#C4C4C4" width="127" height="5"/>
				<g>
					<rect x="910" y="653" fill="#C4C4C4" width="127" height="6"/>
					<rect x="910" y="625" fill="#C4C4C4" width="127" height="6"/>
					<rect x="910" y="639" fill="#C4C4C4" width="127" height="6"/>
				</g>
			</g>
		</g>
	</g>
	<text transform="matrix(1 0 0 1 244.9487 214.1123)" fill="#86CC7A" font-family="'Helvetica'" font-size="90.6855">Ocultar contenido</text>
</g>
</svg>
