<?xml version="1.0" encoding="utf-8"?>
<!-- Generator: Adobe Illustrator 15.1.0, SVG Export Plug-In . SVG Version: 6.00 Build 0)  -->
<!DOCTYPE svg PUBLIC "-//W3C//DTD SVG 1.0//EN" "http://www.w3.org/TR/2001/REC-SVG-20010904/DTD/svg10.dtd">
<svg version="1.0" id="Layer_1" xmlns="http://www.w3.org/2000/svg" xmlns:xlink="http://www.w3.org/1999/xlink" x="0px" y="0px"
	 width="650px" height="1160px" viewBox="0 0 650 1160" enable-background="new 0 0 650 1160" xml:space="preserve">
<g>
	<rect x="-25" y="-6" fill="#FFFFFF" width="699" height="1173"/>
	<g>
		<g>
			<g>
				<g>
					<g>
						<g>
							<path fill="#86CC7A" d="M482.404,442c0,0-282.591,0-376.789,0c-4.164,0-9.616,1.631-9.616,5.797v264.281
								c0,4.165,5.452,7.922,9.616,7.922h376.789c4.162,0,5.596-3.757,5.596-7.922V447.797C488,443.631,486.566,442,482.404,442z
								 M472,697.457c0,4.166-3.377,7.543-7.543,7.543H119.543c-4.166,0-7.543-3.377-7.543-7.543V463.543
								c0-4.166,3.377-7.543,7.543-7.543h344.914c4.166,0,7.543,3.377,7.543,7.543V697.457z M295.527,448.367
								c0,1.161-0.937,2.101-2.096,2.101c-1.157,0-2.096-0.939-2.096-2.101c0-1.157,0.938-2.1,2.096-2.1
								C294.591,446.268,295.527,447.21,295.527,448.367z M293.799,448.371c0,0.232-0.188,0.423-0.42,0.423
								c-0.234,0-0.424-0.19-0.424-0.423c0-0.234,0.189-0.423,0.424-0.423C293.611,447.948,293.799,448.137,293.799,448.371z"/>
							<path fill="#86CC7A" d="M555.088,728H344v-0.025c0,2.873-0.908,7.025-5.072,7.025H238.98c-4.165,0-9.98-4.152-9.98-7.025V728
								H39.253c-4.164,0-9.253,1.135-9.253,4.752v15.442c0,3.617,5.089,9.806,9.253,9.806h515.835c4.167,0,5.912-6.188,5.912-9.806
								v-15.442C561,729.135,559.255,728,555.088,728z M507.326,740h-15.168c-0.523,0-0.95-0.477-0.95-1s0.427-1,0.95-1h15.168
								c0.523,0,0.947,0.477,0.947,1S507.85,740,507.326,740z"/>
						</g>
					</g>
				</g>
			</g>
			<rect x="127" y="472" fill="#9E9E9E" width="331" height="39"/>
			<rect x="275" y="531" fill="#BABABA" width="179" height="90"/>
			<rect x="129" y="637" fill="#BABABA" width="93" height="57"/>
			<rect x="243" y="637" fill="#BABABA" width="92" height="57"/>
			<rect x="360" y="637" fill="#BABABA" width="93" height="57"/>
			<g>
				<rect x="129" y="545" fill="#C4C4C4" width="96" height="3"/>
				<rect x="129" y="554" fill="#C4C4C4" width="115" height="3"/>
				<rect x="129" y="563" fill="#C4C4C4" width="133" height="3"/>
				<rect x="129" y="572" fill="#C4C4C4" width="96" height="3"/>
				<rect x="129" y="581" fill="#C4C4C4" width="115" height="3"/>
				<rect x="129" y="589" fill="#C4C4C4" width="96" height="4"/>
				<rect x="129" y="598" fill="#C4C4C4" width="96" height="3"/>
				<rect x="129" y="607" fill="#C4C4C4" width="115" height="3"/>
				<rect x="129" y="616" fill="#C4C4C4" width="133" height="3"/>
			</g>
			<rect x="129" y="531" fill="#AFAFAF" width="87" height="7"/>
		</g>
		<g>
			<path fill="#86CC7A" d="M608.79,522.867c0-5.095-0.908-8.301-5.333-8.301h-90.034c-4.425,0-9.538,3.206-9.538,8.301v171.724
				c0,5.097,5.113,10.63,9.538,10.63h90.034c4.425,0,5.333-5.533,5.333-10.63V522.867z M600.582,663.163
				c0,4.333-0.086,9.218-4.506,9.218h-74.594c-4.425,0-10.3-4.885-10.3-9.218V534.961c0-4.329,5.875-4.887,10.3-4.887h74.594
				c4.42,0,4.506,0.558,4.506,4.887V663.163z M567.502,687.582c0,4.484-3.156,8.117-7.049,8.117s-7.045-3.633-7.045-8.117
				c0-4.481,3.152-8.117,7.045-8.117S567.502,683.101,567.502,687.582z M569.565,522.592c0,0.672,0.237,1.097-0.656,1.097h-22.698
				c-0.895,0-2.188-0.425-2.188-1.097v-0.487c0-0.67,1.294-1.151,2.188-1.151h22.698c0.894,0,0.656,0.481,0.656,1.151V522.592z"/>
			<rect x="514" y="534" fill="#9E9E9E" width="82" height="22"/>
			<rect x="514" y="560" fill="#BABABA" width="82" height="46"/>
			<g>
				<rect x="515" y="610" fill="#C4C4C4" width="80" height="3"/>
				<rect x="515" y="636" fill="#C4C4C4" width="80" height="4"/>
				<rect x="515" y="618" fill="#C4C4C4" width="80" height="4"/>
				<rect x="515" y="627" fill="#C4C4C4" width="80" height="3"/>
				<g>
					<rect x="515" y="661" fill="#C4C4C4" width="80" height="4"/>
					<rect x="515" y="643" fill="#C4C4C4" width="80" height="4"/>
					<rect x="515" y="652" fill="#C4C4C4" width="80" height="4"/>
				</g>
			</g>
		</g>
	</g>
	<text transform="matrix(1 0 0 1 177.4487 283.6128)" fill="#86CC7A" font-family="'Helvetica'" font-size="90.6855">Ocultar </text>
</g>
</svg>
