<?xml version="1.0" encoding="utf-8"?>
<!-- Generator: Adobe Illustrator 15.1.0, SVG Export Plug-In . SVG Version: 6.00 Build 0)  -->
<!DOCTYPE svg PUBLIC "-//W3C//DTD SVG 1.0//EN" "http://www.w3.org/TR/2001/REC-SVG-20010904/DTD/svg10.dtd">
<svg version="1.0" id="Layer_1" xmlns="http://www.w3.org/2000/svg" xmlns:xlink="http://www.w3.org/1999/xlink" x="0px" y="0px"
	 width="1200px" height="1000px" viewBox="0 0 1200 1000" enable-background="new 0 0 1200 1000" xml:space="preserve">
<g>
	<rect fill="#F2E397" width="1200" height="1000"/>
	<polygon fill="#FFFFFF" points="716,385 438,385 438,385.002 482.574,509.275 438,633.549 438,637 716,637 716,635.551 
		764,510.275 	"/>
	<polygon fill="#FFFFFF" points="1013,384 735,384 735,384.002 779.574,508.275 735,632.549 735,636 1013,636 1013,634.551 
		1061,509.275 	"/>
	<polygon fill="#FFFFFF" points="420,386 142,386 142,386.002 186.574,510.275 142,634.549 142,638 420,638 420,636.551 
		468,511.275 	"/>
	<text transform="matrix(1 0 0 1 211 564)" fill="#F2E397" font-family="'Helvetica'" font-size="146">Pro</text>
	<text transform="matrix(1 0 0 1 532 558)" fill="#F2E397" font-family="'Helvetica'" font-size="146">ce</text>
	<text transform="matrix(1 0 0 1 820 556)" fill="#F2E397" font-family="'Helvetica'" font-size="146">so</text>
</g>
</svg>
