<?xml version="1.0" encoding="utf-8"?>
<!-- Generator: Adobe Illustrator 15.1.0, SVG Export Plug-In . SVG Version: 6.00 Build 0)  -->
<!DOCTYPE svg PUBLIC "-//W3C//DTD SVG 1.0//EN" "http://www.w3.org/TR/2001/REC-SVG-20010904/DTD/svg10.dtd">
<svg version="1.0" id="Layer_1" xmlns="http://www.w3.org/2000/svg" xmlns:xlink="http://www.w3.org/1999/xlink" x="0px" y="0px"
	 width="650px" height="1160px" viewBox="0 0 650 1160" enable-background="new 0 0 650 1160" xml:space="preserve">
<g>
	<rect x="-31" fill="#F2E397" width="712" height="1160"/>
	<polygon fill="#FFFFFF" points="199,473.5 199,752 199.901,752 324.175,707.426 448.448,752 451,752 451,474 450.45,474 
		324.725,425.75 	"/>
	<polygon fill="#FFFFFF" points="199,176.5 199,455 199.502,455 323.775,410.426 448.049,455 451,455 451,177 450.051,177 
		324.525,128.75 	"/>
	<polygon fill="#FFFFFF" points="199,769.5 199,1048 199.902,1048 324.176,1003.426 448.449,1048 451,1048 451,770 450.45,770 
		324.725,721.75 	"/>
	<text transform="matrix(1 0 0 1 211.8003 361)" fill="#F2E397" font-family="'Helvetica'" font-size="146">Pro</text>
	<text transform="matrix(1 0 0 1 248.3003 623)" fill="#F2E397" font-family="'Helvetica'" font-size="146">ce</text>
	<text transform="matrix(1 0 0 1 248.3008 913)" fill="#F2E397" font-family="'Helvetica'" font-size="146">so</text>
</g>
</svg>
